<svg width="58" height="51" viewBox="0 0 58 51" fill="none" xmlns="http://www.w3.org/2000/svg">
<rect x="0.5" y="0.5" width="57" height="50" stroke="#FFFCFA"/>
<path d="M16.3848 37C16.3848 36.9121 16.3799 36.8193 16.3701 36.7217C16.3604 36.6143 16.3555 36.5166 16.3555 36.4287C16.3555 35.1885 16.5166 34.0996 16.8389 33.1621C17.1709 32.2148 17.6006 31.375 18.1279 30.6426C18.665 29.9102 19.2754 29.2559 19.959 28.6797C20.6426 28.1035 21.3408 27.5615 22.0537 27.0537C22.7666 26.5459 23.4648 26.0527 24.1484 25.5742C24.832 25.0859 25.4375 24.5684 25.9648 24.0215C26.502 23.4648 26.9316 22.8594 27.2539 22.2051C27.5859 21.541 27.752 20.7744 27.752 19.9053C27.752 19.2314 27.6396 18.6162 27.415 18.0596C27.1904 17.5029 26.8779 17.0293 26.4775 16.6387C26.0771 16.2383 25.6035 15.9307 25.0566 15.7158C24.5098 15.501 23.9189 15.3936 23.2842 15.3936C22.5322 15.3936 21.8633 15.54 21.2773 15.833C20.6914 16.1162 20.1934 16.4727 19.7832 16.9023C19.3828 17.332 19.0752 17.8008 18.8604 18.3086C18.6455 18.8164 18.5381 19.2949 18.5381 19.7441C18.5381 20.1934 18.6016 20.5791 18.7285 20.9014C18.8652 21.2139 19.041 21.4727 19.2559 21.6777C19.4805 21.8828 19.7295 22.0342 20.0029 22.1318C20.2861 22.2197 20.5791 22.2637 20.8818 22.2637C21.2139 22.2637 21.5361 22.2148 21.8486 22.1172C22.1709 22.0195 22.4688 21.8828 22.7422 21.707L23.2256 22.293C23.0791 22.5176 22.8936 22.752 22.6689 22.9961C22.4443 23.2402 22.1904 23.4648 21.9072 23.6699C21.624 23.8652 21.3115 24.0264 20.9697 24.1533C20.6377 24.2803 20.2812 24.3438 19.9004 24.3438C19.5 24.3438 19.1094 24.2754 18.7285 24.1387C18.3574 24.002 18.0254 23.792 17.7324 23.5088C17.4492 23.2158 17.2197 22.8496 17.0439 22.4102C16.8682 21.9609 16.7803 21.4238 16.7803 20.7988C16.7803 20.1641 16.9268 19.4854 17.2197 18.7627C17.5225 18.04 17.9619 17.376 18.5381 16.7705C19.1143 16.1553 19.8174 15.6475 20.6475 15.2471C21.4873 14.8467 22.4443 14.6465 23.5186 14.6465C24.3096 14.6465 25.0713 14.7979 25.8037 15.1006C26.5459 15.4033 27.2002 15.8232 27.7666 16.3604C28.3428 16.8877 28.8018 17.5225 29.1436 18.2646C29.4951 18.9971 29.6709 19.793 29.6709 20.6523C29.6709 21.6094 29.5293 22.4346 29.2461 23.1279C28.9727 23.8213 28.5967 24.4316 28.1182 24.959C27.6494 25.4766 27.1025 25.9355 26.4775 26.3359C25.8525 26.7363 25.1982 27.1221 24.5146 27.4932C23.8408 27.8545 23.1523 28.2256 22.4492 28.6064C21.7559 28.9873 21.0967 29.4219 20.4717 29.9102C19.8467 30.3887 19.2803 30.9502 18.7725 31.5947C18.2646 32.2295 17.8594 32.9912 17.5566 33.8799C17.7031 33.6846 17.8594 33.5039 18.0254 33.3379C18.1914 33.1719 18.377 33.0254 18.582 32.8984C18.7969 32.7715 19.0312 32.6738 19.2852 32.6055C19.5391 32.5371 19.8223 32.5029 20.1348 32.5029C20.4863 32.5029 20.8428 32.5566 21.2041 32.6641C21.5752 32.7617 21.9463 32.8887 22.3174 33.0449C22.6982 33.2012 23.0742 33.3721 23.4453 33.5576C23.8262 33.7334 24.2021 33.8994 24.5732 34.0557C24.9443 34.2119 25.3105 34.3438 25.6719 34.4512C26.0332 34.5488 26.3848 34.5977 26.7266 34.5977C27.0195 34.5977 27.2832 34.5781 27.5176 34.5391C27.752 34.5 27.9619 34.4268 28.1475 34.3193C28.3428 34.2119 28.5186 34.0605 28.6748 33.8652C28.8311 33.6602 28.9824 33.3965 29.1289 33.0742L29.6416 33.1914C29.5928 33.6211 29.4951 34.0605 29.3486 34.5098C29.2119 34.959 29.0068 35.3691 28.7334 35.7402C28.46 36.1113 28.1133 36.4141 27.6934 36.6484C27.2734 36.8828 26.7559 37 26.1406 37C25.7598 37 25.374 36.9316 24.9834 36.7949C24.6025 36.6484 24.2217 36.4727 23.8408 36.2676C23.46 36.0527 23.084 35.8232 22.7129 35.5791C22.3418 35.3252 21.9756 35.0957 21.6143 34.8906C21.2529 34.6758 20.9014 34.5 20.5596 34.3633C20.2178 34.2168 19.8857 34.1436 19.5635 34.1436C19.251 34.1436 18.9727 34.207 18.7285 34.334C18.4844 34.4609 18.2695 34.627 18.084 34.832C17.9082 35.0273 17.7568 35.2422 17.6299 35.4766C17.5127 35.7109 17.4102 35.9355 17.3223 36.1504C17.2441 36.3555 17.1807 36.541 17.1318 36.707C17.0928 36.8633 17.0635 36.9609 17.0439 37H16.3848ZM38.7383 27.1855C39.2656 27.1855 39.7686 27.0488 40.2471 26.7754C40.7354 26.502 41.1602 26.1211 41.5215 25.6328C41.8926 25.1348 42.1855 24.5391 42.4004 23.8457C42.6152 23.1523 42.7227 22.3857 42.7227 21.5459C42.7227 20.6182 42.6299 19.8027 42.4443 19.0996C42.2686 18.3867 42.0098 17.7959 41.668 17.3271C41.3359 16.8486 40.9355 16.4873 40.4668 16.2432C39.998 15.999 39.4805 15.877 38.9141 15.877C38.416 15.877 37.9424 16.0137 37.4932 16.2871C37.0537 16.5508 36.668 16.9316 36.3359 17.4297C36.0039 17.9277 35.7402 18.5283 35.5449 19.2314C35.3496 19.9346 35.252 20.7256 35.252 21.6045C35.252 22.4541 35.3203 23.2256 35.457 23.9189C35.6035 24.6025 35.8232 25.1885 36.1162 25.6768C36.4092 26.1553 36.7705 26.5264 37.2002 26.79C37.6396 27.0537 38.1523 27.1855 38.7383 27.1855ZM36.1895 36.458C36.5898 36.2822 37.0146 36.0576 37.4639 35.7842C37.9229 35.501 38.3818 35.1494 38.8408 34.7295C39.3096 34.3096 39.7637 33.8164 40.2031 33.25C40.6426 32.6738 41.0479 32.0098 41.4189 31.2578C41.79 30.5059 42.1123 29.6514 42.3857 28.6943C42.6689 27.7275 42.874 26.6484 43.001 25.457C42.8936 25.623 42.7275 25.8525 42.5029 26.1455C42.2783 26.4385 41.9854 26.7266 41.624 27.0098C41.2627 27.293 40.8281 27.542 40.3203 27.7568C39.8125 27.9619 39.2266 28.0645 38.5625 28.0645C37.6348 28.0645 36.8096 27.9082 36.0869 27.5957C35.3643 27.2832 34.7539 26.8633 34.2559 26.3359C33.7578 25.7988 33.377 25.1787 33.1133 24.4756C32.8594 23.7725 32.7324 23.0254 32.7324 22.2344C32.7324 21.1211 32.8984 20.125 33.2305 19.2461C33.5625 18.3672 34.0117 17.625 34.5781 17.0195C35.1445 16.4043 35.8086 15.9355 36.5703 15.6133C37.332 15.291 38.1426 15.1299 39.002 15.1299C39.9688 15.1299 40.8477 15.3252 41.6387 15.7158C42.4297 16.1064 43.1035 16.6826 43.6602 17.4443C44.2266 18.2061 44.6611 19.1533 44.9639 20.2861C45.2764 21.4189 45.4326 22.7227 45.4326 24.1973C45.4326 25.3301 45.3105 26.4189 45.0664 27.4639C44.8223 28.499 44.4854 29.4756 44.0557 30.3936C43.626 31.3018 43.1182 32.1367 42.5322 32.8984C41.9561 33.6602 41.3311 34.3291 40.6572 34.9053C39.9932 35.4814 39.2998 35.9502 38.5771 36.3115C37.8545 36.6729 37.1367 36.9121 36.4238 37.0293L36.1895 36.458Z" fill="#FFFCFA"/>
</svg>
