<svg width="58" height="39" viewBox="0 0 58 39" fill="none" xmlns="http://www.w3.org/2000/svg">
<rect x="0.5" y="1.5" width="57" height="37" stroke="#FFFCFA"/>
<path d="M14.0371 31C14.0371 30.9121 14.0322 30.8193 14.0225 30.7217C14.0127 30.6143 14.0078 30.5166 14.0078 30.4287C14.0078 29.1885 14.1689 28.0996 14.4912 27.1621C14.8232 26.2148 15.2529 25.375 15.7803 24.6426C16.3174 23.9102 16.9277 23.2559 17.6113 22.6797C18.2949 22.1035 18.9932 21.5615 19.7061 21.0537C20.4189 20.5459 21.1172 20.0527 21.8008 19.5742C22.4844 19.0859 23.0898 18.5684 23.6172 18.0215C24.1543 17.4648 24.584 16.8594 24.9062 16.2051C25.2383 15.541 25.4043 14.7744 25.4043 13.9053C25.4043 13.2314 25.292 12.6162 25.0674 12.0596C24.8428 11.5029 24.5303 11.0293 24.1299 10.6387C23.7295 10.2383 23.2559 9.93066 22.709 9.71582C22.1621 9.50098 21.5713 9.39355 20.9365 9.39355C20.1846 9.39355 19.5156 9.54004 18.9297 9.83301C18.3438 10.1162 17.8457 10.4727 17.4355 10.9023C17.0352 11.332 16.7275 11.8008 16.5127 12.3086C16.2979 12.8164 16.1904 13.2949 16.1904 13.7441C16.1904 14.1934 16.2539 14.5791 16.3809 14.9014C16.5176 15.2139 16.6934 15.4727 16.9082 15.6777C17.1328 15.8828 17.3818 16.0342 17.6553 16.1318C17.9385 16.2197 18.2314 16.2637 18.5342 16.2637C18.8662 16.2637 19.1885 16.2148 19.501 16.1172C19.8232 16.0195 20.1211 15.8828 20.3945 15.707L20.8779 16.293C20.7314 16.5176 20.5459 16.752 20.3213 16.9961C20.0967 17.2402 19.8428 17.4648 19.5596 17.6699C19.2764 17.8652 18.9639 18.0264 18.6221 18.1533C18.29 18.2803 17.9336 18.3438 17.5527 18.3438C17.1523 18.3438 16.7617 18.2754 16.3809 18.1387C16.0098 18.002 15.6777 17.792 15.3848 17.5088C15.1016 17.2158 14.8721 16.8496 14.6963 16.4102C14.5205 15.9609 14.4326 15.4238 14.4326 14.7988C14.4326 14.1641 14.5791 13.4854 14.8721 12.7627C15.1748 12.04 15.6143 11.376 16.1904 10.7705C16.7666 10.1553 17.4697 9.64746 18.2998 9.24707C19.1396 8.84668 20.0967 8.64648 21.1709 8.64648C21.9619 8.64648 22.7236 8.79785 23.4561 9.10059C24.1982 9.40332 24.8525 9.82324 25.4189 10.3604C25.9951 10.8877 26.4541 11.5225 26.7959 12.2646C27.1475 12.9971 27.3232 13.793 27.3232 14.6523C27.3232 15.6094 27.1816 16.4346 26.8984 17.1279C26.625 17.8213 26.249 18.4316 25.7705 18.959C25.3018 19.4766 24.7549 19.9355 24.1299 20.3359C23.5049 20.7363 22.8506 21.1221 22.167 21.4932C21.4932 21.8545 20.8047 22.2256 20.1016 22.6064C19.4082 22.9873 18.749 23.4219 18.124 23.9102C17.499 24.3887 16.9326 24.9502 16.4248 25.5947C15.917 26.2295 15.5117 26.9912 15.209 27.8799C15.3555 27.6846 15.5117 27.5039 15.6777 27.3379C15.8438 27.1719 16.0293 27.0254 16.2344 26.8984C16.4492 26.7715 16.6836 26.6738 16.9375 26.6055C17.1914 26.5371 17.4746 26.5029 17.7871 26.5029C18.1387 26.5029 18.4951 26.5566 18.8564 26.6641C19.2275 26.7617 19.5986 26.8887 19.9697 27.0449C20.3506 27.2012 20.7266 27.3721 21.0977 27.5576C21.4785 27.7334 21.8545 27.8994 22.2256 28.0557C22.5967 28.2119 22.9629 28.3438 23.3242 28.4512C23.6855 28.5488 24.0371 28.5977 24.3789 28.5977C24.6719 28.5977 24.9355 28.5781 25.1699 28.5391C25.4043 28.5 25.6143 28.4268 25.7998 28.3193C25.9951 28.2119 26.1709 28.0605 26.3271 27.8652C26.4834 27.6602 26.6348 27.3965 26.7812 27.0742L27.2939 27.1914C27.2451 27.6211 27.1475 28.0605 27.001 28.5098C26.8643 28.959 26.6592 29.3691 26.3857 29.7402C26.1123 30.1113 25.7656 30.4141 25.3457 30.6484C24.9258 30.8828 24.4082 31 23.793 31C23.4121 31 23.0264 30.9316 22.6357 30.7949C22.2549 30.6484 21.874 30.4727 21.4932 30.2676C21.1123 30.0527 20.7363 29.8232 20.3652 29.5791C19.9941 29.3252 19.6279 29.0957 19.2666 28.8906C18.9053 28.6758 18.5537 28.5 18.2119 28.3633C17.8701 28.2168 17.5381 28.1436 17.2158 28.1436C16.9033 28.1436 16.625 28.207 16.3809 28.334C16.1367 28.4609 15.9219 28.627 15.7363 28.832C15.5605 29.0273 15.4092 29.2422 15.2822 29.4766C15.165 29.7109 15.0625 29.9355 14.9746 30.1504C14.8965 30.3555 14.833 30.541 14.7842 30.707C14.7451 30.8633 14.7158 30.9609 14.6963 31H14.0371ZM37.4453 30.2529C38.2656 30.2529 38.9443 29.9697 39.4814 29.4033C40.0283 28.8271 40.458 28.0654 40.7705 27.1182C41.0928 26.1709 41.3174 25.0869 41.4443 23.8662C41.5713 22.6357 41.6348 21.3613 41.6348 20.043C41.6348 19.1738 41.6055 18.3193 41.5469 17.4795C41.498 16.6299 41.4102 15.8291 41.2832 15.0771C41.1562 14.3154 40.9854 13.6172 40.7705 12.9824C40.5654 12.3379 40.3066 11.7861 39.9941 11.3271C39.6816 10.8584 39.3154 10.4971 38.8955 10.2432C38.4756 9.97949 37.9922 9.84766 37.4453 9.84766C36.8887 9.84766 36.4004 9.97949 35.9805 10.2432C35.5605 10.4971 35.1943 10.8584 34.8818 11.3271C34.5693 11.7861 34.3057 12.3379 34.0908 12.9824C33.8857 13.6172 33.7197 14.3154 33.5928 15.0771C33.4658 15.8291 33.373 16.6299 33.3145 17.4795C33.2656 18.3193 33.2412 19.1738 33.2412 20.043C33.2412 21.3613 33.3047 22.6357 33.4316 23.8662C33.5586 25.0869 33.7783 26.1709 34.0908 27.1182C34.4131 28.0654 34.8428 28.8271 35.3799 29.4033C35.9268 29.9697 36.6152 30.2529 37.4453 30.2529ZM37.4453 31C36.3125 31 35.3311 30.7266 34.501 30.1797C33.6807 29.623 32.9971 28.8613 32.4502 27.8945C31.9033 26.918 31.498 25.7607 31.2344 24.4229C30.9707 23.085 30.8389 21.625 30.8389 20.043C30.8389 18.4707 30.9707 17.0156 31.2344 15.6777C31.498 14.3398 31.9033 13.1875 32.4502 12.2207C32.9971 11.2441 33.6807 10.4824 34.501 9.93555C35.3311 9.37891 36.3125 9.10059 37.4453 9.10059C38.5684 9.10059 39.5449 9.37891 40.375 9.93555C41.2051 10.4824 41.8887 11.2441 42.4258 12.2207C42.9727 13.1875 43.3779 14.3398 43.6416 15.6777C43.9053 17.0156 44.0371 18.4707 44.0371 20.043C44.0371 21.625 43.9053 23.085 43.6416 24.4229C43.3779 25.7607 42.9727 26.918 42.4258 27.8945C41.8887 28.8613 41.2051 29.623 40.375 30.1797C39.5449 30.7266 38.5684 31 37.4453 31Z" fill="#FFFCFA"/>
</svg>
