<svg width="58" height="51" viewBox="0 0 58 51" fill="none" xmlns="http://www.w3.org/2000/svg">
<rect x="0.5" y="0.5" width="57" height="50" stroke="#FFFCFA"/>
<path d="M31.6875 22C31.6875 21.9414 31.6842 21.8796 31.6777 21.8145C31.6712 21.7428 31.668 21.6777 31.668 21.6191C31.668 20.7923 31.7754 20.0664 31.9902 19.4414C32.2116 18.8099 32.498 18.25 32.8496 17.7617C33.2077 17.2734 33.6146 16.8372 34.0703 16.4531C34.526 16.069 34.9915 15.7077 35.4668 15.3691C35.9421 15.0306 36.4076 14.7018 36.8633 14.3828C37.319 14.0573 37.7227 13.7122 38.0742 13.3477C38.4323 12.9766 38.7188 12.5729 38.9336 12.1367C39.1549 11.694 39.2656 11.1829 39.2656 10.6035C39.2656 10.1543 39.1908 9.74414 39.041 9.37305C38.8913 9.00195 38.6829 8.6862 38.416 8.42578C38.1491 8.15885 37.8333 7.95378 37.4688 7.81055C37.1042 7.66732 36.7103 7.5957 36.2871 7.5957C35.7858 7.5957 35.3398 7.69336 34.9492 7.88867C34.5586 8.07747 34.2266 8.3151 33.9531 8.60156C33.6862 8.88802 33.4811 9.20052 33.3379 9.53906C33.1947 9.8776 33.123 10.1966 33.123 10.4961C33.123 10.7956 33.1654 11.0527 33.25 11.2676C33.3411 11.4759 33.4583 11.6484 33.6016 11.7852C33.7513 11.9219 33.9173 12.0228 34.0996 12.0879C34.2884 12.1465 34.4837 12.1758 34.6855 12.1758C34.9069 12.1758 35.1217 12.1432 35.3301 12.0781C35.5449 12.013 35.7435 11.9219 35.9258 11.8047L36.248 12.1953C36.1504 12.3451 36.0267 12.5013 35.877 12.6641C35.7272 12.8268 35.5579 12.9766 35.3691 13.1133C35.1803 13.2435 34.972 13.3509 34.7441 13.4355C34.5228 13.5202 34.2852 13.5625 34.0312 13.5625C33.7643 13.5625 33.5039 13.5169 33.25 13.4258C33.0026 13.3346 32.7812 13.1947 32.5859 13.0059C32.3971 12.8105 32.2441 12.5664 32.127 12.2734C32.0098 11.974 31.9512 11.6159 31.9512 11.1992C31.9512 10.776 32.0488 10.3236 32.2441 9.8418C32.446 9.36003 32.7389 8.91732 33.123 8.51367C33.5072 8.10352 33.9759 7.76497 34.5293 7.49805C35.0892 7.23112 35.7272 7.09766 36.4434 7.09766C36.9707 7.09766 37.4785 7.19857 37.9668 7.40039C38.4616 7.60221 38.8978 7.88216 39.2754 8.24023C39.6595 8.5918 39.9655 9.01497 40.1934 9.50977C40.4277 9.99805 40.5449 10.5286 40.5449 11.1016C40.5449 11.7396 40.4505 12.2897 40.2617 12.752C40.0794 13.2142 39.8288 13.6211 39.5098 13.9727C39.1973 14.3177 38.8327 14.6237 38.416 14.8906C37.9993 15.1576 37.5632 15.4147 37.1074 15.6621C36.6582 15.903 36.1992 16.1504 35.7305 16.4043C35.2682 16.6582 34.8288 16.9479 34.4121 17.2734C33.9954 17.5924 33.6178 17.9668 33.2793 18.3965C32.9408 18.8197 32.6706 19.3275 32.4688 19.9199C32.5664 19.7897 32.6706 19.6693 32.7812 19.5586C32.8919 19.4479 33.0156 19.3503 33.1523 19.2656C33.2956 19.181 33.4518 19.1159 33.6211 19.0703C33.7904 19.0247 33.9792 19.002 34.1875 19.002C34.4219 19.002 34.6595 19.0378 34.9004 19.1094C35.1478 19.1745 35.3952 19.2591 35.6426 19.3633C35.8965 19.4674 36.1471 19.5814 36.3945 19.7051C36.6484 19.8223 36.8991 19.9329 37.1465 20.0371C37.3939 20.1413 37.638 20.2292 37.8789 20.3008C38.1198 20.3659 38.3542 20.3984 38.582 20.3984C38.7773 20.3984 38.9531 20.3854 39.1094 20.3594C39.2656 20.3333 39.4056 20.2845 39.5293 20.2129C39.6595 20.1413 39.7767 20.0404 39.8809 19.9102C39.985 19.7734 40.0859 19.5977 40.1836 19.3828L40.5254 19.4609C40.4928 19.7474 40.4277 20.0404 40.3301 20.3398C40.2389 20.6393 40.1022 20.9128 39.9199 21.1602C39.7376 21.4076 39.5065 21.6094 39.2266 21.7656C38.9466 21.9219 38.6016 22 38.1914 22C37.9375 22 37.6803 21.9544 37.4199 21.8633C37.166 21.7656 36.9121 21.6484 36.6582 21.5117C36.4043 21.3685 36.1536 21.2155 35.9062 21.0527C35.6589 20.8835 35.4147 20.7305 35.1738 20.5938C34.9329 20.4505 34.6986 20.3333 34.4707 20.2422C34.2428 20.1445 34.0215 20.0957 33.8066 20.0957C33.5983 20.0957 33.4128 20.138 33.25 20.2227C33.0872 20.3073 32.944 20.418 32.8203 20.5547C32.7031 20.6849 32.6022 20.8281 32.5176 20.9844C32.4395 21.1406 32.3711 21.2904 32.3125 21.4336C32.2604 21.5703 32.2181 21.694 32.1855 21.8047C32.1595 21.9089 32.14 21.974 32.127 22H31.6875ZM42.293 16.6387C43.3802 15.6751 44.2656 14.7474 44.9492 13.8555C45.6393 12.957 46.1797 12.1139 46.5703 11.3262C46.9609 10.5384 47.2279 9.8125 47.3711 9.14844C47.5143 8.48438 47.5859 7.90169 47.5859 7.40039H49.1875C49.1875 7.98633 49.0931 8.56901 48.9043 9.14844C48.722 9.72135 48.4779 10.2845 48.1719 10.8379C47.8659 11.3913 47.5208 11.9251 47.1367 12.4395C46.7526 12.9538 46.362 13.4421 45.9648 13.9043C45.5677 14.36 45.1803 14.7865 44.8027 15.1836C44.4316 15.5742 44.1061 15.9193 43.8262 16.2188C43.9173 16.2057 44.0117 16.1927 44.1094 16.1797C44.2135 16.1667 44.3405 16.1602 44.4902 16.1602C44.9199 16.1602 45.3203 16.2318 45.6914 16.375C46.0625 16.5117 46.4141 16.6712 46.7461 16.8535C47.0846 17.0358 47.4102 17.2181 47.7227 17.4004C48.0417 17.5762 48.3574 17.7031 48.6699 17.7812C48.709 16.6224 48.7285 15.4017 48.7285 14.1191V12.8008L50.125 12.4004C50.125 12.7194 50.1217 13.084 50.1152 13.4941C50.1152 13.8978 50.112 14.334 50.1055 14.8027C50.099 15.265 50.0892 15.7533 50.0762 16.2676C50.0697 16.7754 50.0599 17.293 50.0469 17.8203C50.1901 17.8008 50.3301 17.7682 50.4668 17.7227C50.61 17.6771 50.7695 17.6022 50.9453 17.498L51.1895 17.8008C51.0202 17.944 50.8346 18.0612 50.6328 18.1523C50.431 18.237 50.2292 18.2988 50.0273 18.3379C50.0078 18.9499 49.985 19.5651 49.959 20.1836C49.9329 20.8021 49.9036 21.4076 49.8711 22H48.4746C48.5072 21.4141 48.5397 20.8184 48.5723 20.2129C48.6048 19.6009 48.6309 18.9694 48.6504 18.3184C48.3118 18.2402 47.9798 18.11 47.6543 17.9277C47.3353 17.7389 47.0065 17.5501 46.668 17.3613C46.3294 17.166 45.9746 16.9967 45.6035 16.8535C45.2324 16.7103 44.8288 16.6387 44.3926 16.6387C44.1712 16.6387 43.9694 16.6615 43.7871 16.707C43.6113 16.7526 43.4518 16.8079 43.3086 16.873C43.1654 16.9382 43.0384 17.0065 42.9277 17.0781C42.8236 17.1432 42.7324 17.1986 42.6543 17.2441L42.293 16.6387Z" fill="#FFFCFA"/>
</svg>
