<svg width="58" height="51" viewBox="0 0 58 51" fill="none" xmlns="http://www.w3.org/2000/svg">
<rect x="0.5" y="0.5" width="57" height="50" stroke="#FFFCFA"/>
<path d="M17.043 35.9453L19.7383 35.8574C20.1094 35.8379 20.3779 35.7549 20.5439 35.6084C20.71 35.4521 20.793 35.1836 20.793 34.8027V18.9971C20.4121 19.1924 19.9971 19.3682 19.5479 19.5244C19.167 19.6611 18.7227 19.7832 18.2148 19.8906C17.707 19.998 17.165 20.0518 16.5889 20.0518V19.3047C17.126 19.3047 17.668 19.1826 18.2148 18.9385C18.7617 18.6846 19.2646 18.3623 19.7236 17.9717C20.1924 17.5713 20.5977 17.1221 20.9395 16.624C21.291 16.1162 21.54 15.6084 21.6865 15.1006H23.0342V34.8027C23.0342 35.1836 23.1172 35.4521 23.2832 35.6084C23.4492 35.7549 23.7178 35.8379 24.0889 35.8574L26.3447 35.9453V37H17.043V35.9453ZM28.4395 28.958C30.0703 27.5127 31.3984 26.1211 32.4238 24.7832C33.459 23.4355 34.2695 22.1709 34.8555 20.9893C35.4414 19.8076 35.8418 18.7188 36.0566 17.7227C36.2715 16.7266 36.3789 15.8525 36.3789 15.1006H38.7812C38.7812 15.9795 38.6396 16.8535 38.3564 17.7227C38.083 18.582 37.7168 19.4268 37.2578 20.2568C36.7988 21.0869 36.2812 21.8877 35.7051 22.6592C35.1289 23.4307 34.543 24.1631 33.9473 24.8564C33.3516 25.54 32.7705 26.1797 32.2041 26.7754C31.6475 27.3613 31.1592 27.8789 30.7393 28.3281C30.876 28.3086 31.0176 28.2891 31.1641 28.2695C31.3203 28.25 31.5107 28.2402 31.7354 28.2402C32.3799 28.2402 32.9805 28.3477 33.5371 28.5625C34.0938 28.7676 34.6211 29.0068 35.1191 29.2803C35.627 29.5537 36.1152 29.8271 36.584 30.1006C37.0625 30.3643 37.5361 30.5547 38.0049 30.6719C38.0635 28.9336 38.0928 27.1025 38.0928 25.1787V23.2012L40.1875 22.6006C40.1875 23.0791 40.1826 23.626 40.1729 24.2412C40.1729 24.8467 40.168 25.501 40.1582 26.2041C40.1484 26.8975 40.1338 27.6299 40.1143 28.4014C40.1045 29.1631 40.0898 29.9395 40.0703 30.7305C40.2852 30.7012 40.4951 30.6523 40.7002 30.584C40.915 30.5156 41.1543 30.4033 41.418 30.2471L41.7842 30.7012C41.5303 30.916 41.252 31.0918 40.9492 31.2285C40.6465 31.3555 40.3438 31.4482 40.041 31.5068C40.0117 32.4248 39.9775 33.3477 39.9385 34.2754C39.8994 35.2031 39.8555 36.1113 39.8066 37H37.7119C37.7607 36.1211 37.8096 35.2275 37.8584 34.3193C37.9072 33.4014 37.9463 32.4541 37.9756 31.4775C37.4678 31.3604 36.9697 31.165 36.4814 30.8916C36.0029 30.6084 35.5098 30.3252 35.002 30.042C34.4941 29.749 33.9619 29.4951 33.4053 29.2803C32.8486 29.0654 32.2432 28.958 31.5889 28.958C31.2568 28.958 30.9541 28.9922 30.6807 29.0605C30.417 29.1289 30.1777 29.2119 29.9629 29.3096C29.748 29.4072 29.5576 29.5098 29.3916 29.6172C29.2354 29.7148 29.0986 29.7979 28.9814 29.8662L28.4395 28.958Z" fill="#FFFCFA"/>
</svg>
