<svg width="58" height="45" viewBox="0 0 58 45" fill="none" xmlns="http://www.w3.org/2000/svg">
<rect x="0.5" y="0.5" width="57" height="44" stroke="#FFFCFA"/>
<path d="M32.6836 22C32.6836 21.9414 32.6803 21.8796 32.6738 21.8145C32.6673 21.7428 32.6641 21.6777 32.6641 21.6191C32.6641 20.7923 32.7715 20.0664 32.9863 19.4414C33.2077 18.8099 33.4941 18.25 33.8457 17.7617C34.2038 17.2734 34.6107 16.8372 35.0664 16.4531C35.5221 16.069 35.9876 15.7077 36.4629 15.3691C36.9382 15.0306 37.4036 14.7018 37.8594 14.3828C38.3151 14.0573 38.7188 13.7122 39.0703 13.3477C39.4284 12.9766 39.7148 12.5729 39.9297 12.1367C40.151 11.694 40.2617 11.1829 40.2617 10.6035C40.2617 10.1543 40.1868 9.74414 40.0371 9.37305C39.8874 9.00195 39.679 8.6862 39.4121 8.42578C39.1452 8.15885 38.8294 7.95378 38.4648 7.81055C38.1003 7.66732 37.7064 7.5957 37.2832 7.5957C36.7819 7.5957 36.3359 7.69336 35.9453 7.88867C35.5547 8.07747 35.2227 8.3151 34.9492 8.60156C34.6823 8.88802 34.4772 9.20052 34.334 9.53906C34.1908 9.8776 34.1191 10.1966 34.1191 10.4961C34.1191 10.7956 34.1615 11.0527 34.2461 11.2676C34.3372 11.4759 34.4544 11.6484 34.5977 11.7852C34.7474 11.9219 34.9134 12.0228 35.0957 12.0879C35.2845 12.1465 35.4798 12.1758 35.6816 12.1758C35.903 12.1758 36.1178 12.1432 36.3262 12.0781C36.541 12.013 36.7396 11.9219 36.9219 11.8047L37.2441 12.1953C37.1465 12.3451 37.0228 12.5013 36.873 12.6641C36.7233 12.8268 36.554 12.9766 36.3652 13.1133C36.1764 13.2435 35.9681 13.3509 35.7402 13.4355C35.5189 13.5202 35.2812 13.5625 35.0273 13.5625C34.7604 13.5625 34.5 13.5169 34.2461 13.4258C33.9987 13.3346 33.7773 13.1947 33.582 13.0059C33.3932 12.8105 33.2402 12.5664 33.123 12.2734C33.0059 11.974 32.9473 11.6159 32.9473 11.1992C32.9473 10.776 33.0449 10.3236 33.2402 9.8418C33.4421 9.36003 33.735 8.91732 34.1191 8.51367C34.5033 8.10352 34.972 7.76497 35.5254 7.49805C36.0853 7.23112 36.7233 7.09766 37.4395 7.09766C37.9668 7.09766 38.4746 7.19857 38.9629 7.40039C39.4577 7.60221 39.8939 7.88216 40.2715 8.24023C40.6556 8.5918 40.9616 9.01497 41.1895 9.50977C41.4238 9.99805 41.541 10.5286 41.541 11.1016C41.541 11.7396 41.4466 12.2897 41.2578 12.752C41.0755 13.2142 40.8249 13.6211 40.5059 13.9727C40.1934 14.3177 39.8288 14.6237 39.4121 14.8906C38.9954 15.1576 38.5592 15.4147 38.1035 15.6621C37.6543 15.903 37.1953 16.1504 36.7266 16.4043C36.2643 16.6582 35.8249 16.9479 35.4082 17.2734C34.9915 17.5924 34.6139 17.9668 34.2754 18.3965C33.9368 18.8197 33.6667 19.3275 33.4648 19.9199C33.5625 19.7897 33.6667 19.6693 33.7773 19.5586C33.888 19.4479 34.0117 19.3503 34.1484 19.2656C34.2917 19.181 34.4479 19.1159 34.6172 19.0703C34.7865 19.0247 34.9753 19.002 35.1836 19.002C35.418 19.002 35.6556 19.0378 35.8965 19.1094C36.1439 19.1745 36.3913 19.2591 36.6387 19.3633C36.8926 19.4674 37.1432 19.5814 37.3906 19.7051C37.6445 19.8223 37.8952 19.9329 38.1426 20.0371C38.39 20.1413 38.6341 20.2292 38.875 20.3008C39.1159 20.3659 39.3503 20.3984 39.5781 20.3984C39.7734 20.3984 39.9492 20.3854 40.1055 20.3594C40.2617 20.3333 40.4017 20.2845 40.5254 20.2129C40.6556 20.1413 40.7728 20.0404 40.877 19.9102C40.9811 19.7734 41.082 19.5977 41.1797 19.3828L41.5215 19.4609C41.4889 19.7474 41.4238 20.0404 41.3262 20.3398C41.235 20.6393 41.0983 20.9128 40.916 21.1602C40.7337 21.4076 40.5026 21.6094 40.2227 21.7656C39.9427 21.9219 39.5977 22 39.1875 22C38.9336 22 38.6764 21.9544 38.416 21.8633C38.1621 21.7656 37.9082 21.6484 37.6543 21.5117C37.4004 21.3685 37.1497 21.2155 36.9023 21.0527C36.6549 20.8835 36.4108 20.7305 36.1699 20.5938C35.929 20.4505 35.6947 20.3333 35.4668 20.2422C35.2389 20.1445 35.0176 20.0957 34.8027 20.0957C34.5944 20.0957 34.4089 20.138 34.2461 20.2227C34.0833 20.3073 33.9401 20.418 33.8164 20.5547C33.6992 20.6849 33.5983 20.8281 33.5137 20.9844C33.4355 21.1406 33.3672 21.2904 33.3086 21.4336C33.2565 21.5703 33.2142 21.694 33.1816 21.8047C33.1556 21.9089 33.1361 21.974 33.123 22H32.6836ZM43.25 9.80273C43.25 9.44466 43.2858 9.11914 43.3574 8.82617C43.4355 8.5332 43.5527 8.28255 43.709 8.07422C43.8652 7.85938 44.0605 7.69336 44.2949 7.57617C44.5293 7.45898 44.806 7.40039 45.125 7.40039C45.5026 7.40039 45.877 7.44271 46.248 7.52734C46.6191 7.61198 46.9902 7.70312 47.3613 7.80078C47.7389 7.89844 48.123 7.98958 48.5137 8.07422C48.9108 8.15885 49.321 8.20117 49.7441 8.20117C50.0176 8.20117 50.252 8.17839 50.4473 8.13281C50.6491 8.08073 50.8151 8.02214 50.9453 7.95703C51.0951 7.88542 51.222 7.80078 51.3262 7.70312L51.5703 7.99609C50.9323 8.66667 50.3822 9.30469 49.9199 9.91016C49.4577 10.5091 49.0638 11.082 48.7383 11.6289C48.4128 12.1693 48.1491 12.6868 47.9473 13.1816C47.752 13.6764 47.599 14.1517 47.4883 14.6074C47.3776 15.0566 47.3027 15.4863 47.2637 15.8965C47.2246 16.3066 47.2051 16.7005 47.2051 17.0781C47.2051 17.6576 47.2311 18.1621 47.2832 18.5918C47.3418 19.0215 47.4036 19.3991 47.4688 19.7246C47.5404 20.0436 47.6022 20.3268 47.6543 20.5742C47.7129 20.8151 47.7422 21.043 47.7422 21.2578C47.7422 21.5312 47.6706 21.7233 47.5273 21.834C47.3906 21.9447 47.2181 22 47.0098 22C46.7819 22 46.5768 21.9707 46.3945 21.9121C46.2188 21.847 46.0658 21.7298 45.9355 21.5605C45.8118 21.3913 45.7142 21.1569 45.6426 20.8574C45.5775 20.5579 45.5449 20.1706 45.5449 19.6953C45.5449 18.7253 45.6393 17.7617 45.8281 16.8047C46.0169 15.8477 46.2904 14.9232 46.6484 14.0312C47.0065 13.1393 47.4427 12.2962 47.957 11.502C48.4714 10.7077 49.054 9.98828 49.7051 9.34375C49.6139 9.36328 49.5098 9.37956 49.3926 9.39258C49.2819 9.39909 49.168 9.40234 49.0508 9.40234C48.7773 9.40234 48.4714 9.38281 48.1328 9.34375C47.7943 9.29818 47.4492 9.24935 47.0977 9.19727C46.7461 9.13867 46.3945 9.08984 46.043 9.05078C45.6979 9.00521 45.3789 8.98242 45.0859 8.98242C44.6953 8.98242 44.3828 9.04427 44.1484 9.16797C43.9206 9.28516 43.7871 9.49674 43.748 9.80273H43.25Z" fill="#FFFCFA"/>
</svg>
