<svg width="58" height="56" viewBox="0 0 58 56" fill="none" xmlns="http://www.w3.org/2000/svg">
<rect x="0.5" y="0.5" width="57" height="55" stroke="#FFFCFA"/>
<path d="M13.9453 40C13.9453 39.9121 13.9404 39.8193 13.9307 39.7217C13.9209 39.6143 13.916 39.5166 13.916 39.4287C13.916 38.1885 14.0771 37.0996 14.3994 36.1621C14.7314 35.2148 15.1611 34.375 15.6885 33.6426C16.2256 32.9102 16.8359 32.2559 17.5195 31.6797C18.2031 31.1035 18.9014 30.5615 19.6143 30.0537C20.3271 29.5459 21.0254 29.0527 21.709 28.5742C22.3926 28.0859 22.998 27.5684 23.5254 27.0215C24.0625 26.4648 24.4922 25.8594 24.8145 25.2051C25.1465 24.541 25.3125 23.7744 25.3125 22.9053C25.3125 22.2314 25.2002 21.6162 24.9756 21.0596C24.751 20.5029 24.4385 20.0293 24.0381 19.6387C23.6377 19.2383 23.1641 18.9307 22.6172 18.7158C22.0703 18.501 21.4795 18.3936 20.8447 18.3936C20.0928 18.3936 19.4238 18.54 18.8379 18.833C18.252 19.1162 17.7539 19.4727 17.3438 19.9023C16.9434 20.332 16.6357 20.8008 16.4209 21.3086C16.2061 21.8164 16.0986 22.2949 16.0986 22.7441C16.0986 23.1934 16.1621 23.5791 16.2891 23.9014C16.4258 24.2139 16.6016 24.4727 16.8164 24.6777C17.041 24.8828 17.29 25.0342 17.5635 25.1318C17.8467 25.2197 18.1396 25.2637 18.4424 25.2637C18.7744 25.2637 19.0967 25.2148 19.4092 25.1172C19.7314 25.0195 20.0293 24.8828 20.3027 24.707L20.7861 25.293C20.6396 25.5176 20.4541 25.752 20.2295 25.9961C20.0049 26.2402 19.751 26.4648 19.4678 26.6699C19.1846 26.8652 18.8721 27.0264 18.5303 27.1533C18.1982 27.2803 17.8418 27.3438 17.4609 27.3438C17.0605 27.3438 16.6699 27.2754 16.2891 27.1387C15.918 27.002 15.5859 26.792 15.293 26.5088C15.0098 26.2158 14.7803 25.8496 14.6045 25.4102C14.4287 24.9609 14.3408 24.4238 14.3408 23.7988C14.3408 23.1641 14.4873 22.4854 14.7803 21.7627C15.083 21.04 15.5225 20.376 16.0986 19.7705C16.6748 19.1553 17.3779 18.6475 18.208 18.2471C19.0479 17.8467 20.0049 17.6465 21.0791 17.6465C21.8701 17.6465 22.6318 17.7979 23.3643 18.1006C24.1064 18.4033 24.7607 18.8232 25.3271 19.3604C25.9033 19.8877 26.3623 20.5225 26.7041 21.2646C27.0557 21.9971 27.2314 22.793 27.2314 23.6523C27.2314 24.6094 27.0898 25.4346 26.8066 26.1279C26.5332 26.8213 26.1572 27.4316 25.6787 27.959C25.21 28.4766 24.6631 28.9355 24.0381 29.3359C23.4131 29.7363 22.7588 30.1221 22.0752 30.4932C21.4014 30.8545 20.7129 31.2256 20.0098 31.6064C19.3164 31.9873 18.6572 32.4219 18.0322 32.9102C17.4072 33.3887 16.8408 33.9502 16.333 34.5947C15.8252 35.2295 15.4199 35.9912 15.1172 36.8799C15.2637 36.6846 15.4199 36.5039 15.5859 36.3379C15.752 36.1719 15.9375 36.0254 16.1426 35.8984C16.3574 35.7715 16.5918 35.6738 16.8457 35.6055C17.0996 35.5371 17.3828 35.5029 17.6953 35.5029C18.0469 35.5029 18.4033 35.5566 18.7646 35.6641C19.1357 35.7617 19.5068 35.8887 19.8779 36.0449C20.2588 36.2012 20.6348 36.3721 21.0059 36.5576C21.3867 36.7334 21.7627 36.8994 22.1338 37.0557C22.5049 37.2119 22.8711 37.3438 23.2324 37.4512C23.5938 37.5488 23.9453 37.5977 24.2871 37.5977C24.5801 37.5977 24.8438 37.5781 25.0781 37.5391C25.3125 37.5 25.5225 37.4268 25.708 37.3193C25.9033 37.2119 26.0791 37.0605 26.2354 36.8652C26.3916 36.6602 26.543 36.3965 26.6895 36.0742L27.2021 36.1914C27.1533 36.6211 27.0557 37.0605 26.9092 37.5098C26.7725 37.959 26.5674 38.3691 26.2939 38.7402C26.0205 39.1113 25.6738 39.4141 25.2539 39.6484C24.834 39.8828 24.3164 40 23.7012 40C23.3203 40 22.9346 39.9316 22.5439 39.7949C22.1631 39.6484 21.7822 39.4727 21.4014 39.2676C21.0205 39.0527 20.6445 38.8232 20.2734 38.5791C19.9023 38.3252 19.5361 38.0957 19.1748 37.8906C18.8135 37.6758 18.4619 37.5 18.1201 37.3633C17.7783 37.2168 17.4463 37.1436 17.124 37.1436C16.8115 37.1436 16.5332 37.207 16.2891 37.334C16.0449 37.4609 15.8301 37.627 15.6445 37.832C15.4688 38.0273 15.3174 38.2422 15.1904 38.4766C15.0732 38.7109 14.9707 38.9355 14.8828 39.1504C14.8047 39.3555 14.7412 39.541 14.6924 39.707C14.6533 39.8633 14.624 39.9609 14.6045 40H13.9453ZM37.5879 27.9736C37.0605 27.9736 36.5381 28.1104 36.0205 28.3838C35.5029 28.6475 35.0439 29.0137 34.6436 29.4824C34.2432 29.9512 33.916 30.5078 33.6621 31.1523C33.418 31.7969 33.2959 32.4951 33.2959 33.2471C33.2959 34.1162 33.4033 34.9219 33.6182 35.6641C33.833 36.3965 34.126 37.0312 34.4971 37.5684C34.8682 38.1055 35.3027 38.5254 35.8008 38.8281C36.2988 39.1309 36.8359 39.2822 37.4121 39.2822C37.9102 39.2822 38.3984 39.1504 38.877 38.8867C39.3555 38.6133 39.7754 38.2275 40.1367 37.7295C40.5078 37.2314 40.8057 36.6309 41.0303 35.9277C41.2549 35.2246 41.3672 34.4336 41.3672 33.5547C41.3672 32.7051 41.2793 31.9385 41.1035 31.2549C40.9277 30.5615 40.6787 29.9756 40.3564 29.4971C40.0342 29.0088 39.6387 28.6328 39.1699 28.3691C38.7012 28.1055 38.1738 27.9736 37.5879 27.9736ZM40.1367 18.7012C39.7363 18.877 39.3018 19.1064 38.833 19.3896C38.3643 19.6631 37.8857 20.0098 37.3975 20.4297C36.9189 20.8496 36.4453 21.3477 35.9766 21.9238C35.5078 22.4902 35.0781 23.1543 34.6875 23.916C34.2969 24.668 33.9551 25.5273 33.6621 26.4941C33.3691 27.4512 33.1592 28.5254 33.0322 29.7168C33.1299 29.5508 33.3057 29.3213 33.5596 29.0283C33.8232 28.7354 34.1553 28.4473 34.5557 28.1641C34.9561 27.8711 35.4248 27.6221 35.9619 27.417C36.499 27.2021 37.0996 27.0947 37.7637 27.0947C38.6816 27.0947 39.5117 27.251 40.2539 27.5635C40.9961 27.876 41.6211 28.3008 42.1289 28.8379C42.6465 29.3652 43.042 29.9805 43.3154 30.6836C43.5986 31.3867 43.7402 32.1338 43.7402 32.9248C43.7402 34.0381 43.5645 35.0342 43.2129 35.9131C42.8711 36.792 42.4072 37.5391 41.8213 38.1543C41.2354 38.7598 40.5518 39.2236 39.7705 39.5459C38.999 39.8682 38.1836 40.0293 37.3242 40.0293C36.3574 40.0293 35.459 39.8145 34.6289 39.3848C33.8086 38.9551 33.1006 38.3447 32.5049 37.5537C31.9092 36.7627 31.4404 35.8105 31.0986 34.6973C30.7666 33.584 30.6006 32.3438 30.6006 30.9766C30.6006 29.8438 30.7275 28.7549 30.9814 27.71C31.2451 26.665 31.6016 25.6885 32.0508 24.7803C32.5098 23.8623 33.042 23.0225 33.6475 22.2607C34.2529 21.499 34.8975 20.8301 35.5811 20.2539C36.2744 19.6777 36.9873 19.209 37.7197 18.8477C38.4619 18.4863 39.1895 18.2471 39.9023 18.1299L40.1367 18.7012Z" fill="#FFFCFA"/>
</svg>
