<svg width="58" height="47" viewBox="0 0 58 47" fill="none" xmlns="http://www.w3.org/2000/svg">
<rect x="0.5" y="0.5" width="57" height="46" stroke="#FFFCFA"/>
<path d="M34.5 22C34.5 21.9414 34.4967 21.8796 34.4902 21.8145C34.4837 21.7428 34.4805 21.6777 34.4805 21.6191C34.4805 20.7923 34.5879 20.0664 34.8027 19.4414C35.0241 18.8099 35.3105 18.25 35.6621 17.7617C36.0202 17.2734 36.4271 16.8372 36.8828 16.4531C37.3385 16.069 37.804 15.7077 38.2793 15.3691C38.7546 15.0306 39.2201 14.7018 39.6758 14.3828C40.1315 14.0573 40.5352 13.7122 40.8867 13.3477C41.2448 12.9766 41.5312 12.5729 41.7461 12.1367C41.9674 11.694 42.0781 11.1829 42.0781 10.6035C42.0781 10.1543 42.0033 9.74414 41.8535 9.37305C41.7038 9.00195 41.4954 8.6862 41.2285 8.42578C40.9616 8.15885 40.6458 7.95378 40.2812 7.81055C39.9167 7.66732 39.5228 7.5957 39.0996 7.5957C38.5983 7.5957 38.1523 7.69336 37.7617 7.88867C37.3711 8.07747 37.0391 8.3151 36.7656 8.60156C36.4987 8.88802 36.2936 9.20052 36.1504 9.53906C36.0072 9.8776 35.9355 10.1966 35.9355 10.4961C35.9355 10.7956 35.9779 11.0527 36.0625 11.2676C36.1536 11.4759 36.2708 11.6484 36.4141 11.7852C36.5638 11.9219 36.7298 12.0228 36.9121 12.0879C37.1009 12.1465 37.2962 12.1758 37.498 12.1758C37.7194 12.1758 37.9342 12.1432 38.1426 12.0781C38.3574 12.013 38.556 11.9219 38.7383 11.8047L39.0605 12.1953C38.9629 12.3451 38.8392 12.5013 38.6895 12.6641C38.5397 12.8268 38.3704 12.9766 38.1816 13.1133C37.9928 13.2435 37.7845 13.3509 37.5566 13.4355C37.3353 13.5202 37.0977 13.5625 36.8438 13.5625C36.5768 13.5625 36.3164 13.5169 36.0625 13.4258C35.8151 13.3346 35.5938 13.1947 35.3984 13.0059C35.2096 12.8105 35.0566 12.5664 34.9395 12.2734C34.8223 11.974 34.7637 11.6159 34.7637 11.1992C34.7637 10.776 34.8613 10.3236 35.0566 9.8418C35.2585 9.36003 35.5514 8.91732 35.9355 8.51367C36.3197 8.10352 36.7884 7.76497 37.3418 7.49805C37.9017 7.23112 38.5397 7.09766 39.2559 7.09766C39.7832 7.09766 40.291 7.19857 40.7793 7.40039C41.2741 7.60221 41.7103 7.88216 42.0879 8.24023C42.472 8.5918 42.778 9.01497 43.0059 9.50977C43.2402 9.99805 43.3574 10.5286 43.3574 11.1016C43.3574 11.7396 43.263 12.2897 43.0742 12.752C42.8919 13.2142 42.6413 13.6211 42.3223 13.9727C42.0098 14.3177 41.6452 14.6237 41.2285 14.8906C40.8118 15.1576 40.3757 15.4147 39.9199 15.6621C39.4707 15.903 39.0117 16.1504 38.543 16.4043C38.0807 16.6582 37.6413 16.9479 37.2246 17.2734C36.8079 17.5924 36.4303 17.9668 36.0918 18.3965C35.7533 18.8197 35.4831 19.3275 35.2812 19.9199C35.3789 19.7897 35.4831 19.6693 35.5938 19.5586C35.7044 19.4479 35.8281 19.3503 35.9648 19.2656C36.1081 19.181 36.2643 19.1159 36.4336 19.0703C36.6029 19.0247 36.7917 19.002 37 19.002C37.2344 19.002 37.472 19.0378 37.7129 19.1094C37.9603 19.1745 38.2077 19.2591 38.4551 19.3633C38.709 19.4674 38.9596 19.5814 39.207 19.7051C39.4609 19.8223 39.7116 19.9329 39.959 20.0371C40.2064 20.1413 40.4505 20.2292 40.6914 20.3008C40.9323 20.3659 41.1667 20.3984 41.3945 20.3984C41.5898 20.3984 41.7656 20.3854 41.9219 20.3594C42.0781 20.3333 42.2181 20.2845 42.3418 20.2129C42.472 20.1413 42.5892 20.0404 42.6934 19.9102C42.7975 19.7734 42.8984 19.5977 42.9961 19.3828L43.3379 19.4609C43.3053 19.7474 43.2402 20.0404 43.1426 20.3398C43.0514 20.6393 42.9147 20.9128 42.7324 21.1602C42.5501 21.4076 42.319 21.6094 42.0391 21.7656C41.7591 21.9219 41.4141 22 41.0039 22C40.75 22 40.4928 21.9544 40.2324 21.8633C39.9785 21.7656 39.7246 21.6484 39.4707 21.5117C39.2168 21.3685 38.9661 21.2155 38.7188 21.0527C38.4714 20.8835 38.2272 20.7305 37.9863 20.5938C37.7454 20.4505 37.5111 20.3333 37.2832 20.2422C37.0553 20.1445 36.834 20.0957 36.6191 20.0957C36.4108 20.0957 36.2253 20.138 36.0625 20.2227C35.8997 20.3073 35.7565 20.418 35.6328 20.5547C35.5156 20.6849 35.4147 20.8281 35.3301 20.9844C35.252 21.1406 35.1836 21.2904 35.125 21.4336C35.0729 21.5703 35.0306 21.694 34.998 21.8047C34.972 21.9089 34.9525 21.974 34.9395 22H34.5ZM45.1055 21.2969L46.9023 21.2383C47.1497 21.2253 47.3288 21.1699 47.4395 21.0723C47.5501 20.9681 47.6055 20.7891 47.6055 20.5352V9.99805C47.3516 10.1283 47.0749 10.2454 46.7754 10.3496C46.5215 10.4408 46.2253 10.5221 45.8867 10.5938C45.5482 10.6654 45.1868 10.7012 44.8027 10.7012V10.2031C45.1608 10.2031 45.5221 10.1217 45.8867 9.95898C46.2513 9.78971 46.5866 9.57487 46.8926 9.31445C47.2051 9.04753 47.4753 8.74805 47.7031 8.41602C47.9375 8.07747 48.1035 7.73893 48.2012 7.40039H49.0996V20.5352C49.0996 20.7891 49.1549 20.9681 49.2656 21.0723C49.3763 21.1699 49.5553 21.2253 49.8027 21.2383L51.3066 21.2969V22H45.1055V21.2969Z" fill="#FFFCFA"/>
</svg>
