<svg width="181" height="51" viewBox="0 0 181 51" fill="none" xmlns="http://www.w3.org/2000/svg">
<rect x="0.5" y="0.5" width="179.5" height="50" stroke="#FFFCFA"/>
<path d="M85.207 16.1973C85.6172 15.9824 86.0339 15.7253 86.457 15.4258C86.8867 15.1263 87.2741 14.791 87.6191 14.4199C87.9642 14.0423 88.2474 13.6257 88.4688 13.1699C88.6901 12.7142 88.8008 12.2227 88.8008 11.6953C88.8008 11.3568 88.7454 11.0638 88.6348 10.8164C88.5306 10.569 88.3874 10.3672 88.2051 10.2109C88.0293 10.0482 87.821 9.93099 87.5801 9.85938C87.3392 9.78125 87.0853 9.74219 86.8184 9.74219C86.5124 9.74219 86.2161 9.80078 85.9297 9.91797C85.6432 10.0352 85.3861 10.2012 85.1582 10.416C84.9303 10.6243 84.748 10.8717 84.6113 11.1582C84.4746 11.4447 84.4062 11.7572 84.4062 12.0957C84.4062 12.4017 84.4616 12.6686 84.5723 12.8965C84.6829 13.1178 84.8066 13.3034 84.9434 13.4531C85.0996 13.6289 85.2786 13.7786 85.4805 13.9023L85.2656 14.3418C84.9076 14.2637 84.5983 14.153 84.3379 14.0098C84.084 13.8665 83.8724 13.7038 83.7031 13.5215C83.5339 13.3327 83.4069 13.1309 83.3223 12.916C83.2441 12.6947 83.2051 12.4701 83.2051 12.2422C83.2051 11.8841 83.293 11.5293 83.4688 11.1777C83.651 10.8197 83.9082 10.4974 84.2402 10.2109C84.5788 9.92448 84.9857 9.69336 85.4609 9.51758C85.9362 9.33529 86.4701 9.24414 87.0625 9.24414C87.4792 9.24414 87.8861 9.28971 88.2832 9.38086C88.6868 9.47201 89.0417 9.61523 89.3477 9.81055C89.6602 9.99935 89.9108 10.2435 90.0996 10.543C90.2884 10.8359 90.3828 11.1875 90.3828 11.5977C90.3828 11.9362 90.3014 12.2682 90.1387 12.5938C89.9824 12.9193 89.7806 13.235 89.5332 13.541C89.2923 13.8405 89.0221 14.1237 88.7227 14.3906C88.4297 14.651 88.1465 14.8887 87.873 15.1035C87.6061 15.3184 87.3652 15.5039 87.1504 15.6602C86.9355 15.8099 86.7858 15.9238 86.7012 16.002C87.3978 16.028 88.0195 16.1484 88.5664 16.3633C89.1133 16.5781 89.5723 16.8581 89.9434 17.2031C90.321 17.5482 90.6074 17.9453 90.8027 18.3945C91.0046 18.8438 91.1055 19.3125 91.1055 19.8008C91.1055 20.2695 91.0371 20.6992 90.9004 21.0898C90.7637 21.4805 90.5749 21.832 90.334 22.1445C90.0931 22.457 89.8099 22.7305 89.4844 22.9648C89.1589 23.1992 88.8073 23.3945 88.4297 23.5508C88.0586 23.707 87.668 23.8242 87.2578 23.9023C86.8542 23.9805 86.4505 24.0195 86.0469 24.0195C85.5326 24.0195 85.0378 23.9577 84.5625 23.834C84.0872 23.7103 83.6673 23.5247 83.3027 23.2773C82.9382 23.0234 82.6452 22.7077 82.4238 22.3301C82.209 21.9525 82.1016 21.5098 82.1016 21.002C82.1016 20.7285 82.1374 20.4583 82.209 20.1914C82.2871 19.918 82.388 19.6608 82.5117 19.4199C82.6419 19.1725 82.7917 18.9414 82.9609 18.7266C83.1367 18.5052 83.3255 18.3099 83.5273 18.1406L83.8789 18.4043C83.7227 18.7168 83.6055 19.0358 83.5273 19.3613C83.4557 19.6803 83.4199 19.9993 83.4199 20.3184C83.4199 20.8392 83.5078 21.2949 83.6836 21.6855C83.8594 22.0762 84.0905 22.4017 84.377 22.6621C84.6634 22.9225 84.9889 23.1178 85.3535 23.248C85.7246 23.3783 86.1022 23.4434 86.4863 23.4434C86.8639 23.4434 87.235 23.3783 87.5996 23.248C87.9642 23.1178 88.2897 22.9258 88.5762 22.6719C88.8691 22.418 89.1035 22.1022 89.2793 21.7246C89.4551 21.3405 89.543 20.8978 89.543 20.3965C89.543 19.9668 89.4551 19.5339 89.2793 19.0977C89.11 18.6549 88.8529 18.2578 88.5078 17.9062C88.1628 17.5482 87.7298 17.2585 87.209 17.0371C86.6947 16.8092 86.0924 16.6953 85.4023 16.6953L85.207 16.1973ZM92.9023 23.2969L94.6992 23.2383C94.9466 23.2253 95.1257 23.1699 95.2363 23.0723C95.347 22.9681 95.4023 22.7891 95.4023 22.5352V11.998C95.1484 12.1283 94.8717 12.2454 94.5723 12.3496C94.3184 12.4408 94.0221 12.5221 93.6836 12.5938C93.3451 12.6654 92.9837 12.7012 92.5996 12.7012V12.2031C92.9577 12.2031 93.319 12.1217 93.6836 11.959C94.0482 11.7897 94.3835 11.5749 94.6895 11.3145C95.002 11.0475 95.2721 10.748 95.5 10.416C95.7344 10.0775 95.9004 9.73893 95.998 9.40039H96.8965V22.5352C96.8965 22.7891 96.9518 22.9681 97.0625 23.0723C97.1732 23.1699 97.3522 23.2253 97.5996 23.2383L99.1035 23.2969V24H92.9023V23.2969Z" fill="#FFFCFA"/>
<path d="M177.374 0.500011L90.2483 36.4593L2.53768 0.499999L177.374 0.500011Z" stroke="#FFFCFA"/>
</svg>
