<svg width="58" height="51" viewBox="0 0 58 51" fill="none" xmlns="http://www.w3.org/2000/svg">
<rect x="0.5" y="0.5" width="57" height="50" stroke="#FFFCFA"/>
<path d="M34.4023 22.126L36.1992 22.0674C36.4466 22.0544 36.6257 21.999 36.7363 21.9014C36.847 21.7972 36.9023 21.6182 36.9023 21.3643V10.8271C36.6484 10.9574 36.3717 11.0745 36.0723 11.1787C35.8184 11.2699 35.5221 11.3512 35.1836 11.4229C34.8451 11.4945 34.4837 11.5303 34.0996 11.5303V11.0322C34.4577 11.0322 34.819 10.9508 35.1836 10.7881C35.5482 10.6188 35.8835 10.404 36.1895 10.1436C36.502 9.87663 36.7721 9.57715 37 9.24512C37.2344 8.90658 37.4004 8.56803 37.498 8.22949H38.3965V21.3643C38.3965 21.6182 38.4518 21.7972 38.5625 21.9014C38.6732 21.999 38.8522 22.0544 39.0996 22.0674L40.6035 22.126V22.8291H34.4023V22.126ZM42.0977 22.8291C42.0977 22.7705 42.0944 22.7087 42.0879 22.6436C42.0814 22.5719 42.0781 22.5068 42.0781 22.4482C42.0781 21.6214 42.1855 20.8955 42.4004 20.2705C42.6217 19.639 42.9082 19.0791 43.2598 18.5908C43.6178 18.1025 44.0247 17.6663 44.4805 17.2822C44.9362 16.8981 45.4017 16.5368 45.877 16.1982C46.3522 15.8597 46.8177 15.5309 47.2734 15.2119C47.7292 14.8864 48.1328 14.5413 48.4844 14.1768C48.8424 13.8057 49.1289 13.402 49.3438 12.9658C49.5651 12.5231 49.6758 12.012 49.6758 11.4326C49.6758 10.9834 49.6009 10.5732 49.4512 10.2021C49.3014 9.83105 49.0931 9.5153 48.8262 9.25488C48.5592 8.98796 48.2435 8.78288 47.8789 8.63965C47.5143 8.49642 47.1204 8.4248 46.6973 8.4248C46.196 8.4248 45.75 8.52246 45.3594 8.71777C44.9688 8.90658 44.6367 9.14421 44.3633 9.43066C44.0964 9.71712 43.8913 10.0296 43.748 10.3682C43.6048 10.7067 43.5332 11.0257 43.5332 11.3252C43.5332 11.6247 43.5755 11.8818 43.6602 12.0967C43.7513 12.305 43.8685 12.4775 44.0117 12.6143C44.1615 12.751 44.3275 12.8519 44.5098 12.917C44.6986 12.9756 44.8939 13.0049 45.0957 13.0049C45.3171 13.0049 45.5319 12.9723 45.7402 12.9072C45.9551 12.8421 46.1536 12.751 46.3359 12.6338L46.6582 13.0244C46.5605 13.1742 46.4368 13.3304 46.2871 13.4932C46.1374 13.6559 45.9681 13.8057 45.7793 13.9424C45.5905 14.0726 45.3822 14.18 45.1543 14.2646C44.9329 14.3493 44.6953 14.3916 44.4414 14.3916C44.1745 14.3916 43.9141 14.346 43.6602 14.2549C43.4128 14.1637 43.1914 14.0238 42.9961 13.835C42.8073 13.6396 42.6543 13.3955 42.5371 13.1025C42.4199 12.8031 42.3613 12.445 42.3613 12.0283C42.3613 11.6051 42.459 11.1527 42.6543 10.6709C42.8561 10.1891 43.1491 9.74642 43.5332 9.34277C43.9173 8.93262 44.3861 8.59408 44.9395 8.32715C45.4993 8.06022 46.1374 7.92676 46.8535 7.92676C47.3809 7.92676 47.8887 8.02767 48.377 8.22949C48.8717 8.43132 49.3079 8.71126 49.6855 9.06934C50.0697 9.4209 50.3757 9.84408 50.6035 10.3389C50.8379 10.8271 50.9551 11.3577 50.9551 11.9307C50.9551 12.5687 50.8607 13.1188 50.6719 13.5811C50.4896 14.0433 50.2389 14.4502 49.9199 14.8018C49.6074 15.1468 49.2428 15.4528 48.8262 15.7197C48.4095 15.9867 47.9733 16.2438 47.5176 16.4912C47.0684 16.7321 46.6094 16.9795 46.1406 17.2334C45.6784 17.4873 45.2389 17.777 44.8223 18.1025C44.4056 18.4215 44.028 18.7959 43.6895 19.2256C43.3509 19.6488 43.0807 20.1566 42.8789 20.749C42.9766 20.6188 43.0807 20.4984 43.1914 20.3877C43.3021 20.277 43.4258 20.1794 43.5625 20.0947C43.7057 20.0101 43.862 19.945 44.0312 19.8994C44.2005 19.8538 44.3893 19.8311 44.5977 19.8311C44.832 19.8311 45.0697 19.8669 45.3105 19.9385C45.5579 20.0036 45.8053 20.0882 46.0527 20.1924C46.3066 20.2965 46.5573 20.4105 46.8047 20.5342C47.0586 20.6514 47.3092 20.762 47.5566 20.8662C47.804 20.9704 48.0482 21.0583 48.2891 21.1299C48.5299 21.195 48.7643 21.2275 48.9922 21.2275C49.1875 21.2275 49.3633 21.2145 49.5195 21.1885C49.6758 21.1624 49.8158 21.1136 49.9395 21.042C50.0697 20.9704 50.1868 20.8695 50.291 20.7393C50.3952 20.6025 50.4961 20.4268 50.5938 20.2119L50.9355 20.29C50.903 20.5765 50.8379 20.8695 50.7402 21.1689C50.6491 21.4684 50.5124 21.7419 50.3301 21.9893C50.1478 22.2367 49.9167 22.4385 49.6367 22.5947C49.3568 22.751 49.0117 22.8291 48.6016 22.8291C48.3477 22.8291 48.0905 22.7835 47.8301 22.6924C47.5762 22.5947 47.3223 22.4775 47.0684 22.3408C46.8145 22.1976 46.5638 22.0446 46.3164 21.8818C46.069 21.7126 45.8249 21.5596 45.584 21.4229C45.3431 21.2796 45.1087 21.1624 44.8809 21.0713C44.653 20.9736 44.4316 20.9248 44.2168 20.9248C44.0085 20.9248 43.8229 20.9671 43.6602 21.0518C43.4974 21.1364 43.3542 21.2471 43.2305 21.3838C43.1133 21.514 43.0124 21.6572 42.9277 21.8135C42.8496 21.9697 42.7812 22.1195 42.7227 22.2627C42.6706 22.3994 42.6283 22.5231 42.5957 22.6338C42.5697 22.738 42.5501 22.8031 42.5371 22.8291H42.0977Z" fill="#FFFCFA"/>
</svg>
