<svg width="58" height="51" viewBox="0 0 58 51" fill="none" xmlns="http://www.w3.org/2000/svg">
<rect x="0.5" y="0.5" width="57" height="50" stroke="#FFFCFA"/>
<path d="M24.2539 15.7305H31.3438C31.6367 15.7305 31.9248 15.7256 32.208 15.7158C32.501 15.6963 32.7744 15.667 33.0283 15.6279C33.2822 15.5791 33.5117 15.5156 33.7168 15.4375C33.9316 15.3496 34.1074 15.2373 34.2441 15.1006L34.7568 15.4961C34.4443 15.8672 34.1318 16.209 33.8193 16.5215C33.5068 16.834 33.1504 17.1025 32.75 17.3271C32.3594 17.5518 31.9004 17.7275 31.373 17.8545C30.8555 17.9814 30.2354 18.0449 29.5127 18.0449H25.1914L24.8252 22.4834C26.1436 22.5225 27.335 22.6592 28.3994 22.8936C29.4639 23.1182 30.4062 23.4209 31.2266 23.8018C32.0566 24.1729 32.7695 24.6074 33.3652 25.1055C33.9609 25.6035 34.4492 26.1406 34.8301 26.7168C35.2207 27.2832 35.5039 27.8789 35.6797 28.5039C35.8652 29.1191 35.958 29.7393 35.958 30.3643C35.958 31.2529 35.7871 32.1123 35.4453 32.9424C35.1035 33.7725 34.6152 34.5098 33.9805 35.1543C33.3457 35.7988 32.5791 36.3164 31.6807 36.707C30.7822 37.0977 29.7764 37.293 28.6631 37.293C27.8037 37.293 26.9736 37.1855 26.1729 36.9707C25.3818 36.7461 24.6836 36.4287 24.0781 36.0186C23.4727 35.5986 22.9844 35.0957 22.6133 34.5098C22.252 33.9141 22.0713 33.2451 22.0713 32.5029C22.0713 32.0928 22.125 31.6875 22.2324 31.2871C22.3398 30.877 22.4863 30.4912 22.6719 30.1299C22.8672 29.7588 23.0918 29.4121 23.3457 29.0898C23.6094 28.7578 23.8926 28.4648 24.1953 28.2109L24.7373 28.6064C24.4932 29.0752 24.3174 29.5537 24.21 30.042C24.1025 30.5205 24.0488 30.999 24.0488 31.4775C24.0488 32.1416 24.1514 32.7812 24.3564 33.3965C24.5713 34.002 24.8838 34.5391 25.2939 35.0078C25.7041 35.4766 26.2168 35.8525 26.832 36.1357C27.4473 36.4092 28.1602 36.5459 28.9707 36.5459C29.7324 36.5459 30.416 36.4043 31.0215 36.1211C31.627 35.8379 32.1348 35.4619 32.5449 34.9932C32.9648 34.5146 33.2822 33.9629 33.4971 33.3379C33.7217 32.7129 33.834 32.0537 33.834 31.3604C33.834 30.7646 33.7461 30.1592 33.5703 29.5439C33.4043 28.9287 33.1406 28.3379 32.7793 27.7715C32.4277 27.1953 31.9736 26.6582 31.417 26.1602C30.8701 25.6523 30.2207 25.2129 29.4688 24.8418C28.7168 24.4707 27.8574 24.1777 26.8906 23.9629C25.9238 23.7383 24.8447 23.626 23.6533 23.626L24.2539 15.7305Z" fill="#FFFCFA"/>
</svg>
