<svg width="58" height="40" viewBox="0 0 58 40" fill="none" xmlns="http://www.w3.org/2000/svg">
<rect x="0.5" y="1.5" width="57" height="38" stroke="#FFFCFA"/>
<path d="M18.2617 29.9453L20.957 29.8574C21.3281 29.8379 21.5967 29.7549 21.7627 29.6084C21.9287 29.4521 22.0117 29.1836 22.0117 28.8027V12.9971C21.6309 13.1924 21.2158 13.3682 20.7666 13.5244C20.3857 13.6611 19.9414 13.7832 19.4336 13.8906C18.9258 13.998 18.3838 14.0518 17.8076 14.0518V13.3047C18.3447 13.3047 18.8867 13.1826 19.4336 12.9385C19.9805 12.6846 20.4834 12.3623 20.9424 11.9717C21.4111 11.5713 21.8164 11.1221 22.1582 10.624C22.5098 10.1162 22.7588 9.6084 22.9053 9.10059H24.2529V28.8027C24.2529 29.1836 24.3359 29.4521 24.502 29.6084C24.668 29.7549 24.9365 29.8379 25.3076 29.8574L27.5635 29.9453V31H18.2617V29.9453ZM29.6582 29.9453L32.3535 29.8574C32.7246 29.8379 32.9932 29.7549 33.1592 29.6084C33.3252 29.4521 33.4082 29.1836 33.4082 28.8027V12.9971C33.0273 13.1924 32.6123 13.3682 32.1631 13.5244C31.7822 13.6611 31.3379 13.7832 30.8301 13.8906C30.3223 13.998 29.7803 14.0518 29.2041 14.0518V13.3047C29.7412 13.3047 30.2832 13.1826 30.8301 12.9385C31.377 12.6846 31.8799 12.3623 32.3389 11.9717C32.8076 11.5713 33.2129 11.1221 33.5547 10.624C33.9062 10.1162 34.1553 9.6084 34.3018 9.10059H35.6494V28.8027C35.6494 29.1836 35.7324 29.4521 35.8984 29.6084C36.0645 29.7549 36.333 29.8379 36.7041 29.8574L38.96 29.9453V31H29.6582V29.9453Z" fill="#FFFCFA"/>
</svg>
