<svg width="58" height="51" viewBox="0 0 58 51" fill="none" xmlns="http://www.w3.org/2000/svg">
<rect x="0.5" y="0.5" width="57" height="50" stroke="#FFFCFA"/>
<path d="M13.6523 37C13.6523 36.9121 13.6475 36.8193 13.6377 36.7217C13.6279 36.6143 13.623 36.5166 13.623 36.4287C13.623 35.1885 13.7842 34.0996 14.1064 33.1621C14.4385 32.2148 14.8682 31.375 15.3955 30.6426C15.9326 29.9102 16.543 29.2559 17.2266 28.6797C17.9102 28.1035 18.6084 27.5615 19.3213 27.0537C20.0342 26.5459 20.7324 26.0527 21.416 25.5742C22.0996 25.0859 22.7051 24.5684 23.2324 24.0215C23.7695 23.4648 24.1992 22.8594 24.5215 22.2051C24.8535 21.541 25.0195 20.7744 25.0195 19.9053C25.0195 19.2314 24.9072 18.6162 24.6826 18.0596C24.458 17.5029 24.1455 17.0293 23.7451 16.6387C23.3447 16.2383 22.8711 15.9307 22.3242 15.7158C21.7773 15.501 21.1865 15.3936 20.5518 15.3936C19.7998 15.3936 19.1309 15.54 18.5449 15.833C17.959 16.1162 17.4609 16.4727 17.0508 16.9023C16.6504 17.332 16.3428 17.8008 16.1279 18.3086C15.9131 18.8164 15.8057 19.2949 15.8057 19.7441C15.8057 20.1934 15.8691 20.5791 15.9961 20.9014C16.1328 21.2139 16.3086 21.4727 16.5234 21.6777C16.748 21.8828 16.9971 22.0342 17.2705 22.1318C17.5537 22.2197 17.8467 22.2637 18.1494 22.2637C18.4814 22.2637 18.8037 22.2148 19.1162 22.1172C19.4385 22.0195 19.7363 21.8828 20.0098 21.707L20.4932 22.293C20.3467 22.5176 20.1611 22.752 19.9365 22.9961C19.7119 23.2402 19.458 23.4648 19.1748 23.6699C18.8916 23.8652 18.5791 24.0264 18.2373 24.1533C17.9053 24.2803 17.5488 24.3438 17.168 24.3438C16.7676 24.3438 16.377 24.2754 15.9961 24.1387C15.625 24.002 15.293 23.792 15 23.5088C14.7168 23.2158 14.4873 22.8496 14.3115 22.4102C14.1357 21.9609 14.0479 21.4238 14.0479 20.7988C14.0479 20.1641 14.1943 19.4854 14.4873 18.7627C14.79 18.04 15.2295 17.376 15.8057 16.7705C16.3818 16.1553 17.085 15.6475 17.915 15.2471C18.7549 14.8467 19.7119 14.6465 20.7861 14.6465C21.5771 14.6465 22.3389 14.7979 23.0713 15.1006C23.8135 15.4033 24.4678 15.8232 25.0342 16.3604C25.6104 16.8877 26.0693 17.5225 26.4111 18.2646C26.7627 18.9971 26.9385 19.793 26.9385 20.6523C26.9385 21.6094 26.7969 22.4346 26.5137 23.1279C26.2402 23.8213 25.8643 24.4316 25.3857 24.959C24.917 25.4766 24.3701 25.9355 23.7451 26.3359C23.1201 26.7363 22.4658 27.1221 21.7822 27.4932C21.1084 27.8545 20.4199 28.2256 19.7168 28.6064C19.0234 28.9873 18.3643 29.4219 17.7393 29.9102C17.1143 30.3887 16.5479 30.9502 16.04 31.5947C15.5322 32.2295 15.127 32.9912 14.8242 33.8799C14.9707 33.6846 15.127 33.5039 15.293 33.3379C15.459 33.1719 15.6445 33.0254 15.8496 32.8984C16.0645 32.7715 16.2988 32.6738 16.5527 32.6055C16.8066 32.5371 17.0898 32.5029 17.4023 32.5029C17.7539 32.5029 18.1104 32.5566 18.4717 32.6641C18.8428 32.7617 19.2139 32.8887 19.585 33.0449C19.9658 33.2012 20.3418 33.3721 20.7129 33.5576C21.0938 33.7334 21.4697 33.8994 21.8408 34.0557C22.2119 34.2119 22.5781 34.3438 22.9395 34.4512C23.3008 34.5488 23.6523 34.5977 23.9941 34.5977C24.2871 34.5977 24.5508 34.5781 24.7852 34.5391C25.0195 34.5 25.2295 34.4268 25.415 34.3193C25.6104 34.2119 25.7861 34.0605 25.9424 33.8652C26.0986 33.6602 26.25 33.3965 26.3965 33.0742L26.9092 33.1914C26.8604 33.6211 26.7627 34.0605 26.6162 34.5098C26.4795 34.959 26.2744 35.3691 26.001 35.7402C25.7275 36.1113 25.3809 36.4141 24.9609 36.6484C24.541 36.8828 24.0234 37 23.4082 37C23.0273 37 22.6416 36.9316 22.251 36.7949C21.8701 36.6484 21.4893 36.4727 21.1084 36.2676C20.7275 36.0527 20.3516 35.8232 19.9805 35.5791C19.6094 35.3252 19.2432 35.0957 18.8818 34.8906C18.5205 34.6758 18.1689 34.5 17.8271 34.3633C17.4854 34.2168 17.1533 34.1436 16.8311 34.1436C16.5186 34.1436 16.2402 34.207 15.9961 34.334C15.752 34.4609 15.5371 34.627 15.3516 34.832C15.1758 35.0273 15.0244 35.2422 14.8975 35.4766C14.7803 35.7109 14.6777 35.9355 14.5898 36.1504C14.5117 36.3555 14.4482 36.541 14.3994 36.707C14.3604 36.8633 14.3311 36.9609 14.3115 37H13.6523ZM34.5117 25.2959C35.127 24.9736 35.752 24.5879 36.3867 24.1387C37.0312 23.6895 37.6123 23.1865 38.1299 22.6299C38.6475 22.0635 39.0723 21.4385 39.4043 20.7549C39.7363 20.0713 39.9023 19.334 39.9023 18.543C39.9023 18.0352 39.8193 17.5957 39.6533 17.2246C39.4971 16.8535 39.2822 16.5508 39.0088 16.3164C38.7451 16.0723 38.4326 15.8965 38.0713 15.7891C37.71 15.6719 37.3291 15.6133 36.9287 15.6133C36.4697 15.6133 36.0254 15.7012 35.5957 15.877C35.166 16.0527 34.7803 16.3018 34.4385 16.624C34.0967 16.9365 33.8232 17.3076 33.6182 17.7373C33.4131 18.167 33.3105 18.6357 33.3105 19.1436C33.3105 19.6025 33.3936 20.0029 33.5596 20.3447C33.7256 20.6768 33.9111 20.9551 34.1162 21.1797C34.3506 21.4434 34.6191 21.668 34.9219 21.8535L34.5996 22.5127C34.0625 22.3955 33.5986 22.2295 33.208 22.0146C32.8271 21.7998 32.5098 21.5557 32.2559 21.2822C32.002 20.999 31.8115 20.6963 31.6846 20.374C31.5674 20.042 31.5088 19.7051 31.5088 19.3633C31.5088 18.8262 31.6406 18.2939 31.9043 17.7666C32.1777 17.2295 32.5635 16.7461 33.0615 16.3164C33.5693 15.8867 34.1797 15.54 34.8926 15.2764C35.6055 15.0029 36.4062 14.8662 37.2949 14.8662C37.9199 14.8662 38.5303 14.9346 39.126 15.0713C39.7314 15.208 40.2637 15.4229 40.7227 15.7158C41.1914 15.999 41.5674 16.3652 41.8506 16.8145C42.1338 17.2539 42.2754 17.7812 42.2754 18.3965C42.2754 18.9043 42.1533 19.4023 41.9092 19.8906C41.6748 20.3789 41.3721 20.8525 41.001 21.3115C40.6396 21.7607 40.2344 22.1855 39.7852 22.5859C39.3457 22.9766 38.9209 23.333 38.5107 23.6553C38.1104 23.9775 37.749 24.2559 37.4268 24.4902C37.1045 24.7148 36.8799 24.8857 36.7529 25.0029C37.7979 25.042 38.7305 25.2227 39.5508 25.5449C40.3711 25.8672 41.0596 26.2871 41.6162 26.8047C42.1826 27.3223 42.6123 27.918 42.9053 28.5918C43.208 29.2656 43.3594 29.9688 43.3594 30.7012C43.3594 31.4043 43.2568 32.0488 43.0518 32.6348C42.8467 33.2207 42.5635 33.748 42.2021 34.2168C41.8408 34.6855 41.416 35.0957 40.9277 35.4473C40.4395 35.7988 39.9121 36.0918 39.3457 36.3262C38.7891 36.5605 38.2031 36.7363 37.5879 36.8535C36.9824 36.9707 36.377 37.0293 35.7715 37.0293C35 37.0293 34.2578 36.9365 33.5449 36.751C32.832 36.5654 32.2021 36.2871 31.6553 35.916C31.1084 35.5352 30.6689 35.0615 30.3369 34.4951C30.0146 33.9287 29.8535 33.2646 29.8535 32.5029C29.8535 32.0928 29.9072 31.6875 30.0146 31.2871C30.1318 30.877 30.2832 30.4912 30.4688 30.1299C30.6641 29.7588 30.8887 29.4121 31.1426 29.0898C31.4062 28.7578 31.6895 28.4648 31.9922 28.2109L32.5195 28.6064C32.2852 29.0752 32.1094 29.5537 31.9922 30.042C31.8848 30.5205 31.8311 30.999 31.8311 31.4775C31.8311 32.2588 31.9629 32.9424 32.2266 33.5283C32.4902 34.1143 32.8369 34.6025 33.2666 34.9932C33.6963 35.3838 34.1846 35.6768 34.7314 35.8721C35.2881 36.0674 35.8545 36.165 36.4307 36.165C36.9971 36.165 37.5537 36.0674 38.1006 35.8721C38.6475 35.6768 39.1357 35.3887 39.5654 35.0078C40.0049 34.627 40.3564 34.1533 40.6201 33.5869C40.8838 33.0107 41.0156 32.3467 41.0156 31.5947C41.0156 30.9502 40.8838 30.3008 40.6201 29.6465C40.3662 28.9824 39.9805 28.3867 39.4629 27.8594C38.9453 27.3223 38.2959 26.8877 37.5146 26.5557C36.7432 26.2139 35.8398 26.043 34.8047 26.043L34.5117 25.2959Z" fill="#FFFCFA"/>
</svg>
