<svg width="58" height="41" viewBox="0 0 58 41" fill="none" xmlns="http://www.w3.org/2000/svg">
<rect x="0.5" y="0.5" width="57" height="40" stroke="#FFFCFA"/>
<path d="M21.6738 32C21.6738 31.9121 21.6689 31.8193 21.6592 31.7217C21.6494 31.6143 21.6445 31.5166 21.6445 31.4287C21.6445 30.1885 21.8057 29.0996 22.1279 28.1621C22.46 27.2148 22.8896 26.375 23.417 25.6426C23.9541 24.9102 24.5645 24.2559 25.248 23.6797C25.9316 23.1035 26.6299 22.5615 27.3428 22.0537C28.0557 21.5459 28.7539 21.0527 29.4375 20.5742C30.1211 20.0859 30.7266 19.5684 31.2539 19.0215C31.791 18.4648 32.2207 17.8594 32.543 17.2051C32.875 16.541 33.041 15.7744 33.041 14.9053C33.041 14.2314 32.9287 13.6162 32.7041 13.0596C32.4795 12.5029 32.167 12.0293 31.7666 11.6387C31.3662 11.2383 30.8926 10.9307 30.3457 10.7158C29.7988 10.501 29.208 10.3936 28.5732 10.3936C27.8213 10.3936 27.1523 10.54 26.5664 10.833C25.9805 11.1162 25.4824 11.4727 25.0723 11.9023C24.6719 12.332 24.3643 12.8008 24.1494 13.3086C23.9346 13.8164 23.8271 14.2949 23.8271 14.7441C23.8271 15.1934 23.8906 15.5791 24.0176 15.9014C24.1543 16.2139 24.3301 16.4727 24.5449 16.6777C24.7695 16.8828 25.0186 17.0342 25.292 17.1318C25.5752 17.2197 25.8682 17.2637 26.1709 17.2637C26.5029 17.2637 26.8252 17.2148 27.1377 17.1172C27.46 17.0195 27.7578 16.8828 28.0312 16.707L28.5146 17.293C28.3682 17.5176 28.1826 17.752 27.958 17.9961C27.7334 18.2402 27.4795 18.4648 27.1963 18.6699C26.9131 18.8652 26.6006 19.0264 26.2588 19.1533C25.9268 19.2803 25.5703 19.3438 25.1895 19.3438C24.7891 19.3438 24.3984 19.2754 24.0176 19.1387C23.6465 19.002 23.3145 18.792 23.0215 18.5088C22.7383 18.2158 22.5088 17.8496 22.333 17.4102C22.1572 16.9609 22.0693 16.4238 22.0693 15.7988C22.0693 15.1641 22.2158 14.4854 22.5088 13.7627C22.8115 13.04 23.251 12.376 23.8271 11.7705C24.4033 11.1553 25.1064 10.6475 25.9365 10.2471C26.7764 9.84668 27.7334 9.64648 28.8076 9.64648C29.5986 9.64648 30.3604 9.79785 31.0928 10.1006C31.835 10.4033 32.4893 10.8232 33.0557 11.3604C33.6318 11.8877 34.0908 12.5225 34.4326 13.2646C34.7842 13.9971 34.96 14.793 34.96 15.6523C34.96 16.6094 34.8184 17.4346 34.5352 18.1279C34.2617 18.8213 33.8857 19.4316 33.4072 19.959C32.9385 20.4766 32.3916 20.9355 31.7666 21.3359C31.1416 21.7363 30.4873 22.1221 29.8037 22.4932C29.1299 22.8545 28.4414 23.2256 27.7383 23.6064C27.0449 23.9873 26.3857 24.4219 25.7607 24.9102C25.1357 25.3887 24.5693 25.9502 24.0615 26.5947C23.5537 27.2295 23.1484 27.9912 22.8457 28.8799C22.9922 28.6846 23.1484 28.5039 23.3145 28.3379C23.4805 28.1719 23.666 28.0254 23.8711 27.8984C24.0859 27.7715 24.3203 27.6738 24.5742 27.6055C24.8281 27.5371 25.1113 27.5029 25.4238 27.5029C25.7754 27.5029 26.1318 27.5566 26.4932 27.6641C26.8643 27.7617 27.2354 27.8887 27.6064 28.0449C27.9873 28.2012 28.3633 28.3721 28.7344 28.5576C29.1152 28.7334 29.4912 28.8994 29.8623 29.0557C30.2334 29.2119 30.5996 29.3438 30.9609 29.4512C31.3223 29.5488 31.6738 29.5977 32.0156 29.5977C32.3086 29.5977 32.5723 29.5781 32.8066 29.5391C33.041 29.5 33.251 29.4268 33.4365 29.3193C33.6318 29.2119 33.8076 29.0605 33.9639 28.8652C34.1201 28.6602 34.2715 28.3965 34.418 28.0742L34.9307 28.1914C34.8818 28.6211 34.7842 29.0605 34.6377 29.5098C34.501 29.959 34.2959 30.3691 34.0225 30.7402C33.749 31.1113 33.4023 31.4141 32.9824 31.6484C32.5625 31.8828 32.0449 32 31.4297 32C31.0488 32 30.6631 31.9316 30.2725 31.7949C29.8916 31.6484 29.5107 31.4727 29.1299 31.2676C28.749 31.0527 28.373 30.8232 28.002 30.5791C27.6309 30.3252 27.2646 30.0957 26.9033 29.8906C26.542 29.6758 26.1904 29.5 25.8486 29.3633C25.5068 29.2168 25.1748 29.1436 24.8525 29.1436C24.54 29.1436 24.2617 29.207 24.0176 29.334C23.7734 29.4609 23.5586 29.627 23.373 29.832C23.1973 30.0273 23.0459 30.2422 22.9189 30.4766C22.8018 30.7109 22.6992 30.9355 22.6113 31.1504C22.5332 31.3555 22.4697 31.541 22.4209 31.707C22.3818 31.8633 22.3525 31.9609 22.333 32H21.6738Z" fill="#FFFCFA"/>
</svg>
