<svg width="58" height="66" viewBox="0 0 58 66" fill="none" xmlns="http://www.w3.org/2000/svg">
<rect x="0.5" y="0.5" width="57" height="65" stroke="#FFFCFA"/>
<path d="M44.9043 20.2969L46.7012 20.2383C46.9486 20.2253 47.1276 20.1699 47.2383 20.0723C47.349 19.9681 47.4043 19.7891 47.4043 19.5352V8.99805C47.1504 9.12826 46.8737 9.24544 46.5742 9.34961C46.3203 9.44076 46.0241 9.52214 45.6855 9.59375C45.347 9.66536 44.9857 9.70117 44.6016 9.70117V9.20312C44.9596 9.20312 45.321 9.12174 45.6855 8.95898C46.0501 8.78971 46.3854 8.57487 46.6914 8.31445C47.0039 8.04753 47.2741 7.74805 47.502 7.41602C47.7363 7.07747 47.9023 6.73893 48 6.40039H48.8984V19.5352C48.8984 19.7891 48.9538 19.9681 49.0645 20.0723C49.1751 20.1699 49.3542 20.2253 49.6016 20.2383L51.1055 20.2969V21H44.9043V20.2969Z" fill="#FFFCFA"/>
</svg>
