<svg width="360" height="180" viewBox="0 0 360 180" fill="none" xmlns="http://www.w3.org/2000/svg">
<g clip-path="url(#clip0_563_10105)">
<path d="M104.646 65.434C59.8782 65.1108 43.2317 45.443 24.8479 39.5754C6.46406 33.7079 -5.45508 39.5754 -5.45508 39.5754V180.384H309.494L256.767 140.384C224.713 115.535 149.414 65.7573 104.646 65.434Z" fill="#F1EEEC"/>
<g filter="url(#filter0_f_563_10105)">
<path d="M104.646 69.4744C59.8782 69.1512 43.2317 49.4834 24.8479 43.6159C6.46406 37.7483 -5.45508 43.6159 -5.45508 43.6159V184.424H309.494L256.767 144.424C224.713 119.575 149.414 69.7977 104.646 69.4744Z" fill="#E3E1E7"/>
</g>
<path d="M140.605 92.5059C192.322 100.789 204.444 94.3241 222.019 87.6574C241.683 80.1987 256.767 73.9203 275.353 71.2938C293.939 68.6672 369.696 67.2534 369.696 96.5463V179.779H-6.46533V105.031C16.9017 98.0951 99.2316 85.8796 140.605 92.5059Z" fill="#F6F2EE"/>
<g filter="url(#filter1_f_563_10105)">
<path d="M140.605 97.04C192.322 105.323 204.444 98.8581 222.019 92.1915C241.683 84.7328 256.767 78.4544 275.353 75.8278C293.939 73.2013 369.696 71.7874 369.696 101.08V184.313H-6.46533V109.565C16.9017 102.629 99.2316 90.4137 140.605 97.04Z" fill="url(#paint0_linear_563_10105)"/>
</g>
</g>
<defs>
<filter id="filter0_f_563_10105" x="-13.5359" y="32.9272" width="331.111" height="159.578" filterUnits="userSpaceOnUse" color-interpolation-filters="sRGB">
<feFlood flood-opacity="0" result="BackgroundImageFix"/>
<feBlend mode="normal" in="SourceGraphic" in2="BackgroundImageFix" result="shape"/>
<feGaussianBlur stdDeviation="4.0404" result="effect1_foregroundBlur_563_10105"/>
</filter>
<filter id="filter1_f_563_10105" x="-14.5461" y="66.4626" width="392.323" height="125.931" filterUnits="userSpaceOnUse" color-interpolation-filters="sRGB">
<feFlood flood-opacity="0" result="BackgroundImageFix"/>
<feBlend mode="normal" in="SourceGraphic" in2="BackgroundImageFix" result="shape"/>
<feGaussianBlur stdDeviation="4.0404" result="effect1_foregroundBlur_563_10105"/>
</filter>
<linearGradient id="paint0_linear_563_10105" x1="181.615" y1="184.313" x2="181.615" y2="94.3414" gradientUnits="userSpaceOnUse">
<stop stop-color="#EDE9E9"/>
<stop offset="1" stop-color="#ECE9E9"/>
</linearGradient>
<clipPath id="clip0_563_10105">
<rect width="360" height="180" fill="white"/>
</clipPath>
</defs>
</svg>
