<svg width="275" height="318" viewBox="0 0 275 318" fill="none" xmlns="http://www.w3.org/2000/svg">
<rect x="13.2793" width="247.887" height="232.394" rx="10" fill="#FAFBFF"/>
<path d="M0 307.809V141.04C0 138.601 2.75706 137.181 4.74278 138.598L137.223 233.151L270.236 136.463C272.219 135.021 275 136.438 275 138.89V301.809C275 310.645 267.837 317.809 259 317.809H10C4.47715 317.809 0 313.332 0 307.809Z" fill="#7595D3"/>
<path d="M104.881 225.701C124.371 208.254 154.015 208.779 172.875 226.905L261.881 312.443C263.829 314.314 262.504 317.606 259.802 317.606H10.0622C7.3088 317.606 6.00977 314.207 8.06128 312.37L104.881 225.701Z" fill="#5F7DBC"/>
</svg>
