<svg width="54" height="54" viewBox="0 0 54 54" fill="none" xmlns="http://www.w3.org/2000/svg">
<g clip-path="url(#clip0_563_8229)">
<path d="M21.0015 43.4412L21.8205 53.3775C21.8205 53.3775 29.4995 54.7045 34.4464 53.1474L36.3032 36.0181L20.8713 36.2993L21.0015 43.4412Z" fill="#BA7C55" stroke="#B17049" stroke-width="0.3" stroke-miterlimit="10"/>
<path d="M23.7313 52.933L22.9656 35.979" stroke="#A76945" stroke-width="2" stroke-miterlimit="10" stroke-linecap="round"/>
<path d="M25.9658 53.1745L25.6567 36.2122" stroke="#A76945" stroke-width="2" stroke-miterlimit="10" stroke-linecap="round"/>
<path d="M28.2012 53.4896L27.8997 36.9421" stroke="#A76945" stroke-width="2" stroke-miterlimit="10" stroke-linecap="round"/>
<path d="M30.3972 53.2105L30.7101 37.1298" stroke="#A76945" stroke-width="2" stroke-miterlimit="10" stroke-linecap="round"/>
<path d="M32.7833 52.8851L33.6928 36.7935" stroke="#A76945" stroke-width="2" stroke-miterlimit="10" stroke-linecap="round"/>
<path d="M45.3154 37.8947C45.3154 37.8947 46.0585 40.1776 42.6978 41.2593C39.3366 42.341 36.65 38.4351 36.65 38.4351L35.4128 40.5626C33.1834 44.2391 29.0245 40.041 29.0245 40.041C29.5521 48.0051 27.2419 47.2177 27.2419 47.2177C21.5007 47.1949 23.7913 39.8808 23.7913 39.8808L22.0083 40.0408C17.5123 45.3536 16.6843 41.9238 16.6843 41.9238C12.5002 43.3395 13.7137 39.9364 13.7137 39.9364C11.1386 42.1523 10.2821 40.637 10.2821 40.637C7.54944 37.6889 11.1096 37.0495 11.1096 37.0495C13.3111 35.3509 15.7215 31.0966 15.7215 31.0966C8.98404 32.4313 15.6077 24.8534 15.6077 24.8534L19.1362 22.4438C13.6817 24.1588 20.4238 16.0839 20.4238 16.0839C15.78 16.5944 16.9384 14.0701 19.4223 11.289C22.1481 8.23656 26.4709 4.87454 26.4709 4.87454L30.297 4.80482C30.297 4.80482 41.793 16.0775 35.4484 14.4706C35.4484 14.4706 42.4341 23.2741 36.3345 21.0888L39.9475 23.3194C39.9475 23.3194 50.6976 32.1459 39.2941 29.4692C39.2941 29.4692 45.4562 35.0836 45.3165 37.8931L45.3154 37.8947Z" fill="#679966"/>
<path d="M28.2103 2.35735C28.2103 2.35735 20.825 6.6383 23.116 9.84996C23.116 9.84996 24.1182 10.7247 25.5223 9.80611C25.5223 9.80611 25.3126 11.3691 27.4596 10.1679C27.4596 10.1679 28.2048 9.05197 29.1894 10.5672C30.174 12.0823 32.7728 11.1735 32.9422 9.99044C32.9422 9.99044 35.0825 11.9289 34.3668 7.66805C34.3668 7.66805 29.6074 1.4438 28.2103 2.35843L28.2103 2.35735Z" fill="white"/>
<path d="M19.4213 11.2915C19.4213 11.2915 21.0797 17.1269 26.4864 16.2949C26.4864 16.2949 33.837 16.424 36.8704 12.5691" stroke="#695A4B" stroke-miterlimit="10" stroke-linecap="round"/>
<path d="M15.4177 24.8477C15.4177 24.8477 20.5706 32.9559 29.6986 31.5456C29.6986 31.5456 39.6891 30.2156 41.7081 25.4742" stroke="#695A4B" stroke-miterlimit="10" stroke-linecap="round"/>
<path d="M16.8268 35.7985C16.8268 35.7985 18.7099 35.8597 20.1078 33.8253C20.1078 33.8253 15.7461 41.2737 24.8614 35.6532C24.8614 35.6532 25.6353 37.871 28.1242 36.1672" stroke="#4A7F47" stroke-miterlimit="10" stroke-linecap="round"/>
<path d="M30.6237 19.2813C30.6237 19.2813 32.2774 22.5045 34.1902 18.9613C34.1902 18.9613 37.1643 21.1395 37.3786 18.9032" stroke="#4A7F47" stroke-miterlimit="10" stroke-linecap="round"/>
<path d="M15.7098 23.7069C16.6207 22.3688 19.9842 18.0803 24.2349 20.5613C25.2285 21.141 25.6465 22.3454 25.2135 23.4111C24.809 24.407 23.9348 25.3169 22.047 24.7312C22.047 24.7312 20.9806 23.8474 19.6067 24.9922C18.9922 25.5041 18.2525 25.8512 17.455 25.9081C16.5464 25.9729 15.5496 25.8142 15.4175 24.8466C15.3625 24.4456 15.4821 24.0415 15.7098 23.7069Z" fill="white"/>
<path d="M35.051 29.8766C36.4578 29.0763 41.3666 26.7067 44.0904 30.8066C44.7268 31.7645 44.5719 33.0303 43.7141 33.7962C42.9123 34.5123 41.7267 34.9446 40.2898 33.5873C40.2898 33.5873 39.7221 32.3239 37.984 32.7473C37.2068 32.9366 36.3901 32.9222 35.6484 32.6222C34.804 32.2806 33.9791 31.6989 34.2861 30.7716C34.4136 30.3873 34.6993 30.0767 35.051 29.8766Z" fill="white"/>
<path d="M23.2137 15.7517C23.5318 15.7459 23.7817 15.309 23.772 14.7759C23.7623 14.2427 23.4966 13.8153 23.1785 13.821C22.8604 13.8268 22.6104 14.2637 22.6201 14.7969C22.6298 15.33 22.8956 15.7575 23.2137 15.7517Z" fill="#E5A5A6"/>
<path d="M33.9273 15.0498C34.2454 15.044 34.4954 14.6071 34.4857 14.074C34.4759 13.5408 34.2102 13.1133 33.8921 13.1191C33.574 13.1249 33.324 13.5618 33.3338 14.095C33.3435 14.6281 33.6092 15.0556 33.9273 15.0498Z" fill="#FDD478"/>
<path d="M26.372 18.2915C26.6901 18.2857 26.9401 17.8488 26.9304 17.3157C26.9206 16.7825 26.6549 16.355 26.3368 16.3608C26.0187 16.3666 25.7687 16.8035 25.7785 17.3367C25.7882 17.8698 26.0539 18.2973 26.372 18.2915Z" fill="#C0242A"/>
<path d="M19.7771 30.8184C20.0952 30.8126 20.3452 30.3757 20.3355 29.8425C20.3258 29.3094 20.0601 28.8819 19.742 28.8877C19.4239 28.8935 19.1739 29.3304 19.1836 29.8635C19.1933 30.3967 19.4591 30.8242 19.7771 30.8184Z" fill="#FDD478"/>
<path d="M28.7171 33.6236C29.0352 33.6178 29.2852 33.1809 29.2754 32.6477C29.2657 32.1146 29 31.6871 28.6819 31.6929C28.3638 31.6987 28.1138 32.1356 28.1235 32.6687C28.1333 33.2019 28.399 33.6293 28.7171 33.6236Z" fill="#C0242A"/>
<path d="M39.8564 27.7544C40.1745 27.7486 40.4244 27.3117 40.4147 26.7786C40.405 26.2454 40.1393 25.8179 39.8212 25.8237C39.5031 25.8295 39.2531 26.2664 39.2628 26.7996C39.2725 27.3327 39.5383 27.7602 39.8564 27.7544Z" fill="#E5A5A6"/>
</g>
<defs>
<clipPath id="clip0_563_8229">
<rect width="54" height="54" fill="white"/>
</clipPath>
</defs>
</svg>
