<svg width="48" height="48" viewBox="0 0 48 48" fill="none" xmlns="http://www.w3.org/2000/svg">
<g clip-path="url(#clip0_2470_56953)">
<path d="M18.6674 38.615L19.3955 47.4472C19.3955 47.4472 26.2212 48.6267 30.6185 47.2427L32.269 32.0166L18.5518 32.2666L18.6674 38.615Z" fill="#BA8567" stroke="#B1785A" stroke-width="0.3" stroke-miterlimit="10"/>
<path d="M21.0937 47.0517L20.4131 31.9814" stroke="#A77155" stroke-width="2" stroke-miterlimit="10" stroke-linecap="round"/>
<path d="M23.0804 47.2661L22.8057 32.1885" stroke="#A77155" stroke-width="2" stroke-miterlimit="10" stroke-linecap="round"/>
<path d="M25.0678 47.5467L24.7998 32.8379" stroke="#A77155" stroke-width="2" stroke-miterlimit="10" stroke-linecap="round"/>
<path d="M27.0191 47.2978L27.2973 33.0039" stroke="#A77155" stroke-width="2" stroke-miterlimit="10" stroke-linecap="round"/>
<path d="M29.1402 47.0088L29.9486 32.7051" stroke="#A77155" stroke-width="2" stroke-miterlimit="10" stroke-linecap="round"/>
<path d="M40.28 33.6845C40.28 33.6845 40.9405 35.7138 37.9533 36.6753C34.9656 37.6368 32.5775 34.1649 32.5775 34.1649L31.4778 36.0559C29.496 39.3239 25.7993 35.5923 25.7993 35.5923C26.2682 42.6716 24.2147 41.9717 24.2147 41.9717C19.1114 41.9513 21.1475 35.45 21.1475 35.45L19.5626 35.5922C15.5661 40.3146 14.8302 37.2659 14.8302 37.2659C11.111 38.5243 12.1896 35.4994 12.1896 35.4994C9.90066 37.469 9.13928 36.1221 9.13928 36.1221C6.71028 33.5015 9.87491 32.9332 9.87491 32.9332C11.8318 31.4234 13.9744 27.6418 13.9744 27.6418C7.98549 28.8282 13.8732 22.0922 13.8732 22.0922L17.0097 19.9504C12.1612 21.4748 18.1542 14.2971 18.1542 14.2971C14.0264 14.7509 15.056 12.5071 17.264 10.035C19.6869 7.32171 23.5293 4.33325 23.5293 4.33325L26.9303 4.27128C26.9303 4.27128 37.149 14.2914 31.5094 12.8631C31.5094 12.8631 37.7189 20.6884 32.297 18.7459L35.5086 20.7287C35.5086 20.7287 45.0642 28.5745 34.9278 26.1952C34.9278 26.1952 40.4052 31.1858 40.281 33.6831L40.28 33.6845Z" fill="#679966"/>
<path d="M25.0755 2.0952C25.0755 2.0952 18.5108 5.90049 20.5472 8.7553C20.5472 8.7553 21.4381 9.53282 22.6861 8.71633C22.6861 8.71633 22.4997 10.1056 24.4082 9.03794C24.4082 9.03794 25.0706 8.04598 25.9458 9.39281C26.821 10.7396 29.1311 9.93176 29.2816 8.88017C29.2816 8.88017 31.1841 10.6032 30.548 6.81583C30.548 6.81583 26.3174 1.28316 25.0755 2.09617L25.0755 2.0952Z" fill="white"/>
<path d="M17.2627 10.0371C17.2627 10.0371 18.7369 15.2241 23.5428 14.4845C23.5428 14.4845 30.0766 14.5994 32.773 11.1727" stroke="#695A4B" stroke-miterlimit="10" stroke-linecap="round"/>
<path d="M13.7041 22.0869C13.7041 22.0869 18.2845 29.2943 26.3983 28.0406C26.3983 28.0406 35.2786 26.8584 37.0734 22.6439" stroke="#695A4B" stroke-miterlimit="10" stroke-linecap="round"/>
<path d="M14.9568 31.8213C14.9568 31.8213 16.6306 31.8757 17.8731 30.0674C17.8731 30.0674 13.9961 36.6881 22.0986 31.6922C22.0986 31.6922 22.7865 33.6635 24.9989 32.149" stroke="#4A7F47" stroke-miterlimit="10" stroke-linecap="round"/>
<path d="M27.2209 17.1387C27.2209 17.1387 28.6909 20.0038 30.3912 16.8543C30.3912 16.8543 33.0349 18.7905 33.2253 16.8026" stroke="#4A7F47" stroke-miterlimit="10" stroke-linecap="round"/>
<path d="M13.9637 21.0729C14.7734 19.8835 17.7632 16.0715 21.5416 18.2768C22.4248 18.7921 22.7963 19.8626 22.4114 20.81C22.0519 21.6952 21.2748 22.504 19.5968 21.9834C19.5968 21.9834 18.6489 21.1978 17.4276 22.2154C16.8814 22.6704 16.2239 22.979 15.515 23.0295C14.7074 23.0871 13.8214 22.9461 13.7039 22.086C13.655 21.7296 13.7613 21.3703 13.9637 21.0729Z" fill="white"/>
<path d="M31.1562 26.5566C32.4067 25.8452 36.7701 23.7389 39.1912 27.3834C39.7569 28.2348 39.6193 29.3599 38.8567 30.0407C38.144 30.6773 37.0901 31.0615 35.8129 29.8551C35.8129 29.8551 35.3083 28.732 33.7633 29.1083C33.0725 29.2767 32.3465 29.2639 31.6873 28.9972C30.9367 28.6935 30.2034 28.1764 30.4763 27.3522C30.5897 27.0106 30.8436 26.7345 31.1562 26.5566Z" fill="white"/>
<path d="M20.634 14.0018C20.9168 13.9966 21.139 13.6082 21.1304 13.1343C21.1217 12.6604 20.8855 12.2804 20.6028 12.2856C20.32 12.2907 20.0978 12.6791 20.1065 13.153C20.1151 13.6269 20.3513 14.0069 20.634 14.0018Z" fill="#E5A5A6"/>
<path d="M30.1575 13.3777C30.4402 13.3726 30.6624 12.9842 30.6538 12.5103C30.6452 12.0364 30.409 11.6564 30.1262 11.6616C29.8435 11.6667 29.6213 12.0551 29.6299 12.529C29.6385 13.0029 29.8747 13.3829 30.1575 13.3777Z" fill="#FDD478"/>
<path d="M23.4417 16.2596C23.7244 16.2544 23.9466 15.8661 23.938 15.3922C23.9293 14.9183 23.6931 14.5383 23.4104 14.5434C23.1276 14.5486 22.9054 14.9369 22.9141 15.4108C22.9227 15.8847 23.1589 16.2647 23.4417 16.2596Z" fill="#C0242A"/>
<path d="M17.5794 27.3943C17.8621 27.3892 18.0843 27.0008 18.0757 26.5269C18.067 26.053 17.8308 25.673 17.5481 25.6782C17.2653 25.6833 17.0431 26.0717 17.0518 26.5456C17.0604 27.0195 17.2966 27.3995 17.5794 27.3943Z" fill="#FDD478"/>
<path d="M25.5257 29.8875C25.8084 29.8823 26.0306 29.494 26.022 29.0201C26.0133 28.5462 25.7771 28.1662 25.4944 28.1713C25.2116 28.1765 24.9894 28.5648 24.9981 29.0387C25.0067 29.5126 25.2429 29.8926 25.5257 29.8875Z" fill="#C0242A"/>
<path d="M35.428 24.6707C35.7107 24.6655 35.9329 24.2772 35.9243 23.8033C35.9157 23.3294 35.6795 22.9494 35.3967 22.9545C35.114 22.9597 34.8918 23.348 34.9004 23.8219C34.909 24.2959 35.1452 24.6758 35.428 24.6707Z" fill="#E5A5A6"/>
</g>
<defs>
<clipPath id="clip0_2470_56953">
<rect width="48" height="48" fill="white"/>
</clipPath>
</defs>
</svg>
