<svg width="48" height="48" viewBox="0 0 48 48" fill="none" xmlns="http://www.w3.org/2000/svg">
<path d="M6.89746 21.174L5.80695 9.2053C5.80695 9.2053 2.41397 7.69555 5.91177 6.57785C10.6262 5.0716 12.9723 5.64703 12.9723 5.64703C12.9723 5.64703 15.0907 6.02264 13.0656 7.65703L16.072 20.5544C16.072 20.5544 11.8548 25.308 6.89746 21.174Z" fill="#BB7861"/>
<path d="M9.23436 7.3193C11.3243 6.93932 12.9858 6.45104 12.9454 6.2287C12.905 6.00636 11.178 6.13416 9.08797 6.51414C6.99798 6.89411 5.33648 7.38239 5.3769 7.60473C5.41733 7.82707 7.14437 7.69928 9.23436 7.3193Z" fill="white"/>
<path d="M5.7924 26.3729L5.69749 47.0551C5.69569 47.4479 6.01242 47.7675 6.40523 47.7693L40.6793 47.9266C41.0721 47.9284 41.3917 47.6117 41.3935 47.2189L41.4953 25.042C41.4961 24.8581 41.4257 24.6816 41.2992 24.5482L25.784 8.25688C25.5143 7.97403 25.0672 7.96139 24.7824 8.22918L6.01669 25.8579C5.87454 25.9915 5.79329 26.1779 5.7924 26.3729Z" fill="#D9BA9D"/>
<path d="M3.21869 25.1324L5.88142 27.3027C6.17014 27.538 6.58807 27.5221 6.85834 27.2658L24.2092 10.7917C24.5018 10.5138 24.9634 10.5217 25.2461 10.8099L41.5187 27.3714C41.7966 27.6543 42.2486 27.6674 42.5425 27.4016L44.3006 25.811C44.609 25.5317 44.6271 25.0533 44.3396 24.7521L25.7975 5.2981C25.5249 5.01187 25.0754 4.99103 24.7767 5.25009L3.20077 24.0005C2.85423 24.3017 2.86282 24.8424 3.21869 25.1324Z" fill="#BB7861"/>
<path d="M2.71358 25.1721C1.82235 25.4184 1.67179 24.3432 2.34396 23.5794C2.80561 23.0549 3.23227 22.4999 3.74281 22.0232L23.0983 3.95438C23.0983 3.95438 24.9132 2.48338 26.8791 3.97173C28.6392 5.3046 42.1351 20.2026 44.9375 23.3026C45.3748 23.7865 45.7212 24.3528 45.8897 24.9832C46.0913 25.7385 46.0425 26.5205 44.7164 26.06C44.0012 25.8117 43.3722 25.3626 42.8519 24.8124L26.8749 7.9201C26.0428 7.04063 24.6668 6.96932 23.7486 7.75893L11.017 18.7066L4.89789 23.9681C4.2609 24.5159 3.52335 24.9482 2.7131 25.1721L2.71358 25.1721Z" fill="white"/>
<path d="M10.737 34.6609L20.8383 34.7072C20.9009 34.7075 20.9522 34.6572 20.9525 34.5941L20.9773 29.1916C20.987 27.0759 19.8159 25.0525 17.8652 24.2329C17.2468 23.973 16.5634 23.8317 15.8395 23.9165C13.8936 24.1439 12.7046 24.5467 11.8502 25.3717C11.0495 26.145 10.6622 27.2533 10.6571 28.3663L10.6287 34.5506C10.6284 34.6108 10.6763 34.6606 10.737 34.6609Z" fill="#FCDD69" stroke="#B06E56" stroke-width="0.5" stroke-miterlimit="10"/>
<path d="M15.8398 23.917L15.8398 34.6152" stroke="#B06E56" stroke-width="0.5" stroke-miterlimit="10" stroke-linecap="round"/>
<path d="M26.6841 47.8622L26.76 31.3411C26.76 31.3349 26.76 31.3286 26.76 31.3224C26.773 30.4877 27.5413 29.8587 28.3761 29.8591L33.9434 29.8625C35.872 29.8179 37.1082 29.5199 37.0976 31.8151L37.0238 47.9097L26.6837 47.8622L26.6841 47.8622Z" fill="#B97861"/>
<path d="M26.3342 29.2691C26.3714 28.721 26.4136 28.5373 26.8289 28.1579C27.5545 27.4955 28.9545 26.9483 29.9326 28.0205C30.88 29.0589 31.8463 28.5078 32.4313 28.3665C33.0082 28.2272 33.5841 28.2948 34.0357 28.6083C34.0841 28.6418 34.1331 28.6776 34.183 28.7164C34.4209 28.8999 34.7539 28.9274 35.054 28.7733C35.3421 28.6259 35.7634 28.5094 36.2976 28.6356C37.0146 28.8045 37.2522 30.0071 37.6833 30.7817C37.9555 31.2701 38.0287 31.89 37.8497 32.4967C37.7554 32.8169 37.6156 33.0541 37.4131 32.9265C36.7895 32.5342 37.1224 32.0597 36.891 31.0799C36.721 30.3599 36.1427 29.8831 35.2318 29.8929L28.5019 30.0175C27.8192 30.0303 26.3821 30.1589 26.3332 29.2686L26.3342 29.2691Z" fill="white"/>
<path d="M28.5594 40.9075C28.9906 40.9094 29.3423 40.4468 29.3449 39.8741C29.3476 39.3015 29.0001 38.8356 28.5689 38.8337C28.1377 38.8317 27.786 39.2943 27.7833 39.867C27.7807 40.4396 28.1281 40.9055 28.5594 40.9075Z" fill="#57291A"/>
<path d="M35.1797 31.6689L29.0921 31.6409C28.8212 31.6397 28.6006 31.8583 28.5993 32.1292L28.5744 37.5635C28.5731 37.8345 28.7917 38.0551 29.0627 38.0563L35.1502 38.0843C35.4211 38.0855 35.6418 37.8669 35.643 37.596L35.6679 32.1616C35.6692 31.8907 35.4506 31.6701 35.1797 31.6689Z" fill="#FCDD69" stroke="#B06E56" stroke-width="0.5" stroke-miterlimit="10"/>
<path d="M28.5879 34.7432L35.6565 34.7756" stroke="#B06E56" stroke-width="0.5" stroke-miterlimit="10"/>
<path d="M32.1357 31.6543L32.1063 38.0692" stroke="#B06E56" stroke-width="0.5" stroke-miterlimit="10"/>
<path d="M14.9937 15.2866C14.9937 15.2866 16.1494 14.1515 17.9158 14.3291C19.6822 14.5066 19.8568 12.2266 19.8568 12.2266C19.8568 12.2266 19.8318 10.7481 21.6931 9.32788L19.9122 9.06217L13.9997 14.8517L14.9932 15.2862L14.9937 15.2866Z" fill="white"/>
<path d="M6.88077 22.2637C6.88077 22.2637 7.55528 21.6164 9.37545 21.1935C10.3663 20.9631 10.9963 20.048 11.3643 19.2621C11.8188 18.2913 12.4914 17.4394 13.3048 16.7403" fill="white"/>
<path d="M26.145 7.2916C26.145 7.2916 27.1694 8.64613 29.2074 11.6368C30.9987 14.2647 32.2697 14.5353 32.2697 14.5353C32.2697 14.5353 33.3116 14.8236 33.9253 15.3738C35.1852 16.5032 34.6854 13.4734 34.6854 13.4734L26.5634 6.75484L26.145 7.2916Z" fill="white"/>
<path d="M32.6689 9.90137C32.6689 9.90137 34.231 11.5843 36.1643 13.4802C37.0916 14.39 38.0906 15.2057 38.8788 15.8082C39.8713 16.5671 40.7113 17.5072 41.3655 18.5717C42.8711 21.0217 43.4267 21.6346 43.4267 21.6346" fill="white"/>
</svg>
