<svg width="50" height="51" viewBox="0 0 50 51" fill="none" xmlns="http://www.w3.org/2000/svg">
<g id="Group 1321315787">
<g id="Group">
<path id="Vector" d="M5.76025 20.8205L4.53343 7.35572C4.53343 7.35572 0.716327 5.65725 4.65136 4.39983C9.95511 2.7053 12.5945 3.35266 12.5945 3.35266C12.5945 3.35266 14.9777 3.77523 12.6994 5.61392L16.0817 20.1235C16.0817 20.1235 11.3373 25.4713 5.76025 20.8205Z" fill="#BC7B54"/>
<path id="Vector_2" d="M8.38889 5.23397C10.7401 4.80649 12.6093 4.25718 12.5638 4.00705C12.5184 3.75692 10.5754 3.90068 8.22421 4.32816C5.87297 4.75564 4.00378 5.30494 4.04926 5.55508C4.09474 5.80521 6.03766 5.66144 8.38889 5.23397Z" fill="white"/>
</g>
<path id="Vector_3" d="M4.5162 26.6694L4.40943 49.9368C4.4074 50.3787 4.76373 50.7383 5.20564 50.7404L43.7639 50.9173C44.2058 50.9193 44.5654 50.563 44.5675 50.1211L44.682 25.1721C44.6829 24.9653 44.6037 24.7667 44.4614 24.6166L27.0068 6.28887C26.7034 5.97066 26.2003 5.95644 25.8799 6.2577L4.76853 26.09C4.60862 26.2403 4.51721 26.4501 4.5162 26.6694Z" fill="#DAC3A1"/>
<path id="Vector_4" d="M1.62127 25.2736L4.61685 27.7152C4.94166 27.9798 5.41182 27.962 5.71588 27.6736L25.2356 9.1403C25.5647 8.8277 26.084 8.83658 26.4021 9.16082L44.7088 27.7924C45.0214 28.1107 45.5299 28.1255 45.8605 27.8264L47.8384 26.037C48.1854 25.7228 48.2057 25.1846 47.8823 24.8457L27.0225 2.96C26.7158 2.63799 26.2101 2.61454 25.874 2.90599L1.60111 24.0002C1.21125 24.3391 1.22092 24.9473 1.62127 25.2736Z" fill="#BC7B54"/>
<path id="Vector_5" d="M1.05302 25.3184C0.0503892 25.5954 -0.118987 24.3859 0.637194 23.5266C1.15656 22.9365 1.63654 22.3121 2.2109 21.7759L23.9859 1.44843C23.9859 1.44843 26.0276 -0.206437 28.2392 1.46795C30.2194 2.96743 45.4022 19.7277 48.5549 23.2152C49.0469 23.7596 49.4366 24.3966 49.6261 25.1059C49.8529 25.9556 49.798 26.8354 48.3062 26.3173C47.5016 26.0379 46.7939 25.5326 46.2086 24.9137L28.2346 5.90987C27.2984 4.92046 25.7504 4.84025 24.7174 5.72855L10.3943 18.0447L3.51037 23.9639C2.79376 24.5801 1.96401 25.0664 1.05248 25.3184L1.05302 25.3184Z" fill="white"/>
<path id="Vector_6" d="M10.0797 35.9937L21.4437 36.0459C21.5142 36.0462 21.5718 35.9896 21.5721 35.9187L21.6 29.8408C21.611 27.4606 20.2935 25.1843 18.0989 24.2623C17.4033 23.9699 16.6344 23.8109 15.82 23.9063C13.6309 24.1621 12.2933 24.6153 11.3321 25.5434C10.4313 26.4134 9.99558 27.6602 9.98983 28.9123L9.9579 35.8697C9.95759 35.9374 10.0115 35.9934 10.0797 35.9937Z" fill="#FCDD69" stroke="#B17049" stroke-width="0.5" stroke-miterlimit="10"/>
<path id="Vector_7" d="M15.8199 23.9067L15.8199 35.9422" stroke="#B17049" stroke-width="0.5" stroke-miterlimit="10" stroke-linecap="round"/>
<path id="Vector_8" d="M28.0193 50.8451L28.1046 32.2589C28.1046 32.2519 28.1046 32.2448 28.1047 32.2378C28.1193 31.2988 28.9836 30.5911 29.9227 30.5916L36.1859 30.5955C38.3557 30.5453 39.7463 30.21 39.7345 32.7921L39.6514 50.8985L28.0187 50.8451L28.0193 50.8451Z" fill="#BA7C55"/>
<path id="Vector_9" d="M27.6262 29.9274C27.668 29.3107 27.7156 29.1041 28.1827 28.6773C28.999 27.932 30.574 27.3165 31.6744 28.5227C32.7402 29.6909 33.8273 29.0709 34.4855 28.912C35.1345 28.7552 35.7824 28.8313 36.2904 29.184C36.3449 29.2216 36.4 29.262 36.4561 29.3056C36.7238 29.512 37.0984 29.543 37.436 29.3696C37.7601 29.2038 38.234 29.0727 38.8351 29.2147C39.6417 29.4047 39.909 30.7576 40.394 31.6291C40.7002 32.1785 40.7825 32.8759 40.5812 33.5585C40.475 33.9187 40.3178 34.1855 40.0899 34.042C39.3885 33.6006 39.763 33.0668 39.5027 31.9645C39.3114 31.1546 38.6607 30.6181 37.6361 30.6291L30.0648 30.7693C29.2968 30.7837 27.6801 30.9284 27.6251 29.9268L27.6262 29.9274Z" fill="white"/>
<path id="Vector_10" d="M30.1293 43.0204C30.6144 43.0226 31.0101 42.5022 31.0131 41.8579C31.016 41.2137 30.6251 40.6896 30.14 40.6874C29.6549 40.6852 29.2592 41.2056 29.2562 41.8499C29.2533 42.4941 29.6442 43.0182 30.1293 43.0204Z" fill="#5A290D"/>
<path id="Vector_11" d="M37.5776 32.6269L30.7291 32.5954C30.4243 32.594 30.1761 32.84 30.1747 33.1447L30.1467 39.2584C30.1453 39.5631 30.3912 39.8114 30.696 39.8128L37.5445 39.8442C37.8493 39.8456 38.0975 39.5996 38.0989 39.2949L38.1269 33.1812C38.1283 32.8765 37.8824 32.6283 37.5776 32.6269Z" fill="#FCDD69" stroke="#B17049" stroke-width="0.5" stroke-miterlimit="10"/>
<path id="Vector_12" d="M30.1613 36.0857L38.1135 36.1222" stroke="#B17049" stroke-width="0.5" stroke-miterlimit="10"/>
<path id="Vector_13" d="M34.1533 32.611L34.1202 39.8277" stroke="#B17049" stroke-width="0.5" stroke-miterlimit="10"/>
<path id="Vector_14" d="M14.8681 14.1975C14.8681 14.1975 16.1683 12.9205 18.1555 13.1202C20.1427 13.32 20.3391 10.7549 20.3391 10.7549C20.3391 10.7549 20.311 9.09163 22.405 7.49387L20.4015 7.19494L13.7499 13.7082L14.8676 14.1969L14.8681 14.1975Z" fill="white"/>
<path id="Vector_15" d="M5.74086 22.0463C5.74086 22.0463 6.49969 21.3181 8.54738 20.8423C9.66203 20.5831 10.3708 19.5536 10.7848 18.6695C11.2962 17.5773 12.0528 16.619 12.9679 15.8325" fill="white"/>
<path id="Vector_16" d="M27.4132 5.20317C27.4132 5.20317 28.5657 6.72701 30.8585 10.0915C32.8736 13.0479 34.3036 13.3524 34.3036 13.3524C34.3036 13.3524 35.4757 13.6767 36.166 14.2956C37.5834 15.5662 37.0212 12.1577 37.0212 12.1577L27.8839 4.59932L27.4132 5.20317Z" fill="white"/>
<path id="Vector_17" d="M34.7531 8.13867C34.7531 8.13867 36.5104 10.0319 38.6853 12.1649C39.7285 13.1883 40.8524 14.106 41.7391 14.7838C42.8557 15.6376 43.8008 16.6953 44.5367 17.8928C46.2305 20.649 46.8556 21.3386 46.8556 21.3386" fill="white"/>
</g>
</svg>
