<svg width="48" height="48" viewBox="0 0 48 48" fill="none" xmlns="http://www.w3.org/2000/svg">
<path d="M29.2008 21.6113H27.7393V40.026H29.2008V21.6113Z" fill="#4A4D48"/>
<path d="M35.0729 20.4834H33.6113V38.9006H35.0729V20.4834Z" fill="#4A4D48"/>
<path d="M14.3024 20.4834H12.8408V38.9006H14.3024V20.4834Z" fill="#4A4D48"/>
<path d="M19.7868 21.6113H18.3252V40.026H19.7868V21.6113Z" fill="#4A4D48"/>
<path d="M28.0856 21.5576H19.5371V22.4669H28.0856V21.5576Z" fill="#4A4D48"/>
<path d="M28.6969 39.6152H18.9258V41.7112H28.6969V39.6152Z" fill="#4A4D48"/>
<path d="M28.2432 41.5007L35.0732 40.427V38.2822L28.2432 39.3534V41.5007Z" fill="#4A4D48"/>
<path d="M19.0984 41.5007L12.8438 40.427V38.2822L19.0984 39.3534V41.5007Z" fill="#4A4D48"/>
<path d="M27.739 22.4668H19.7891V38.8522H27.739V22.4668Z" fill="#FEE16A"/>
<path d="M28.6969 38.8525H18.9258V40.9511H28.6969V38.8525Z" fill="#4A4D48"/>
<path d="M34.1424 37.3936V40.1317L29.4547 41.3107L28.6943 41.5008V38.7626L29.1978 38.6368L33.6107 37.5271L34.1424 37.3936Z" fill="#4A4D48"/>
<path d="M19.098 38.9804V42.6201L12.8408 40.799V37.1592L14.305 37.5856L18.3249 38.7543L18.926 38.929L19.098 38.9804Z" fill="#4A4D48"/>
<path d="M23.9893 47.4267C13.4552 47.4267 10.7402 45.531 10.9867 44.9505C11.2308 44.3674 12.1349 43.2603 12.1349 43.2603H12.1426V40.0059L18.9419 41.7731V41.6986H29.8663V41.6061L35.9515 40.2396V43.268L35.9694 43.2603C35.9694 43.2603 36.8813 44.3674 37.1279 44.9505C37.3745 45.531 34.6337 47.4267 23.9893 47.4267Z" fill="#4A4D48"/>
<path d="M35.3907 39.1681C34.3504 38.9292 32.8452 38.7674 32.3135 39.4301C32.0772 39.7255 32.1388 39.8128 31.9205 39.9875C31.3066 40.4756 30.8006 39.5354 29.863 39.9002C29.3339 40.1057 28.553 39.8565 28.0239 40.116C27.0169 40.6066 27.4793 40.5398 25.6376 40.6631C24.8053 40.7196 24.6178 40.3702 23.8138 40.324C23.1306 40.2829 22.2315 40.4216 21.6639 40.4601C20.7289 40.5244 20.49 40.9071 19.9506 40.848C18.9873 40.7427 19.6372 39.9952 18.5892 39.6921C17.6388 39.4173 17.066 40.3086 16.1259 39.8899C15.6353 39.6716 15.7046 39.3916 15.1395 39.1681C14.4794 38.9061 13.8372 39.0731 13.3337 39.2015C12.6633 39.3736 12.2446 39.4815 11.9878 39.8591C11.6821 40.3086 11.9364 40.6502 11.5614 41.3361C11.3225 41.7753 12.016 42.158 12.1445 42.2248C12.5888 42.4637 12.4912 42.0964 13.5752 42.2197C14.9186 42.3712 14.595 42.9183 15.6995 42.9132C16.673 42.9081 16.8811 42.3044 17.8674 42.42C18.4402 42.4868 18.4428 42.7 19.2802 43.0108C20.0996 43.3165 20.8111 43.3576 22.2367 43.4372C23.0227 43.4809 23.5595 43.5117 24.3045 43.4372C25.2317 43.3447 25.4038 43.1983 26.2104 43.075C27.6976 42.8516 27.8132 43.2471 29.2979 43.1084C30.0968 43.0339 31.1987 42.9312 32.2544 42.2222C33.043 41.6905 33.2896 42.4072 33.9343 42.2068C34.7434 41.9577 34.2657 42.6358 35.2803 42.3044C35.681 42.1734 36.11 42.1426 36.2179 41.8421C36.4413 41.2179 36.4953 39.4224 35.3959 39.1681H35.3907Z" fill="white"/>
<path d="M36.241 43.6069C34.746 44.3467 31.1576 45.2072 23.986 45.2072C16.8143 45.2072 13.3492 44.3493 11.8594 43.6069C12.0161 43.3989 12.1317 43.2601 12.1317 43.2601H12.1394V43.1934C13.7679 43.8972 17.3049 44.6601 23.986 44.6601C30.667 44.6601 34.2965 43.9023 35.9482 43.1959V43.2679L35.9661 43.2601C35.9661 43.2601 36.0817 43.3989 36.241 43.6069Z" fill="#585B57"/>
<path d="M21.8673 47.6553C22.8151 47.4961 24.0249 47.6887 23.4316 47.324C22.8382 46.9592 21.1352 47.175 19.9254 46.6947C18.7156 46.2143 16.4757 44.9814 15.3326 45.5747C14.1896 46.1681 14.3283 45.5773 13.026 45.4155C11.7237 45.2536 12.1578 43.8024 11.2202 44.1979C10.2827 44.5935 9.5994 45.5233 10.8092 45.8907C12.0191 46.258 12.3402 46.8308 13.5731 46.669C14.8061 46.5071 15.6511 47.2161 16.4962 47.3086C17.3413 47.401 19.088 47.1699 19.386 47.4216C19.6839 47.6733 20.9169 47.8094 21.8647 47.6502L21.8673 47.6553Z" fill="white"/>
<path d="M29.2061 2.1695C28.3431 1.09324 27.0613 0.487038 25.5869 0.255859C27.0639 0.484469 28.3457 1.09067 29.2061 2.1695Z" fill="#4A4D48"/>
<path d="M27.0664 9.45404C26.1545 9.621 24.7623 9.34359 24.6442 8.79904C24.6056 8.61923 24.7058 8.43686 24.8342 8.28017C24.9139 8.28017 24.9884 8.2776 25.0629 8.26989C27.218 8.16715 28.1375 6.88796 28.0219 5.02826C27.9063 3.16599 25.9542 2.48016 24.1022 2.48016H24.0919C22.2425 2.48016 20.2877 3.16855 20.1721 5.02826C20.0617 6.84172 20.935 8.10293 22.972 8.25705C23.0259 8.26476 23.0799 8.26733 23.1338 8.27246C23.2083 8.28017 23.2854 8.28274 23.3624 8.28274C23.3907 8.3187 23.4164 8.34952 23.442 8.38548C23.478 8.43942 23.5062 8.49337 23.5268 8.54988C23.5345 8.56786 23.5371 8.58584 23.5448 8.60382C23.5628 8.6706 23.5653 8.73739 23.5525 8.8016C23.5448 8.84013 23.5268 8.8838 23.5063 8.91976C23.4806 8.95829 23.4523 8.99425 23.4163 9.02765C23.0182 9.42065 21.9034 9.60046 21.1303 9.45661C19.3296 9.12012 17.5573 6.70559 17.9708 4.49911C18.0247 4.20629 18.0992 3.92887 18.1866 3.66944C18.3201 3.27901 18.4871 2.92453 18.6875 2.60345C18.7517 2.49557 18.8236 2.39539 18.8981 2.29521C19.0445 2.09743 19.2063 1.91505 19.3784 1.74809C19.4632 1.66333 19.5531 1.5837 19.6481 1.50407H19.6507C20.0206 1.20097 20.4342 0.949241 20.8888 0.746317H20.8914C21.1174 0.648709 21.3537 0.563943 21.5952 0.489452C21.9599 0.379 22.3426 0.296804 22.7408 0.242862C22.8307 0.22745 22.9206 0.217175 23.0105 0.206901C23.3624 0.168371 23.722 0.150391 24.0919 0.150391C24.4618 0.150391 24.8317 0.168371 25.1913 0.206901C25.3274 0.222313 25.461 0.240293 25.592 0.260842C27.0664 0.49459 28.3482 1.09822 29.2112 2.17449C29.3551 2.35429 29.4861 2.54694 29.6042 2.755C29.725 2.96306 29.8303 3.1814 29.9227 3.41771C30.0563 3.75164 30.1591 4.11125 30.231 4.50168C30.642 6.70559 28.8722 9.12269 27.0715 9.45918L27.0664 9.45404Z" fill="#4A4D48"/>
<path d="M19.6455 1.50189C20.018 1.19109 20.4341 0.939358 20.8836 0.744141C20.4289 0.947064 20.0128 1.19879 19.6455 1.50189Z" fill="#4A4D48"/>
<path d="M20.8887 0.74124C21.1147 0.641063 21.351 0.556297 21.5925 0.484375C21.3485 0.558866 21.1121 0.6462 20.8887 0.74124Z" fill="#4A4D48"/>
<path d="M23.5553 8.79935C23.545 8.83788 23.5296 8.88155 23.5039 8.91751C23.5245 8.88155 23.5424 8.83788 23.5501 8.79935C23.5656 8.73513 23.5604 8.67092 23.5424 8.60156C23.5604 8.66578 23.5681 8.73 23.5527 8.79935H23.5553Z" fill="#4A4D48"/>
<path d="M19.0574 9.10742C19.0446 9.13568 19.0318 9.1665 19.0241 9.19989H19.0215L19.06 9.10742H19.0574Z" fill="#585B57"/>
<path d="M33.6115 21.2955V37.5268L29.2012 38.6339V22.1458C30.7115 21.9505 32.1911 21.668 33.6115 21.293V21.2955Z" fill="#FEE16A"/>
<path d="M18.3256 22.0305V38.7576L14.3057 37.5863V21.1777C15.6003 21.5373 16.9488 21.8225 18.3256 22.0305Z" fill="#FEE16A"/>
<path d="M35.0726 20.8562C35.0726 20.8562 35.0674 20.8716 35.0674 20.8794C34.5897 21.0283 34.1042 21.1696 33.611 21.2955C32.1905 21.6705 30.711 21.953 29.2006 22.1483C28.8308 22.1971 28.4609 22.2382 28.0858 22.2741C27.9728 22.287 27.8547 22.2972 27.7391 22.3075C26.5626 22.4128 25.3733 22.4668 24.1841 22.4668C22.7097 22.4668 21.2404 22.3872 19.7891 22.2228C19.7043 22.2125 19.6221 22.2048 19.5374 22.1919C19.1315 22.1431 18.7282 22.0892 18.325 22.0275C16.9482 21.8195 15.5996 21.5344 14.305 21.1747C13.8375 21.0463 13.3803 20.905 12.9257 20.7586C12.9 20.7278 12.8717 20.697 12.8486 20.6662C12.8435 20.643 12.8435 20.6225 12.8409 20.5994C12.8024 20.2706 12.8589 19.8699 13.0002 19.4332C13.6706 17.3706 16.288 14.4603 20.3465 14.0416C20.6727 14.0082 21.0066 13.9902 21.3483 13.9902H21.4228C21.9853 13.9902 22.5247 13.9902 23.0307 14.0031C23.3621 14.0159 23.6806 14.0339 23.9914 14.0545C24.2971 14.0339 24.6182 14.0159 24.9495 14.0031C25.4812 13.9902 26.0412 13.9902 26.632 13.9902C26.7373 13.9902 26.8426 13.9902 26.9479 13.9954C27.436 14.0134 27.9035 14.0622 28.3504 14.1444H28.3555C32.2265 14.8456 34.6128 17.815 35.0572 19.7723C35.1522 20.191 35.1573 20.5634 35.0726 20.8562Z" fill="#4A4D48"/>
<path d="M28.4169 11.8376C28.0547 12.4695 27.505 13.3326 26.6882 14.3061C25.1521 14.8121 23.2205 14.8121 21.6819 14.3061C20.8676 13.3326 20.318 12.4695 19.9558 11.8376C19.5448 11.1184 19.3136 10.5764 19.4343 10.2656C19.8993 10.484 21.2041 10.9206 24.1863 10.9206C27.1685 10.9206 28.4734 10.484 28.9383 10.2656C29.0565 10.5764 28.8279 11.1184 28.4169 11.8376Z" fill="#4A4D48"/>
<path d="M28.9386 10.2653C28.4737 10.4836 27.1688 10.9203 24.1866 10.9203C21.2044 10.9203 19.8995 10.4836 19.4346 10.2653C19.4423 10.2345 19.4577 10.2088 19.4757 10.1831C19.4808 10.1754 19.486 10.1703 19.4911 10.1625C19.563 10.0701 19.6632 10.0264 19.7454 10.0059H19.748C20.3901 10.2319 21.7078 10.5324 24.1866 10.5324C26.6653 10.5324 27.9805 10.2319 28.6226 10.0059H28.6252C28.71 10.0264 28.8102 10.0701 28.8821 10.1625C28.8872 10.1703 28.8923 10.1754 28.8975 10.1831C28.9129 10.2062 28.9309 10.2345 28.9386 10.2653Z" fill="#585B57"/>
<path d="M28.6227 10.0066C27.9806 10.2326 26.6628 10.5331 24.1867 10.5331C21.7105 10.5331 20.3876 10.2326 19.748 10.0066C19.7558 9.97831 19.766 9.95262 19.7789 9.92694L19.8123 9.84731C19.8508 9.7497 19.8944 9.6598 19.9433 9.57503C20.8937 7.8489 23.4983 7.68194 24.1892 7.65625C24.8828 7.67937 27.4874 7.8489 28.4352 9.57503C28.484 9.66237 28.5277 9.7497 28.5662 9.84731C28.5868 9.89868 28.6073 9.95005 28.6253 10.004L28.6227 10.0066Z" fill="#4A4D48"/>
<path d="M29.3522 9.19995H29.3496C29.3265 9.13574 29.306 9.07666 29.2803 9.01758L29.3522 9.19995Z" fill="#585B57"/>
<path d="M27.739 31.6602H19.7891V38.8549H27.739V31.6602Z" fill="#F6C82F"/>
<path d="M33.6112 30.335V37.5272L29.1982 38.6368V31.442L33.6112 30.335Z" fill="#F6C82F"/>
<path d="M18.3256 31.5629V38.7551L14.3057 37.5864V30.3916L18.3256 31.5629Z" fill="#F6C82F"/>
<path d="M35.3709 19.808C32.6712 20.7019 28.4843 21.732 23.3162 21.5984C18.9109 21.4854 15.3097 20.5684 12.8232 19.7207" stroke="#4A4D48" stroke-width="4" stroke-miterlimit="10" stroke-linecap="round"/>
<path d="M34.9961 19.8164C34.9627 20.1349 34.8523 20.4739 34.3925 20.5458C33.8993 20.6255 33.3907 19.1202 31.7519 19.1639C30.6782 19.1922 30.781 20.4534 29.7175 20.5099C27.8861 20.6101 26.9716 18.5269 26.0675 19.0869C25.582 19.39 25.9005 20.8412 24.5083 20.646C23.694 20.533 23.0005 20.9209 21.4696 20.1195C20.9096 19.8266 20.0363 19.5826 19.7563 19.5723C17.9249 19.5055 17.966 20.2145 17.0233 19.7984C16.3862 19.5158 16.1756 20.1708 15.292 19.9268C14.8938 19.8164 14.6575 19.4747 14.4007 19.3257C13.8253 18.9918 13.2114 19.8549 12.9442 19.3437C11.9322 17.4249 16.8923 14.2552 17.5961 13.9675C20.3471 12.8476 19.818 14.7664 23.5656 14.9025C28.8724 15.0952 26.3166 13.2586 31.2844 14.6816C32.1783 14.9359 33.4164 15.7039 34.467 16.996C35.1605 17.8411 35.8438 19.3052 34.9961 19.8138V19.8164Z" fill="white"/>
</svg>
