<svg width="48" height="48" viewBox="0 0 48 48" fill="none" xmlns="http://www.w3.org/2000/svg">
<path d="M38.1274 35.685C36.1586 37.8445 33.6111 39.5299 30.6233 40.4764C21.567 43.3444 11.9 38.327 9.03195 29.2707C6.1639 20.2145 11.1796 10.5492 20.2376 7.68112C24.187 6.43099 28.2512 6.679 31.8194 8.10796C18.2299 8.31715 12.0906 19.6257 14.5892 27.5111C16.9275 34.8972 27.1951 38.3321 38.1274 35.685Z" fill="#FEE16A"/>
<path d="M36.3052 35.1625C37.5941 34.7542 38.7801 34.1772 39.848 33.4602C39.3385 34.2447 38.7632 34.9904 38.1272 35.6855C27.1949 38.3325 16.9273 34.8976 14.589 27.5116C12.0921 19.6261 18.2314 8.31591 31.8192 8.1084C30.5336 8.13708 29.2312 8.34628 27.9423 8.75455C20.6507 11.0642 16.6101 18.8484 18.9198 26.14C21.2294 33.4315 29.0136 37.4721 36.3052 35.1625Z" fill="#FEE16A"/>
<path d="M36.305 35.1625C37.5939 34.7542 38.7799 34.1772 39.8478 33.4602C37.7036 34.9195 35.5508 35.8947 33.4487 36.4582C24.7282 38.8015 16.9389 34.0946 14.7221 27.9063C14.717 27.8945 14.712 27.881 14.7086 27.8692C14.6917 27.822 14.6749 27.7731 14.658 27.7258C14.6344 27.655 14.6107 27.5841 14.5888 27.5132C14.5669 27.4424 14.5449 27.3715 14.523 27.299C12.6487 20.9404 16.2978 12.4746 24.8615 9.33997C26.9045 8.59259 29.226 8.14889 31.819 8.1084C30.5335 8.13708 29.231 8.34628 27.9421 8.75455C26.0053 9.36865 24.298 10.3674 22.8792 11.6412C22.7948 11.7154 22.7121 11.7913 22.6312 11.8689C22.5502 11.9448 22.4675 12.0224 22.3899 12.1017C22.3494 12.1422 22.3106 12.181 22.2718 12.2198C22.1537 12.3396 22.039 12.4611 21.9259 12.5842C21.8112 12.7074 21.7016 12.8322 21.5936 12.9605C21.4856 13.087 21.3793 13.2169 21.2764 13.3468C21.2427 13.3907 21.2072 13.4345 21.1735 13.4784C21.0368 13.6538 20.9053 13.8327 20.7787 14.0149C20.7467 14.0604 20.7163 14.106 20.6843 14.1515C20.3721 14.6104 20.087 15.0879 19.8323 15.5788C18.1992 18.7252 17.7673 22.4942 18.9212 26.14C20.0769 29.7857 22.5991 32.6184 25.7455 34.2515C25.8687 34.3156 25.9918 34.378 26.1167 34.437C26.4912 34.6176 26.8742 34.7812 27.2639 34.928C27.3162 34.9465 27.3668 34.9651 27.4191 34.9853C27.6283 35.0613 27.8375 35.1321 28.0501 35.1962C28.1041 35.2131 28.1563 35.2283 28.2103 35.2451C28.3706 35.2924 28.5309 35.3363 28.6928 35.3784C28.8548 35.4206 29.0168 35.4577 29.1804 35.4948C29.3441 35.5303 29.5077 35.5623 29.673 35.5927C29.727 35.6028 29.7827 35.6112 29.8384 35.6214C29.948 35.6399 30.0594 35.6568 30.1707 35.672C30.2821 35.6889 30.3917 35.7024 30.5048 35.7158C32.3994 35.9402 34.3699 35.7749 36.3067 35.1608L36.305 35.1625Z" fill="#EACC78"/>
<path d="M15.2359 14.0889C15.7787 14.0889 16.2188 13.6488 16.2188 13.106C16.2188 12.5631 15.7787 12.123 15.2359 12.123C14.693 12.123 14.2529 12.5631 14.2529 13.106C14.2529 13.6488 14.693 14.0889 15.2359 14.0889Z" fill="#F6C82F"/>
<path d="M19.0856 38.1712C19.5832 38.1712 19.9866 37.7678 19.9866 37.2702C19.9866 36.7725 19.5832 36.3691 19.0856 36.3691C18.588 36.3691 18.1846 36.7725 18.1846 37.2702C18.1846 37.7678 18.588 38.1712 19.0856 38.1712Z" fill="#F6C82F"/>
<path d="M21.6245 38.1707C21.8055 38.1707 21.9522 37.9873 21.9522 37.7611C21.9522 37.5349 21.8055 37.3516 21.6245 37.3516C21.4436 37.3516 21.2969 37.5349 21.2969 37.7611C21.2969 37.9873 21.4436 38.1707 21.6245 38.1707Z" fill="#F6C82F"/>
<path d="M22.8532 39.6458C22.9889 39.6458 23.0989 39.5357 23.0989 39.4C23.0989 39.2643 22.9889 39.1543 22.8532 39.1543C22.7174 39.1543 22.6074 39.2643 22.6074 39.4C22.6074 39.5357 22.7174 39.6458 22.8532 39.6458Z" fill="#F6C82F"/>
<path d="M12.8598 15.2361C13.086 15.2361 13.2693 15.0527 13.2693 14.8265C13.2693 14.6004 13.086 14.417 12.8598 14.417C12.6336 14.417 12.4502 14.6004 12.4502 14.8265C12.4502 15.0527 12.6336 15.2361 12.8598 15.2361Z" fill="#F6C82F"/>
</svg>
