<svg width="54" height="54" viewBox="0 0 54 54" fill="none" xmlns="http://www.w3.org/2000/svg">
<path d="M42.8933 40.1453C40.6784 42.5747 37.8125 44.4708 34.4512 45.5355C24.2629 48.7621 13.3875 43.1175 10.1609 32.9292C6.93439 22.7409 12.5771 11.8674 22.7673 8.6409C27.2104 7.2345 31.7826 7.5135 35.7968 9.12108C20.5087 9.35643 13.602 22.0785 16.4129 30.9496C19.0434 39.2589 30.5945 43.1232 42.8933 40.1453Z" fill="#FEE16A"/>
<path d="M40.8435 39.5569C42.2936 39.0976 43.6279 38.4485 44.8293 37.6419C44.2561 38.5244 43.6089 39.3633 42.8934 40.1453C30.5945 43.1232 19.0435 39.259 16.4129 30.9496C13.6039 22.0785 20.5106 9.35454 35.7969 9.12109C34.3506 9.15336 32.8854 9.38871 31.4353 9.84802C23.2323 12.4463 18.6866 21.2036 21.285 29.4066C23.8833 37.6096 32.6405 42.1553 40.8435 39.5569Z" fill="#FEE16A"/>
<path d="M40.8436 39.5569C42.2936 39.0976 43.6279 38.4485 44.8293 37.6419C42.417 39.2836 39.9952 40.3807 37.6303 41.0146C27.8197 43.6509 19.0568 38.3555 16.5628 31.3938C16.5571 31.3805 16.5515 31.3653 16.5477 31.352C16.5287 31.2989 16.5097 31.2438 16.4907 31.1907C16.4641 31.111 16.4376 31.0313 16.4129 30.9515C16.3882 30.8718 16.3636 30.7921 16.3389 30.7105C14.2302 23.5571 18.3356 14.033 27.9696 10.5066C30.2681 9.66581 32.8797 9.16665 35.7969 9.12109C34.3506 9.15336 32.8854 9.38871 31.4353 9.84802C29.2565 10.5389 27.3357 11.6625 25.7395 13.0954C25.6446 13.179 25.5516 13.2644 25.4605 13.3517C25.3694 13.4371 25.2764 13.5244 25.1891 13.6136C25.1436 13.6591 25.0999 13.7028 25.0563 13.7464C24.9234 13.8812 24.7943 14.0179 24.6672 14.1564C24.5381 14.295 24.4148 14.4354 24.2933 14.5797C24.1718 14.722 24.0522 14.8681 23.9365 15.0143C23.8985 15.0636 23.8586 15.113 23.8207 15.1623C23.6669 15.3597 23.5189 15.5609 23.3766 15.7659C23.3405 15.8171 23.3063 15.8684 23.2703 15.9196C22.9191 16.4359 22.5984 16.973 22.3118 17.5253C20.4746 21.065 19.9887 25.3051 21.2869 29.4066C22.587 33.5081 25.4245 36.6948 28.9642 38.532C29.1027 38.6042 29.2413 38.6744 29.3817 38.7408C29.8031 38.9439 30.2339 39.128 30.6724 39.2931C30.7312 39.314 30.7881 39.3349 30.847 39.3577C31.0823 39.4431 31.3177 39.5228 31.5568 39.5949C31.6176 39.6139 31.6764 39.631 31.7371 39.6499C31.9174 39.7031 32.0977 39.7524 32.2799 39.7999C32.4621 39.8473 32.6443 39.8891 32.8284 39.9308C33.0126 39.9707 33.1967 40.0068 33.3827 40.0409C33.4434 40.0523 33.506 40.0618 33.5687 40.0732C33.692 40.0941 33.8173 40.113 33.9426 40.1301C34.0678 40.1491 34.1912 40.1643 34.3183 40.1795C36.4498 40.4319 38.6666 40.2459 40.8455 39.555L40.8436 39.5569Z" fill="#EACC78"/>
<path d="M17.1399 15.8498C17.7506 15.8498 18.2457 15.3547 18.2457 14.744C18.2457 14.1333 17.7506 13.6382 17.1399 13.6382C16.5292 13.6382 16.0341 14.1333 16.0341 14.744C16.0341 15.3547 16.5292 15.8498 17.1399 15.8498Z" fill="#F6C82F"/>
<path d="M21.4709 42.9419C22.0307 42.9419 22.4846 42.488 22.4846 41.9282C22.4846 41.3684 22.0307 40.9146 21.4709 40.9146C20.9111 40.9146 20.4573 41.3684 20.4573 41.9282C20.4573 42.488 20.9111 42.9419 21.4709 42.9419Z" fill="#F6C82F"/>
<path d="M24.3276 42.942C24.5312 42.942 24.6962 42.7357 24.6962 42.4813C24.6962 42.2268 24.5312 42.0205 24.3276 42.0205C24.124 42.0205 23.959 42.2268 23.959 42.4813C23.959 42.7357 24.124 42.942 24.3276 42.942Z" fill="#F6C82F"/>
<path d="M25.7098 44.6005C25.8625 44.6005 25.9863 44.4767 25.9863 44.3241C25.9863 44.1714 25.8625 44.0476 25.7098 44.0476C25.5571 44.0476 25.4333 44.1714 25.4333 44.3241C25.4333 44.4767 25.5571 44.6005 25.7098 44.6005Z" fill="#F6C82F"/>
<path d="M14.4676 17.1398C14.7221 17.1398 14.9283 16.9335 14.9283 16.679C14.9283 16.4245 14.7221 16.2183 14.4676 16.2183C14.2131 16.2183 14.0068 16.4245 14.0068 16.679C14.0068 16.9335 14.2131 17.1398 14.4676 17.1398Z" fill="#F6C82F"/>
</svg>
