<svg width="54" height="54" viewBox="0 0 54 54" fill="none" xmlns="http://www.w3.org/2000/svg">
<path d="M34.9846 20.2495C34.9846 20.2495 37.0351 18.9674 36.7498 18.7037C35.5961 17.6391 32.1598 15.7778 30.2719 16.6451L34.9831 20.247L34.9846 20.2495Z" fill="#AD6042"/>
<path d="M29.7715 16.0634C29.7715 16.0634 29.1451 12.9189 27.3156 11.4795C26.2583 10.6474 25.3539 11.1735 24.9194 11.7867C24.4849 12.3999 26.4805 14.5961 26.4805 14.5961L29.7715 16.0634Z" fill="#AD6042"/>
<path d="M32.7482 25.5863C31.8846 26.5924 30.7046 27.7549 30.0871 28.3148C29.6055 28.7518 29.4564 29.0519 28.9757 28.6131C28.2204 27.9265 26.9189 26.7254 25.5069 25.4883C25.3507 23.7505 25.5199 21.6543 25.6288 19.7593C25.6408 19.5064 25.6563 19.2566 25.6661 19.0117C28.4284 21.308 32.144 24.1438 33.2994 23.8335C34.2603 23.5766 33.6938 24.4902 32.7502 25.5868L32.7482 25.5863Z" fill="#F9E6B5"/>
<path d="M33.9463 25.1325C33.5649 25.4758 33.1459 25.7187 32.7482 25.5863C32.6433 25.5538 32.5393 25.4937 32.4399 25.4004C31.0194 24.1072 27.8958 21.3267 25.6268 19.7588C25.6388 19.5059 25.6543 19.256 25.6642 19.0112C25.7483 17.2086 25.7267 15.6725 25.2306 14.9391C25.2046 14.8998 25.1767 14.8601 25.1457 14.8238C25.796 14.1414 26.3456 13.643 26.3456 13.643C26.3456 13.643 35.6264 19.7026 36.4495 21.5051C36.7901 22.2506 35.2381 23.9612 33.9469 25.1305L33.9463 25.1325Z" fill="#F9DB9E"/>
<path d="M31.8218 17.2067L28.1334 21.6723L24.6445 19.1749C24.6445 19.1749 27.3077 14.878 28.1736 14.7355C29.0396 14.593 31.8204 17.2042 31.8204 17.2042L31.8218 17.2067Z" fill="#AD6042"/>
<path d="M30.0731 36.5544C30.0731 36.5544 31.9491 41.4779 33.9672 42.4857C35.1244 43.0648 36.7249 42.6779 36.7249 42.6779C36.7249 42.6779 34.3439 41.2156 32.9057 36.7473L30.0725 36.5564L30.0731 36.5544Z" fill="#616672"/>
<path d="M17.6024 33.7401C17.6024 33.7401 13.5068 37.0204 12.1237 36.9641L10.1307 36.1266C10.1307 36.1266 13.5303 34.9239 15.5173 31.7178" fill="#616672"/>
<path d="M8.41929 12.7096C9.14723 12.1857 11.4192 11.2858 13.4307 11.3577C16.1534 11.4566 23.7834 12.793 25.2325 14.9397C26.6797 17.0859 24.0965 26.0704 26.584 28.5836C29.6952 31.7223 36.7729 34.3355 37.2962 31.0859C37.7246 28.4307 37.1523 27.5413 38.2809 26.1627C39.977 24.0904 44.2891 24.9961 43.6931 28.349C43.3583 30.2308 41.2079 30.0528 41.1815 29.2149C41.1815 29.2149 40.1457 30.4633 41.2489 33.3331C42.0023 35.2912 41.1719 40.047 31.4645 37.9882C21.8407 35.9455 11.621 34.4382 9.91257 28.137C9.09877 25.1317 12.5555 19.1857 11.9119 14.5451C11.9119 14.5451 10.9839 16.6876 9.19024 16.2909C7.16576 15.8432 7.1349 13.6374 8.41929 12.7096Z" fill="#A58C77"/>
<path d="M8.40925 10.4663C8.30524 10.5503 7.37915 11.3095 7.17958 12.5344C7.15186 12.71 6.97374 13.8869 7.55303 14.238C7.93145 14.4664 8.45271 14.2337 8.89649 14.034C10.2298 13.4357 10.5408 12.4752 11.2235 12.5763C11.6175 12.6345 11.552 12.9592 12.0575 13.1614C12.8515 13.4796 13.396 12.8399 14.4397 12.8505C15.1969 12.8575 15.4034 13.1991 16.2852 13.5258C17.7132 14.0548 18.2676 13.5706 19.7873 13.741C22.4271 14.0373 22.7676 15.7277 24.8864 15.5593C25.6338 15.4991 26.9999 15.1786 27.2292 14.3791C27.655 12.8941 24.1939 9.64435 21.3942 9.92082C20.6934 9.99131 19.9534 10.2881 18.9005 9.9758C18.0861 9.7339 17.7876 9.33538 16.9382 9.22401C16.1279 9.11881 15.5499 8.35483 13.2776 8.42393C10.0146 8.52461 10.2114 9.02286 8.40525 10.4652L8.40925 10.4663Z" fill="white"/>
<path d="M26.0288 25.6777C25.755 25.6431 25.6233 25.158 25.4971 25.3889C25.3049 25.7463 25.7515 26.8087 25.9741 27.6346C26.357 29.0544 26.0757 29.3922 26.6337 30.3187C27.3519 31.512 28.5233 30.8617 31.0477 32.4291C31.5607 32.7474 31.9703 33.0594 32.6098 33.0737C33.3729 33.0909 33.7558 32.6705 34.3926 32.8949C34.8766 33.0655 34.8504 33.3792 35.296 33.477C35.8552 33.5989 36.4708 33.2301 36.8077 32.7973C37.3379 32.1151 37.157 31.3176 37.1363 31.2346C37.0735 30.981 36.8793 30.505 36.013 29.9608C34.579 29.0621 33.584 29.4218 31.6773 28.8227C30.7657 28.5354 30.8727 28.3682 29.6088 27.8832C28.232 27.355 27.9901 27.4495 27.4756 27.0167C26.7615 26.4164 26.6651 25.76 26.0322 25.6808L26.0288 25.6777Z" fill="white"/>
<path d="M37.5337 25.9582C37.4532 26.2745 37.4111 26.8078 37.6179 26.9084C37.8611 27.0252 38.4029 26.5075 38.7347 26.1896C38.9546 25.9774 39.037 25.8617 39.2485 25.7849C39.5595 25.6724 39.6584 25.8237 39.9832 25.7321C40.41 25.6119 40.5403 25.2615 40.7662 25.3307C40.9047 25.3742 40.8841 25.5151 41.0572 25.5894C41.2552 25.6748 41.4192 25.5508 41.6125 25.5338C41.9175 25.5079 42.105 25.7604 42.4798 26.0825C42.71 26.2798 43.5337 26.9912 43.7866 26.8395C43.9984 26.7133 43.8951 26.0184 43.6468 25.5128C43.2752 24.7546 43.0721 24.4721 42.204 24.0866C41.6559 23.8429 40.8075 23.6802 40.5379 23.6617C39.2594 23.5753 38.3053 24.7509 37.9062 25.2402C37.8096 25.3606 37.6254 25.5997 37.5347 25.9542L37.5337 25.9582Z" fill="white"/>
<path d="M4.01668 30.7972C4.01668 30.7972 7.70958 37.3913 24.7062 41.1621C41.7028 44.9329 45.9162 43.0056 47.8119 40.6768C49.7075 38.348 49.2432 34.8789 46.5461 34.9806C43.849 35.0822 43.6526 38.1203 45.773 38.4819" stroke="#616672" stroke-width="2" stroke-miterlimit="10" stroke-linecap="round"/>
<path d="M49.9731 37.3968C50.0597 37.4179 50.2139 36.7382 50.1572 36.0536C50.1004 35.369 49.636 34.8055 49.3171 34.563C49.0875 34.3874 48.9963 33.7754 48.299 33.4486C46.8556 32.7691 46.8186 33.1553 46.2354 33.0829C45.4406 32.984 44.8416 33.3465 44.6806 33.4433C44.2198 33.7223 44.0549 34.0655 43.8751 34.4327C43.8375 34.5088 43.458 35.3089 43.7168 35.4557C43.8471 35.5294 44.0034 35.3625 44.5841 35.2598C45.0273 35.1827 45.0606 35.2583 45.3404 35.1827C45.9161 35.027 45.9391 34.6608 46.2621 34.6957C46.5852 34.7306 46.6334 35.103 47.0883 35.2141C47.398 35.2906 47.5145 35.1518 47.8026 35.2053C48.1808 35.2744 48.1499 35.5739 48.6924 35.9581C49.1445 36.2795 49.3779 36.2408 49.5242 36.4953C49.628 36.6759 49.7051 37.0366 49.7079 37.0503C49.7417 37.2121 49.9491 37.3904 49.9736 37.3948L49.9731 37.3968Z" fill="white"/>
</svg>
