<svg width="48" height="48" viewBox="0 0 48 48" fill="none" xmlns="http://www.w3.org/2000/svg">
<path d="M25.3136 8.0642C27.334 8.44932 28.9247 8.75072 29.7201 7.66513C30.3229 6.84466 30.4652 5.59999 30.4485 5.51906C30.1024 3.73858 28.2215 2.45764 27.3452 2.18415C26.3126 1.86043 23.8093 1.99438 22.5814 3.33114C21.8893 4.08463 21.4372 5.45208 21.8475 6.46791C22.2605 7.48652 23.3573 7.69582 25.3136 8.06978V8.0642Z" fill="#FEFEFD"/>
<path d="M9.869 18.0217C10.3434 16.5454 11.3844 13.9891 13.6588 11.5165C14.1249 11.0114 14.5909 8.58349 18.3054 7.02068C20.0607 6.28114 23.0719 5.83741 24.8217 5.88765C27.4199 5.96021 31.059 6.8951 33.3167 8.55558C35.7781 10.364 37.0953 13.0793 36.6851 15.471C36.4367 16.911 34.9911 17.7733 34.3325 18.164C28.1566 21.8422 13.2207 18.7529 9.86621 18.0245L9.869 18.0217Z" fill="#AD4D43"/>
<path d="M36.3312 21.9062C37.3023 21.4429 38.6837 22.216 39.3842 23.3434C40.28 24.7862 40.1684 27.0021 38.9489 28.1574C38.12 28.9416 36.8056 29.2123 35.9516 28.5956C34.2381 27.3565 34.6204 22.7239 36.334 21.909L36.3312 21.9062Z" fill="#FFE3CF"/>
<path d="M11.6106 21.9062C10.6395 21.4429 9.25805 22.216 8.56037 23.3434C7.66734 24.7862 7.77617 26.9993 8.99572 28.1546C9.82456 28.9388 11.139 29.2095 11.993 28.5928C13.7065 27.3537 13.3241 22.7239 11.6106 21.9062Z" fill="#FFE3CF"/>
<path d="M34.5783 18.9457C36.2137 21.1615 37.4361 25.0713 36.2472 28.8165C36.0853 29.3272 35.4407 31.2081 33.8472 32.8184C29.5439 37.1635 19.2015 38.6538 14.0386 32.4193C10.9967 28.7467 10.1567 22.8834 12.7047 18.8787C17.1029 11.9633 30.1271 12.9066 34.5811 18.9457H34.5783Z" fill="#FFF3EB"/>
<path d="M21.7552 22.9137C21.2305 22.657 20.5942 22.9891 20.2761 23.5193C19.8268 24.2728 19.9496 25.5342 20.6333 25.9584C21.1886 26.3044 21.9282 25.9779 22.2687 25.364C22.7207 24.5519 22.464 23.257 21.7579 22.9109L21.7552 22.9137Z" fill="#4A4A4A"/>
<path d="M26.7219 22.8044C27.2829 22.8798 27.7154 23.5384 27.7852 24.1914C27.8857 25.1124 27.2801 26.1533 26.5154 26.1338C25.8903 26.117 25.3684 25.4054 25.3098 24.6714C25.2289 23.6947 25.9656 22.704 26.7219 22.8072V22.8044Z" fill="#4A4A4A"/>
<path d="M32.6168 25.8995C31.8661 25.0594 30.0605 25.4194 29.1814 26.4325C28.6261 27.0716 28.2577 28.1851 28.7154 28.8353C29.3656 29.7618 31.6149 29.6279 32.5191 28.3692C33.0187 27.6716 33.1777 26.5274 32.6196 25.9022L32.6168 25.8995Z" fill="#F1C6B2"/>
<path d="M24.5874 25.9749C24.1855 25.5229 23.2144 25.7182 22.7427 26.2624C22.4441 26.6057 22.246 27.2029 22.4916 27.5517C22.8404 28.0485 24.0488 27.9787 24.5344 27.3005C24.8023 26.9266 24.8888 26.3098 24.5874 25.9749Z" fill="#EDD4A5"/>
<path d="M14.9537 25.8995C15.7044 25.0594 17.51 25.4194 18.3891 26.4325C18.9444 27.0716 19.3128 28.1851 18.8551 28.8353C18.2049 29.7618 15.9556 29.6279 15.0514 28.3692C14.5518 27.6716 14.3928 26.5274 14.9509 25.9022L14.9537 25.8995Z" fill="#F1C6B2"/>
<path d="M10.2878 15.6356C11.351 14.6393 18.3809 13.6486 24.1605 13.6514C28.2656 13.6514 37.3745 14.5667 37.8936 16.8579C37.9801 17.2375 38.1727 18.577 38.1196 19.0598C37.9438 20.6812 36.9755 21.6245 36.7215 21.7696C35.5634 22.4198 29.181 19.3137 21.459 20.0896C11.4348 21.0942 11.7027 22.9389 10.1343 20.1621C9.26079 18.6133 9.42264 16.4449 10.2878 15.6356Z" fill="#FEFEFD"/>
<path d="M38.0224 41.3605C38.0057 42.8507 37.6763 43.9949 36.8001 44.8935C35.2373 46.4982 31.8605 46.5093 30.4986 45.0917C30.1386 44.7205 29.9768 44.3075 29.9349 43.7689C29.8512 42.6861 30.2474 41.087 30.4484 38.2348C30.4484 38.2097 30.454 38.1818 30.454 38.1567C30.4707 37.953 30.4791 37.7604 30.4902 37.5818C30.4233 37.5874 30.3479 37.5874 30.2809 37.5874C29.7312 37.6069 29.1563 37.6181 28.5618 37.6069C27.0465 37.5902 25.3804 37.5037 23.5804 37.3865C22.1432 37.2972 20.6222 37.1883 19.0232 37.099C18.5627 37.0739 18.0939 37.046 17.6166 37.0209C16.5394 36.9679 15.6045 36.8953 14.7952 36.806C12.0464 36.4879 10.704 35.913 10.1598 34.7688C9.27795 32.9074 10.5673 29.6952 11.9096 29.5166C12.5431 29.4329 13.065 30.0385 13.4138 30.3622C13.6538 30.5911 14.1199 30.8785 14.9096 31.1464C15.8613 31.4646 17.2706 31.752 19.3106 31.8525C20.4855 31.9111 21.8669 31.9055 23.4911 31.805C24.4567 31.752 25.5144 31.6599 26.6642 31.5343C27.2195 31.4729 27.7302 31.3976 28.2158 31.3139C29.8679 31.0432 31.1433 30.6664 32.1451 30.2729C35.2596 29.0562 35.7619 27.6971 36.8224 28.7324C37.894 29.7734 38.4522 32.7929 37.6233 34.3864C37.5201 34.5846 37.4029 34.7744 37.2773 34.9502C37.2829 34.9753 37.2829 34.9976 37.2884 35.0227C37.6791 37.646 38.0419 39.7167 38.0252 41.3577L38.0224 41.3605Z" fill="#4F5546"/>
<path d="M23.5771 37.3224C23.5157 37.3224 23.4599 37.2777 23.4515 37.2135C23.2255 35.5168 23.1948 33.7726 23.3622 32.0339C23.3678 31.9642 23.4236 31.9167 23.499 31.9223C23.5687 31.9279 23.6189 31.9893 23.6106 32.0591C23.4459 33.7781 23.4738 35.5028 23.6999 37.18C23.7083 37.2498 23.6608 37.3112 23.591 37.3224C23.5855 37.3224 23.5799 37.3224 23.5743 37.3224H23.5771Z" fill="white"/>
<path d="M28.5586 37.5259C28.4889 37.5259 28.433 37.4701 28.433 37.4003C28.4163 35.4608 28.3019 33.5101 28.0898 31.6068C28.0814 31.537 28.1316 31.4756 28.2014 31.4672C28.2684 31.4617 28.3326 31.5091 28.341 31.5789C28.5558 33.4905 28.6703 35.4496 28.687 37.3975C28.687 37.4673 28.6312 37.5231 28.5614 37.5231L28.5586 37.5259Z" fill="white"/>
<path d="M33.7217 36.251C33.652 36.251 33.5961 36.1952 33.5961 36.1254C33.5794 34.1858 33.465 32.2351 33.2529 30.3319C33.2445 30.2621 33.2947 30.2007 33.3645 30.1923C33.4343 30.1839 33.4957 30.2342 33.504 30.3039C33.7189 32.2156 33.8333 34.1747 33.8501 36.1226C33.8501 36.1924 33.7943 36.2482 33.7245 36.2482L33.7217 36.251Z" fill="white"/>
<path d="M19.0197 37.0568C18.9528 37.0568 18.897 37.0037 18.8942 36.9367C18.8383 35.307 18.936 33.6688 19.1816 32.0725C19.1928 32.0028 19.2514 31.9553 19.3239 31.9665C19.3937 31.9776 19.4383 32.0418 19.43 32.1088C19.1844 33.6911 19.0867 35.3125 19.1425 36.9256C19.1425 36.9954 19.0895 37.054 19.0225 37.0568C19.0225 37.0568 19.0197 37.0568 19.017 37.0568H19.0197Z" fill="white"/>
<path d="M14.7916 36.789C14.7442 36.789 14.6995 36.7611 14.6772 36.7164C14.4902 36.3229 14.3479 35.9127 14.2558 35.4941C13.8679 33.7806 14.334 32.3155 14.7944 31.3834C14.8251 31.322 14.9005 31.2969 14.9619 31.3276C15.0233 31.3583 15.0484 31.4336 15.0177 31.495C14.5768 32.388 14.1274 33.7973 14.5014 35.4383C14.5907 35.8402 14.7274 36.2336 14.9061 36.6076C14.9368 36.669 14.9089 36.7443 14.8475 36.775C14.8307 36.7834 14.8112 36.7862 14.7944 36.7862L14.7916 36.789Z" fill="white"/>
<path d="M30.7135 38.0283C30.6549 38.0283 30.6047 37.9864 30.5935 37.9278C30.5823 37.8609 30.627 37.7995 30.694 37.7883C32.921 37.4199 35.0308 36.4571 36.9647 34.925C37.0178 34.8832 37.0931 34.8915 37.135 34.9446C37.1768 34.9976 37.1684 35.0729 37.1154 35.1148C35.148 36.672 33.0019 37.6516 30.7358 38.0283C30.7303 38.0283 30.7219 38.0283 30.7163 38.0283H30.7135Z" fill="white"/>
<path d="M30.6127 43.9087C30.4787 43.9087 30.3503 43.9031 30.2247 43.8948C30.155 43.8892 30.1047 43.8306 30.1075 43.7608C30.1131 43.691 30.1661 43.6352 30.2415 43.6436C32.1001 43.772 34.8071 42.9013 37.6564 41.2519C37.715 41.2157 37.7932 41.238 37.8295 41.2966C37.8629 41.3552 37.8434 41.4333 37.7848 41.4668C35.0862 43.0324 32.502 43.9059 30.6154 43.9059L30.6127 43.9087Z" fill="white"/>
</svg>
