<svg width="48" height="48" viewBox="0 0 48 48" fill="none" xmlns="http://www.w3.org/2000/svg">
<g clip-path="url(#clip0_2470_56853)">
<path d="M31.9848 17.2493C31.9848 17.2493 34.0354 15.9671 33.75 15.7034C32.5964 14.6388 29.16 12.7775 27.2721 13.6448L31.9834 17.2467L31.9848 17.2493Z" fill="#B64B4C"/>
<path d="M26.7722 13.0628C26.7722 13.0628 26.1458 9.91831 24.3163 8.47893C23.259 7.6468 22.3547 8.17284 21.9202 8.78604C21.4856 9.39924 23.4812 11.5955 23.4812 11.5955L26.7722 13.0628Z" fill="#B64B4C"/>
<path d="M29.7491 22.5863C28.8855 23.5924 27.7055 24.7549 27.088 25.3148C26.6063 25.7518 26.4573 26.0519 25.9765 25.6131C25.2212 24.9265 23.9197 23.7254 22.5078 22.4883C22.3515 20.7505 22.5208 18.6543 22.6297 16.7593C22.6417 16.5064 22.6571 16.2566 22.667 16.0117C25.4292 18.308 29.1448 21.1438 30.3002 20.8335C31.2611 20.5766 30.6947 21.4902 29.7511 22.5868L29.7491 22.5863Z" fill="#EAD5A6"/>
<path d="M30.9466 22.1322C30.5651 22.4755 30.1462 22.7184 29.7485 22.586C29.6435 22.5536 29.5395 22.4935 29.4402 22.4001C28.0197 21.1069 24.8961 18.3264 22.6271 16.7585C22.6391 16.5056 22.6546 16.2558 22.6644 16.0109C22.7485 14.2083 22.727 12.6723 22.2308 11.9388C22.2049 11.8996 22.1769 11.8598 22.1459 11.8235C22.7962 11.1412 23.3458 10.6428 23.3458 10.6428C23.3458 10.6428 32.6267 16.7024 33.4497 18.5048C33.7903 19.2504 32.2383 20.961 30.9471 22.1302L30.9466 22.1322Z" fill="#EACB8C"/>
<path d="M28.8226 14.206L25.1341 18.6716L21.6452 16.1742C21.6452 16.1742 24.3084 11.8772 25.1744 11.7348C26.0403 11.5923 28.8211 14.2034 28.8211 14.2034L28.8226 14.206Z" fill="#B64B4C"/>
<path d="M27.0733 33.5535C27.0733 33.5535 28.9493 38.477 30.9674 39.4848C32.1246 40.0639 33.7251 39.677 33.7251 39.677C33.7251 39.677 31.3442 38.2147 29.9059 33.7465L27.0728 33.5555L27.0733 33.5535Z" fill="#616672"/>
<path d="M14.6024 30.7396C14.6024 30.7396 10.5068 34.0199 9.12369 33.9636L7.13073 33.1261C7.13073 33.1261 10.5303 31.9234 12.5173 28.7173" fill="#616672"/>
<path d="M5.41941 9.70932C6.14735 9.1855 8.4193 8.28551 10.4308 8.35745C13.1535 8.45637 20.7835 9.79272 22.2327 11.9394C23.6798 14.0856 21.0966 23.0702 23.5841 25.5833C26.6953 28.7221 33.773 31.3353 34.2964 28.0856C34.7247 25.4304 34.1525 24.541 35.281 23.1625C36.9771 21.0901 41.2892 21.9959 40.6932 25.3487C40.3584 27.2305 38.208 27.0525 38.1816 26.2147C38.1816 26.2147 37.1459 27.4631 38.249 30.3328C39.0024 32.291 38.172 37.0467 28.4646 34.988C18.8408 32.9452 8.62109 31.438 6.91269 25.1367C6.09889 22.1315 9.55565 16.1854 8.91199 11.5448C8.91199 11.5448 7.98406 13.6874 6.19036 13.2907C4.16588 12.8429 4.13502 10.6372 5.41941 9.70932Z" fill="#BB7861"/>
<path d="M5.40998 7.46592C5.30597 7.54997 4.37988 8.3091 4.18032 9.53408C4.15259 9.7096 3.97448 10.8865 4.55376 11.2376C4.93218 11.466 5.45344 11.2333 5.89722 11.0337C7.23056 10.4353 7.54155 9.4748 8.22426 9.57595C8.61825 9.63416 8.5527 9.95882 9.05823 10.161C9.8522 10.4792 10.3967 9.83952 11.4404 9.85013C12.1976 9.85717 12.4042 10.1988 13.2859 10.5254C14.7139 11.0544 15.2683 10.5702 16.7881 10.7407C19.4279 11.0369 19.7684 12.7273 21.8872 12.5589C22.6345 12.4988 24.0007 12.1782 24.2299 11.3787C24.6557 9.89369 21.1947 6.64398 18.395 6.92045C17.6942 6.99094 16.9541 7.28769 15.9013 6.97543C15.0868 6.73354 14.7883 6.33501 13.9389 6.22364C13.1287 6.11844 12.5506 5.35447 10.2783 5.42357C7.01534 5.52425 7.21209 6.02249 5.40598 7.46485L5.40998 7.46592Z" fill="white"/>
<path d="M23.0295 22.6769C22.7557 22.6423 22.6241 22.1572 22.4979 22.3881C22.3056 22.7455 22.7522 23.8079 22.9748 24.6337C23.3578 26.0535 23.0764 26.3914 23.6345 27.3179C24.3526 28.5111 25.5241 27.8608 28.0484 29.4282C28.5614 29.7465 28.971 30.0586 29.6106 30.0728C30.3737 30.09 30.7565 29.6696 31.3933 29.8941C31.8773 30.0646 31.8511 30.3783 32.2967 30.4762C32.8559 30.598 33.4716 30.2292 33.8084 29.7965C34.3386 29.1142 34.1577 28.3167 34.1371 28.2337C34.0742 27.9801 33.8801 27.5041 33.0137 26.9599C31.5797 26.0613 30.5848 26.421 28.6781 25.8218C27.7665 25.5345 27.8734 25.3673 26.6095 24.8823C25.2328 24.3541 24.9909 24.4486 24.4763 24.0159C23.7622 23.4156 23.6658 22.7591 23.033 22.68L23.0295 22.6769Z" fill="white"/>
<path d="M34.534 22.9575C34.4535 23.2738 34.4115 23.8071 34.6182 23.9077C34.8614 24.0245 35.4033 23.5068 35.7351 23.1889C35.955 22.9766 36.0374 22.861 36.2488 22.7842C36.5599 22.6717 36.6588 22.823 36.9835 22.7314C37.4103 22.6111 37.5407 22.2608 37.7666 22.3299C37.905 22.3735 37.8845 22.5143 38.0575 22.5887C38.2555 22.674 38.4196 22.5501 38.6128 22.533C38.9179 22.5071 39.1054 22.7597 39.4801 23.0818C39.7103 23.2791 40.534 23.9905 40.787 23.8388C40.9988 23.7126 40.8955 23.0177 40.6471 22.512C40.2756 21.7539 40.0725 21.4713 39.2043 21.0859C38.6563 20.8422 37.8078 20.6794 37.5383 20.661C36.2598 20.5745 35.3057 21.7502 34.9066 22.2394C34.8099 22.3599 34.6258 22.599 34.5351 22.9535L34.534 22.9575Z" fill="white"/>
<path d="M1.01668 27.7971C1.01668 27.7971 4.70958 34.3912 21.7062 38.1619C38.7028 41.9327 42.9162 40.0055 44.8119 37.6767C46.7075 35.3479 46.2432 31.8788 43.5461 31.9805C40.849 32.0821 40.6526 35.1202 42.773 35.4817" stroke="#616672" stroke-width="2" stroke-miterlimit="10" stroke-linecap="round"/>
<path d="M46.9737 34.3966C47.0603 34.4176 47.2145 33.7379 47.1578 33.0534C47.101 32.3688 46.6366 31.8053 46.3177 31.5627C46.0881 31.3871 45.9969 30.7751 45.2996 30.4484C43.8562 29.7689 43.8192 30.155 43.236 30.0827C42.4412 29.9838 41.8422 30.3463 41.6812 30.4431C41.2204 30.7221 41.0556 31.0653 40.8757 31.4325C40.8381 31.5085 40.4586 32.3087 40.7174 32.4555C40.8477 32.5291 41.004 32.3622 41.5848 32.2596C42.0279 32.1825 42.0612 32.2581 42.341 32.1824C42.9167 32.0267 42.9397 31.6606 43.2628 31.6955C43.5858 31.7304 43.634 32.1027 44.0889 32.2138C44.3986 32.2904 44.5151 32.1516 44.8032 32.2051C45.1814 32.2741 45.1505 32.5736 45.693 32.9579C46.1451 33.2792 46.3785 33.2406 46.5248 33.495C46.6286 33.6756 46.7057 34.0364 46.7085 34.05C46.7423 34.2119 46.9497 34.3901 46.9743 34.3946L46.9737 34.3966Z" fill="white"/>
</g>
<defs>
<clipPath id="clip0_2470_56853">
<rect width="48" height="48" fill="white"/>
</clipPath>
</defs>
</svg>
