<svg width="48" height="48" viewBox="0 0 48 48" fill="none" xmlns="http://www.w3.org/2000/svg">
<path d="M40.0585 26.8195L35.3524 29.5451L29.7342 26.3001L33.1353 24.8633C33.8537 24.5593 33.8537 23.5825 33.1353 23.2812L29.7342 21.8443L35.3524 18.5993L40.0585 21.325C40.2038 21.4084 40.3625 21.4488 40.5186 21.4488C40.8361 21.4488 41.1455 21.2847 41.3177 20.9887C41.5733 20.5474 41.4226 19.9851 40.9814 19.7294L37.1929 17.5365L40.2253 15.7849C40.6666 15.5292 40.8173 14.9669 40.5616 14.5256C40.306 14.0843 39.7436 13.9337 39.3024 14.1893L36.2699 15.9409L36.2646 11.5632C36.2646 11.0546 35.8502 10.6429 35.3444 10.6429C34.8358 10.6429 34.4241 11.0573 34.4241 11.5658L34.4295 17.0038L28.927 20.1788L29.2983 16.9177C29.3845 16.1696 28.4992 15.6826 27.8669 16.1266L24.9529 18.1688V11.5309L29.6643 8.81863C30.1056 8.5657 30.2562 8.00066 30.0033 7.56207C29.7504 7.1208 29.1853 6.97012 28.7467 7.22304L24.9529 9.4079V5.9046C24.9529 5.39605 24.5412 4.98438 24.0326 4.98438C23.5241 4.98438 23.1124 5.39605 23.1124 5.9046V9.4079L19.3185 7.22304C18.8772 6.97012 18.3149 7.1208 18.062 7.56207C17.809 8.00335 17.9597 8.5657 18.401 8.81863L23.1124 11.5309V18.1688L20.1984 16.1266C19.5634 15.6826 18.6808 16.1696 18.7669 16.9177L19.1382 20.1788L13.6357 17.0011L13.6411 11.5632C13.6411 11.0546 13.2295 10.6429 12.7209 10.6402C12.2124 10.6402 11.8007 11.0519 11.8007 11.5605L11.7953 15.9382L8.76286 14.1866C8.32159 13.931 7.75925 14.0843 7.50363 14.5229C7.24802 14.9642 7.40139 15.5266 7.83997 15.7822L10.8724 17.5338L7.08387 19.7268C6.64259 19.9824 6.4946 20.5447 6.74753 20.986C6.91704 21.282 7.22647 21.4461 7.54666 21.4461C7.70272 21.4461 7.8615 21.4058 8.00679 21.3223L12.7128 18.5967L18.331 21.8416L14.93 23.2785C14.2116 23.5825 14.2116 24.5593 14.93 24.8606L18.331 26.2975L12.7128 29.5424L8.00679 26.8168C7.56552 26.5611 7.00315 26.7118 6.74753 27.1531C6.49191 27.5944 6.64259 28.1567 7.08387 28.4123L10.8724 30.6053L7.83997 32.3569C7.3987 32.6125 7.24802 33.1749 7.50363 33.6162C7.67315 33.9121 7.98526 34.0763 8.30276 34.0763C8.45883 34.0763 8.61757 34.0359 8.76286 33.9525L11.7953 32.2009L11.8007 36.5786C11.8007 37.0872 12.2151 37.4989 12.7209 37.4989C13.2295 37.4989 13.6411 37.0845 13.6411 36.5759L13.6357 31.138L19.1382 27.963L18.7669 31.2241C18.6808 31.9722 19.566 32.4592 20.1984 32.0152L23.1124 29.973V36.6109L18.401 39.3232C17.9597 39.5761 17.809 40.1411 18.062 40.5797C18.2315 40.8757 18.5436 41.0425 18.8611 41.0425C19.0172 41.0425 19.1759 41.0022 19.3212 40.9187L23.1151 38.7339V42.2372C23.1151 42.7457 23.5268 43.1574 24.0353 43.1574C24.5439 43.1574 24.9555 42.7457 24.9555 42.2372V38.7339L28.7494 40.9187C28.8947 41.0022 29.0508 41.0425 29.2095 41.0425C29.527 41.0425 29.8392 40.8757 30.0087 40.5797C30.2616 40.1384 30.1109 39.5761 29.6697 39.3232L24.9582 36.6109V29.973L27.8723 32.0152C28.5073 32.4592 29.3898 31.9722 29.3037 31.2241L28.9324 27.963L34.4349 31.138L34.4295 36.5759C34.4295 37.0845 34.8412 37.4962 35.3497 37.4989C35.8583 37.4989 36.2699 37.0872 36.2699 36.5786L36.2753 32.2009L39.3078 33.9525C39.4531 34.0359 39.6118 34.0763 39.7679 34.0763C40.0854 34.0763 40.3948 33.9121 40.567 33.6162C40.8226 33.1749 40.6693 32.6125 40.2307 32.3569L37.1983 30.6053L40.9868 28.4123C41.428 28.1567 41.5787 27.5944 41.3231 27.1531C41.0675 26.7118 40.5051 26.5611 40.0639 26.8168L40.0585 26.8195Z" fill="#FEFEFD"/>
</svg>
