<svg width="48" height="48" viewBox="0 0 48 48" fill="none" xmlns="http://www.w3.org/2000/svg">
<g clip-path="url(#clip0_2470_56985)">
<path d="M25.5062 46.9337C16.5258 47.5045 8.43167 43.2948 7.69826 35.7959C7.00439 28.7053 13.1117 19.5668 22.0926 18.9959C22.0926 18.9959 36.69 17.3251 40.3744 31.2782C40.3744 31.2782 41.2527 38.0185 38.2267 42.0362C38.2267 42.0362 35.8766 46.1301 26.971 46.8406L25.5072 46.9336L25.5062 46.9337Z" fill="white"/>
<path d="M25.855 4.73417C23.5584 4.12022 21.1181 4.19874 18.902 5.03348C16.7851 5.83073 14.271 7.27786 13.0317 9.84232C10.6608 14.7465 12.2226 18.3611 12.2226 18.3611C12.2226 18.3611 12.9407 21.7693 20.1236 21.7957C27.3066 21.822 31.7017 20.935 32.8152 18.3084C33.9287 15.6817 34.0852 9.06134 28.887 5.90078C28.887 5.90078 27.8645 5.27143 25.8555 4.73459L25.855 4.73417Z" fill="white"/>
<path d="M19.7493 14.3904C20.0531 14.3711 20.2661 13.8921 20.2251 13.3205C20.1841 12.7489 19.9046 12.3012 19.6008 12.3205C19.297 12.3398 19.084 12.8188 19.125 13.3904C19.166 13.962 19.4455 14.4097 19.7493 14.3904Z" fill="#625549"/>
<path d="M25.7966 13.7095C26.1004 13.6902 26.3122 13.1946 26.2697 12.6026C26.2273 12.0106 25.9466 11.5463 25.6428 11.5656C25.339 11.5849 25.1272 12.0805 25.1697 12.6725C25.2122 13.2645 25.4928 13.7288 25.7966 13.7095Z" fill="#625549"/>
<path d="M21.3693 14.616C21.2679 14.6155 21.1675 14.649 21.0922 14.7129C20.8521 14.918 20.3984 15.4605 20.6866 16.4764C20.8808 17.1598 21.0751 17.4831 21.219 17.6359C21.3097 17.7319 21.4476 17.7722 21.5826 17.7526C22.4337 17.6284 27.1925 16.8861 28.5344 15.6231C28.6188 15.5434 28.6611 15.4334 28.653 15.3211C28.6397 15.1353 28.49 14.9843 28.2935 14.961C27.4669 14.8631 25.1266 14.6312 21.3688 14.6155L21.3693 14.616Z" fill="#F89A4C"/>
<path d="M17.774 17.0803C18.1833 16.8895 18.2992 16.3244 18.0328 15.818C17.7664 15.3116 17.2187 15.0557 16.8094 15.2465C16.4001 15.4372 16.2843 16.0023 16.5507 16.5087C16.817 17.0151 17.3648 17.271 17.774 17.0803Z" fill="#F9AABB"/>
<path d="M23.2032 14.8409C23.2032 14.8409 22.6022 15.9376 23.102 17.1313" stroke="white" stroke-width="0.4" stroke-miterlimit="10" stroke-linecap="round"/>
<path d="M25.3326 14.9386C25.3326 14.9386 25.3095 15.988 25.4631 16.7579" stroke="white" stroke-width="0.4" stroke-miterlimit="10" stroke-linecap="round"/>
<path d="M27.1582 15.0908C27.1582 15.0908 27.2742 15.4444 27.6794 15.7539" stroke="white" stroke-width="0.4" stroke-miterlimit="10" stroke-linecap="round"/>
<path d="M24.3553 33.6676C25.6486 33.5854 26.6262 32.532 26.5389 31.3146C26.4516 30.0973 25.3323 29.1772 24.039 29.2594C22.7457 29.3416 21.7681 30.395 21.8554 31.6123C21.9427 32.8296 23.062 33.7498 24.3553 33.6676Z" fill="#F9A04D"/>
<path d="M24.4153 37.9932C25.2323 37.9412 25.8539 37.3311 25.8036 36.6304C25.7534 35.9298 25.0503 35.4038 24.2333 35.4558C23.4162 35.5077 22.7947 36.1178 22.8449 36.8185C22.8952 37.5192 23.5983 38.0451 24.4153 37.9932Z" fill="#F9A04D"/>
<path d="M29.9893 18.343C30.4791 18.1885 31.0219 18.2833 31.4995 18.4685C32.0534 18.6837 32.6582 19.1272 32.8977 20.0412C32.8977 20.0412 35.7457 30.3097 35.5055 29.9906C35.5055 29.9906 35.5702 31.7136 32.914 32.37C32.914 32.37 32.9058 32.3705 32.8899 32.3733C29.8029 33.0084 29.4812 31.4164 29.3074 29.7347C29.0954 27.6826 28.8581 24.946 28.9513 23.7256C28.9577 23.639 28.8833 23.5722 28.7922 23.5858C27.5764 23.7676 20.3434 24.7695 16.9401 23.4325C16.7551 23.3598 16.574 23.2943 16.3781 23.2526C15.3504 23.0341 11.6914 22.0536 12.9631 19.377C12.9631 19.377 13.1186 17.4153 18.6582 19.3723C18.7332 19.3987 18.8438 19.4261 18.9758 19.4525C19.8474 19.6287 20.7465 19.6431 21.6309 19.5356C23.3273 19.3296 27.0804 19.2593 29.9888 18.3425L29.9893 18.343Z" fill="#AD4D43"/>
<path d="M16.9687 18.9647C16.9687 18.9647 15.6421 19.7695 16.3588 23.0686" stroke="white" stroke-width="0.4" stroke-linecap="round" stroke-linejoin="round"/>
<path d="M20.5497 19.7294C20.5497 19.7294 19.6171 23.2063 21.0776 23.916" stroke="white" stroke-width="0.4" stroke-linecap="round" stroke-linejoin="round"/>
<path d="M24.899 19.3321C24.899 19.3321 24.0629 23.6449 25.7378 23.7769" stroke="white" stroke-width="0.4" stroke-linecap="round" stroke-linejoin="round"/>
<path d="M28.4105 19.0912C28.4105 19.0912 28.8224 22.3611 28.2888 22.8963" stroke="white" stroke-width="0.4" stroke-linecap="round" stroke-linejoin="round"/>
<path d="M29.0508 24.2902C29.0508 24.2902 32.1527 24.2027 33.1608 22.5789" stroke="white" stroke-width="0.4" stroke-linecap="round" stroke-linejoin="round"/>
<path d="M29.4268 27.7636C29.4268 27.7636 30.4678 28.5271 34.1933 26.5572" stroke="white" stroke-width="0.4" stroke-linecap="round" stroke-linejoin="round"/>
<path d="M30.8041 32.4066L29.892 34.2472" stroke="#AD4D43" stroke-miterlimit="10" stroke-linecap="round"/>
<path d="M31.625 32.3546L31.2633 34.3827" stroke="#AD4D43" stroke-miterlimit="10" stroke-linecap="round"/>
<path d="M33.0957 31.8701L33.8357 33.6617" stroke="#AD4D43" stroke-miterlimit="10" stroke-linecap="round"/>
<path d="M33.6602 31.2217L35.08 33.137" stroke="#AD4D43" stroke-miterlimit="10" stroke-linecap="round"/>
<path d="M34.873 30.2539L36.2456 32.0607" stroke="#AD4D43" stroke-miterlimit="10" stroke-linecap="round"/>
</g>
<defs>
<clipPath id="clip0_2470_56985">
<rect width="48" height="48" fill="white"/>
</clipPath>
</defs>
</svg>
