<svg width="58" height="51" viewBox="0 0 58 51" fill="none" xmlns="http://www.w3.org/2000/svg">
<rect x="0.5" y="0.5" width="57" height="50" stroke="#FFFCFA"/>
<path d="M33.5039 21.2969L35.3008 21.2383C35.5482 21.2253 35.7272 21.1699 35.8379 21.0723C35.9486 20.9681 36.0039 20.7891 36.0039 20.5352V9.99805C35.75 10.1283 35.4733 10.2454 35.1738 10.3496C34.9199 10.4408 34.6237 10.5221 34.2852 10.5938C33.9466 10.6654 33.5853 10.7012 33.2012 10.7012V10.2031C33.5592 10.2031 33.9206 10.1217 34.2852 9.95898C34.6497 9.78971 34.985 9.57487 35.291 9.31445C35.6035 9.04753 35.8737 8.74805 36.1016 8.41602C36.3359 8.07747 36.502 7.73893 36.5996 7.40039H37.498V20.5352C37.498 20.7891 37.5534 20.9681 37.6641 21.0723C37.7747 21.1699 37.9538 21.2253 38.2012 21.2383L39.7051 21.2969V22H33.5039V21.2969ZM50.9746 17.6445C50.9746 18.3411 50.8379 18.9694 50.5645 19.5293C50.2975 20.0892 49.9427 20.5677 49.5 20.9648C49.0638 21.3555 48.5625 21.6582 47.9961 21.873C47.4362 22.0879 46.8633 22.1953 46.2773 22.1953C45.6263 22.1953 45.0143 22.1009 44.4414 21.9121C43.875 21.7168 43.377 21.4434 42.9473 21.0918C42.5241 20.7402 42.1888 20.3171 41.9414 19.8223C41.7005 19.3275 41.5801 18.7741 41.5801 18.1621C41.5801 17.5697 41.6842 17.0488 41.8926 16.5996C42.1009 16.1504 42.3743 15.7533 42.7129 15.4082C43.0514 15.0566 43.4388 14.7441 43.875 14.4707C44.3112 14.1908 44.7539 13.9271 45.2031 13.6797C44.8841 13.4583 44.5846 13.2272 44.3047 12.9863C44.0247 12.7389 43.7773 12.4785 43.5625 12.2051C43.3542 11.9316 43.1882 11.6387 43.0645 11.3262C42.9408 11.0137 42.8789 10.6719 42.8789 10.3008C42.8789 9.8125 42.9766 9.3763 43.1719 8.99219C43.3672 8.60807 43.6243 8.28255 43.9434 8.01562C44.2624 7.7487 44.6237 7.54688 45.0273 7.41016C45.4375 7.26693 45.8542 7.19531 46.2773 7.19531C46.7656 7.19531 47.2148 7.26367 47.625 7.40039C48.0417 7.5306 48.3997 7.7194 48.6992 7.9668C49.0052 8.20768 49.2428 8.50065 49.4121 8.8457C49.5879 9.19076 49.6758 9.57487 49.6758 9.99805C49.6758 10.3822 49.6139 10.724 49.4902 11.0234C49.3665 11.3164 49.1973 11.5833 48.9824 11.8242C48.7741 12.0651 48.5267 12.2865 48.2402 12.4883C47.9603 12.6901 47.6608 12.8822 47.3418 13.0645C47.7845 13.3444 48.224 13.6374 48.6602 13.9434C49.0964 14.2428 49.4837 14.5781 49.8223 14.9492C50.1673 15.3138 50.444 15.7174 50.6523 16.1602C50.8672 16.5964 50.9746 17.0911 50.9746 17.6445ZM42.8789 18.2402C42.8789 18.8066 42.9733 19.3047 43.1621 19.7344C43.3574 20.1641 43.6146 20.5254 43.9336 20.8184C44.2526 21.1048 44.6139 21.3229 45.0176 21.4727C45.4277 21.6224 45.8477 21.6973 46.2773 21.6973C46.7135 21.6973 47.1302 21.6322 47.5273 21.502C47.9245 21.3652 48.2728 21.1602 48.5723 20.8867C48.8783 20.6133 49.1224 20.2715 49.3047 19.8613C49.487 19.4447 49.5781 18.9564 49.5781 18.3965C49.5781 17.8887 49.4609 17.4329 49.2266 17.0293C48.9922 16.6191 48.6895 16.2415 48.3184 15.8965C47.9473 15.5514 47.5273 15.2292 47.0586 14.9297C46.5964 14.6237 46.1374 14.3145 45.6816 14.002C45.3105 14.2233 44.9557 14.4642 44.6172 14.7246C44.2786 14.9785 43.9792 15.2747 43.7188 15.6133C43.4648 15.9453 43.2598 16.3262 43.1035 16.7559C42.9538 17.1855 42.8789 17.6803 42.8789 18.2402ZM48.6797 9.90039C48.6797 9.56185 48.6243 9.2526 48.5137 8.97266C48.4095 8.6862 48.2533 8.44206 48.0449 8.24023C47.8431 8.03841 47.5924 7.88216 47.293 7.77148C46.9935 7.6543 46.6549 7.5957 46.2773 7.5957C45.9844 7.5957 45.7044 7.64453 45.4375 7.74219C45.1706 7.83984 44.9362 7.97982 44.7344 8.16211C44.5326 8.33789 44.373 8.55599 44.2559 8.81641C44.1387 9.07682 44.0801 9.36979 44.0801 9.69531C44.0801 10.0143 44.1549 10.3105 44.3047 10.584C44.4544 10.8509 44.653 11.1081 44.9004 11.3555C45.1543 11.5964 45.444 11.8307 45.7695 12.0586C46.1016 12.2799 46.4499 12.5013 46.8145 12.7227C47.0814 12.5469 47.3288 12.3613 47.5566 12.166C47.7845 11.9707 47.9798 11.7591 48.1426 11.5312C48.3118 11.2969 48.4421 11.0462 48.5332 10.7793C48.6309 10.5124 48.6797 10.2194 48.6797 9.90039Z" fill="#FFFCFA"/>
</svg>
