<svg width="58" height="51" viewBox="0 0 58 51" fill="none" xmlns="http://www.w3.org/2000/svg">
<rect x="0.5" y="0.5" width="57" height="50" stroke="#FFFCFA"/>
<path d="M31.3945 22C31.3945 21.9414 31.3913 21.8796 31.3848 21.8145C31.3783 21.7428 31.375 21.6777 31.375 21.6191C31.375 20.7923 31.4824 20.0664 31.6973 19.4414C31.9186 18.8099 32.2051 18.25 32.5566 17.7617C32.9147 17.2734 33.3216 16.8372 33.7773 16.4531C34.2331 16.069 34.6986 15.7077 35.1738 15.3691C35.6491 15.0306 36.1146 14.7018 36.5703 14.3828C37.026 14.0573 37.4297 13.7122 37.7812 13.3477C38.1393 12.9766 38.4258 12.5729 38.6406 12.1367C38.862 11.694 38.9727 11.1829 38.9727 10.6035C38.9727 10.1543 38.8978 9.74414 38.748 9.37305C38.5983 9.00195 38.39 8.6862 38.123 8.42578C37.8561 8.15885 37.5404 7.95378 37.1758 7.81055C36.8112 7.66732 36.4173 7.5957 35.9941 7.5957C35.4928 7.5957 35.0469 7.69336 34.6562 7.88867C34.2656 8.07747 33.9336 8.3151 33.6602 8.60156C33.3932 8.88802 33.1882 9.20052 33.0449 9.53906C32.9017 9.8776 32.8301 10.1966 32.8301 10.4961C32.8301 10.7956 32.8724 11.0527 32.957 11.2676C33.0482 11.4759 33.1654 11.6484 33.3086 11.7852C33.4583 11.9219 33.6243 12.0228 33.8066 12.0879C33.9954 12.1465 34.1908 12.1758 34.3926 12.1758C34.6139 12.1758 34.8288 12.1432 35.0371 12.0781C35.252 12.013 35.4505 11.9219 35.6328 11.8047L35.9551 12.1953C35.8574 12.3451 35.7337 12.5013 35.584 12.6641C35.4342 12.8268 35.265 12.9766 35.0762 13.1133C34.8874 13.2435 34.679 13.3509 34.4512 13.4355C34.2298 13.5202 33.9922 13.5625 33.7383 13.5625C33.4714 13.5625 33.2109 13.5169 32.957 13.4258C32.7096 13.3346 32.4883 13.1947 32.293 13.0059C32.1042 12.8105 31.9512 12.5664 31.834 12.2734C31.7168 11.974 31.6582 11.6159 31.6582 11.1992C31.6582 10.776 31.7559 10.3236 31.9512 9.8418C32.153 9.36003 32.446 8.91732 32.8301 8.51367C33.2142 8.10352 33.6829 7.76497 34.2363 7.49805C34.7962 7.23112 35.4342 7.09766 36.1504 7.09766C36.6777 7.09766 37.1855 7.19857 37.6738 7.40039C38.1686 7.60221 38.6048 7.88216 38.9824 8.24023C39.3665 8.5918 39.6725 9.01497 39.9004 9.50977C40.1348 9.99805 40.252 10.5286 40.252 11.1016C40.252 11.7396 40.1576 12.2897 39.9688 12.752C39.7865 13.2142 39.5358 13.6211 39.2168 13.9727C38.9043 14.3177 38.5397 14.6237 38.123 14.8906C37.7064 15.1576 37.2702 15.4147 36.8145 15.6621C36.3652 15.903 35.9062 16.1504 35.4375 16.4043C34.9753 16.6582 34.5358 16.9479 34.1191 17.2734C33.7025 17.5924 33.3249 17.9668 32.9863 18.3965C32.6478 18.8197 32.3776 19.3275 32.1758 19.9199C32.2734 19.7897 32.3776 19.6693 32.4883 19.5586C32.599 19.4479 32.7227 19.3503 32.8594 19.2656C33.0026 19.181 33.1589 19.1159 33.3281 19.0703C33.4974 19.0247 33.6862 19.002 33.8945 19.002C34.1289 19.002 34.3665 19.0378 34.6074 19.1094C34.8548 19.1745 35.1022 19.2591 35.3496 19.3633C35.6035 19.4674 35.8542 19.5814 36.1016 19.7051C36.3555 19.8223 36.6061 19.9329 36.8535 20.0371C37.1009 20.1413 37.3451 20.2292 37.5859 20.3008C37.8268 20.3659 38.0612 20.3984 38.2891 20.3984C38.4844 20.3984 38.6602 20.3854 38.8164 20.3594C38.9727 20.3333 39.1126 20.2845 39.2363 20.2129C39.3665 20.1413 39.4837 20.0404 39.5879 19.9102C39.6921 19.7734 39.793 19.5977 39.8906 19.3828L40.2324 19.4609C40.1999 19.7474 40.1348 20.0404 40.0371 20.3398C39.946 20.6393 39.8092 20.9128 39.627 21.1602C39.4447 21.4076 39.2135 21.6094 38.9336 21.7656C38.6536 21.9219 38.3086 22 37.8984 22C37.6445 22 37.3874 21.9544 37.127 21.8633C36.873 21.7656 36.6191 21.6484 36.3652 21.5117C36.1113 21.3685 35.8607 21.2155 35.6133 21.0527C35.3659 20.8835 35.1217 20.7305 34.8809 20.5938C34.64 20.4505 34.4056 20.3333 34.1777 20.2422C33.9499 20.1445 33.7285 20.0957 33.5137 20.0957C33.3053 20.0957 33.1198 20.138 32.957 20.2227C32.7943 20.3073 32.651 20.418 32.5273 20.5547C32.4102 20.6849 32.3092 20.8281 32.2246 20.9844C32.1465 21.1406 32.0781 21.2904 32.0195 21.4336C31.9674 21.5703 31.9251 21.694 31.8926 21.8047C31.8665 21.9089 31.847 21.974 31.834 22H31.3945ZM42.0977 22C42.0977 21.9414 42.0944 21.8796 42.0879 21.8145C42.0814 21.7428 42.0781 21.6777 42.0781 21.6191C42.0781 20.7923 42.1855 20.0664 42.4004 19.4414C42.6217 18.8099 42.9082 18.25 43.2598 17.7617C43.6178 17.2734 44.0247 16.8372 44.4805 16.4531C44.9362 16.069 45.4017 15.7077 45.877 15.3691C46.3522 15.0306 46.8177 14.7018 47.2734 14.3828C47.7292 14.0573 48.1328 13.7122 48.4844 13.3477C48.8424 12.9766 49.1289 12.5729 49.3438 12.1367C49.5651 11.694 49.6758 11.1829 49.6758 10.6035C49.6758 10.1543 49.6009 9.74414 49.4512 9.37305C49.3014 9.00195 49.0931 8.6862 48.8262 8.42578C48.5592 8.15885 48.2435 7.95378 47.8789 7.81055C47.5143 7.66732 47.1204 7.5957 46.6973 7.5957C46.196 7.5957 45.75 7.69336 45.3594 7.88867C44.9688 8.07747 44.6367 8.3151 44.3633 8.60156C44.0964 8.88802 43.8913 9.20052 43.748 9.53906C43.6048 9.8776 43.5332 10.1966 43.5332 10.4961C43.5332 10.7956 43.5755 11.0527 43.6602 11.2676C43.7513 11.4759 43.8685 11.6484 44.0117 11.7852C44.1615 11.9219 44.3275 12.0228 44.5098 12.0879C44.6986 12.1465 44.8939 12.1758 45.0957 12.1758C45.3171 12.1758 45.5319 12.1432 45.7402 12.0781C45.9551 12.013 46.1536 11.9219 46.3359 11.8047L46.6582 12.1953C46.5605 12.3451 46.4368 12.5013 46.2871 12.6641C46.1374 12.8268 45.9681 12.9766 45.7793 13.1133C45.5905 13.2435 45.3822 13.3509 45.1543 13.4355C44.9329 13.5202 44.6953 13.5625 44.4414 13.5625C44.1745 13.5625 43.9141 13.5169 43.6602 13.4258C43.4128 13.3346 43.1914 13.1947 42.9961 13.0059C42.8073 12.8105 42.6543 12.5664 42.5371 12.2734C42.4199 11.974 42.3613 11.6159 42.3613 11.1992C42.3613 10.776 42.459 10.3236 42.6543 9.8418C42.8561 9.36003 43.1491 8.91732 43.5332 8.51367C43.9173 8.10352 44.3861 7.76497 44.9395 7.49805C45.4993 7.23112 46.1374 7.09766 46.8535 7.09766C47.3809 7.09766 47.8887 7.19857 48.377 7.40039C48.8717 7.60221 49.3079 7.88216 49.6855 8.24023C50.0697 8.5918 50.3757 9.01497 50.6035 9.50977C50.8379 9.99805 50.9551 10.5286 50.9551 11.1016C50.9551 11.7396 50.8607 12.2897 50.6719 12.752C50.4896 13.2142 50.2389 13.6211 49.9199 13.9727C49.6074 14.3177 49.2428 14.6237 48.8262 14.8906C48.4095 15.1576 47.9733 15.4147 47.5176 15.6621C47.0684 15.903 46.6094 16.1504 46.1406 16.4043C45.6784 16.6582 45.2389 16.9479 44.8223 17.2734C44.4056 17.5924 44.028 17.9668 43.6895 18.3965C43.3509 18.8197 43.0807 19.3275 42.8789 19.9199C42.9766 19.7897 43.0807 19.6693 43.1914 19.5586C43.3021 19.4479 43.4258 19.3503 43.5625 19.2656C43.7057 19.181 43.862 19.1159 44.0312 19.0703C44.2005 19.0247 44.3893 19.002 44.5977 19.002C44.832 19.002 45.0697 19.0378 45.3105 19.1094C45.5579 19.1745 45.8053 19.2591 46.0527 19.3633C46.3066 19.4674 46.5573 19.5814 46.8047 19.7051C47.0586 19.8223 47.3092 19.9329 47.5566 20.0371C47.804 20.1413 48.0482 20.2292 48.2891 20.3008C48.5299 20.3659 48.7643 20.3984 48.9922 20.3984C49.1875 20.3984 49.3633 20.3854 49.5195 20.3594C49.6758 20.3333 49.8158 20.2845 49.9395 20.2129C50.0697 20.1413 50.1868 20.0404 50.291 19.9102C50.3952 19.7734 50.4961 19.5977 50.5938 19.3828L50.9355 19.4609C50.903 19.7474 50.8379 20.0404 50.7402 20.3398C50.6491 20.6393 50.5124 20.9128 50.3301 21.1602C50.1478 21.4076 49.9167 21.6094 49.6367 21.7656C49.3568 21.9219 49.0117 22 48.6016 22C48.3477 22 48.0905 21.9544 47.8301 21.8633C47.5762 21.7656 47.3223 21.6484 47.0684 21.5117C46.8145 21.3685 46.5638 21.2155 46.3164 21.0527C46.069 20.8835 45.8249 20.7305 45.584 20.5938C45.3431 20.4505 45.1087 20.3333 44.8809 20.2422C44.653 20.1445 44.4316 20.0957 44.2168 20.0957C44.0085 20.0957 43.8229 20.138 43.6602 20.2227C43.4974 20.3073 43.3542 20.418 43.2305 20.5547C43.1133 20.6849 43.0124 20.8281 42.9277 20.9844C42.8496 21.1406 42.7812 21.2904 42.7227 21.4336C42.6706 21.5703 42.6283 21.694 42.5957 21.8047C42.5697 21.9089 42.5501 21.974 42.5371 22H42.0977Z" fill="#FFFCFA"/>
</svg>
