<svg width="58" height="36" viewBox="0 0 58 36" fill="none" xmlns="http://www.w3.org/2000/svg">
<rect x="0.5" y="0.5" width="57" height="35" stroke="#FFFCFA"/>
<path d="M34.5977 21.2969L36.3945 21.2383C36.6419 21.2253 36.821 21.1699 36.9316 21.0723C37.0423 20.9681 37.0977 20.7891 37.0977 20.5352V9.99805C36.8438 10.1283 36.5671 10.2454 36.2676 10.3496C36.0137 10.4408 35.7174 10.5221 35.3789 10.5938C35.0404 10.6654 34.679 10.7012 34.2949 10.7012V10.2031C34.653 10.2031 35.0143 10.1217 35.3789 9.95898C35.7435 9.78971 36.0788 9.57487 36.3848 9.31445C36.6973 9.04753 36.9674 8.74805 37.1953 8.41602C37.4297 8.07747 37.5957 7.73893 37.6934 7.40039H38.5918V20.5352C38.5918 20.7891 38.6471 20.9681 38.7578 21.0723C38.8685 21.1699 39.0475 21.2253 39.2949 21.2383L40.7988 21.2969V22H34.5977V21.2969ZM46.4922 15.457C46.8438 15.457 47.179 15.3659 47.498 15.1836C47.8236 15.0013 48.1068 14.7474 48.3477 14.4219C48.5951 14.0898 48.7904 13.6927 48.9336 13.2305C49.0768 12.7682 49.1484 12.2572 49.1484 11.6973C49.1484 11.0788 49.0866 10.5352 48.9629 10.0664C48.8457 9.59115 48.6732 9.19727 48.4453 8.88477C48.224 8.56576 47.957 8.32487 47.6445 8.16211C47.332 7.99935 46.987 7.91797 46.6094 7.91797C46.2773 7.91797 45.9616 8.00911 45.6621 8.19141C45.3691 8.36719 45.112 8.62109 44.8906 8.95312C44.6693 9.28516 44.4935 9.68555 44.3633 10.1543C44.2331 10.623 44.168 11.1504 44.168 11.7363C44.168 12.3027 44.2135 12.8171 44.3047 13.2793C44.4023 13.735 44.5488 14.1257 44.7441 14.4512C44.9395 14.7702 45.1803 15.0176 45.4668 15.1934C45.7598 15.3691 46.1016 15.457 46.4922 15.457ZM44.793 21.6387C45.0599 21.5215 45.3431 21.3717 45.6426 21.1895C45.9486 21.0007 46.2546 20.7663 46.5605 20.4863C46.873 20.2064 47.1758 19.8776 47.4688 19.5C47.7617 19.1159 48.0319 18.6732 48.2793 18.1719C48.5267 17.6706 48.7415 17.1009 48.9238 16.4629C49.1126 15.8184 49.2493 15.099 49.334 14.3047C49.2624 14.4154 49.1517 14.5684 49.002 14.7637C48.8522 14.959 48.6569 15.151 48.416 15.3398C48.1751 15.5286 47.8854 15.6947 47.5469 15.8379C47.2083 15.9746 46.8177 16.043 46.375 16.043C45.7565 16.043 45.2064 15.9388 44.7246 15.7305C44.2428 15.5221 43.8359 15.2422 43.5039 14.8906C43.1719 14.5326 42.918 14.1191 42.7422 13.6504C42.5729 13.1816 42.4883 12.6836 42.4883 12.1562C42.4883 11.4141 42.599 10.75 42.8203 10.1641C43.0417 9.57812 43.3411 9.08333 43.7188 8.67969C44.0964 8.26953 44.5391 7.95703 45.0469 7.74219C45.5547 7.52734 46.0951 7.41992 46.668 7.41992C47.3125 7.41992 47.8984 7.55013 48.4258 7.81055C48.9531 8.07096 49.4023 8.45508 49.7734 8.96289C50.151 9.4707 50.4408 10.1022 50.6426 10.8574C50.8509 11.6126 50.9551 12.4818 50.9551 13.4648C50.9551 14.2201 50.8737 14.946 50.7109 15.6426C50.5482 16.3327 50.3236 16.9837 50.0371 17.5957C49.7507 18.2012 49.4121 18.7578 49.0215 19.2656C48.6374 19.7734 48.2207 20.2194 47.7715 20.6035C47.3288 20.9876 46.8665 21.3001 46.3848 21.541C45.903 21.7819 45.4245 21.9414 44.9492 22.0195L44.793 21.6387Z" fill="#FFFCFA"/>
</svg>
