<svg width="58" height="66" viewBox="0 0 58 66" fill="none" xmlns="http://www.w3.org/2000/svg">
<rect x="0.5" y="0.5" width="57" height="65" stroke="#FFFCFA"/>
<path d="M6.99805 16.6387C8.08529 15.6751 8.9707 14.7474 9.6543 13.8555C10.3444 12.957 10.8848 12.1139 11.2754 11.3262C11.666 10.5384 11.9329 9.8125 12.0762 9.14844C12.2194 8.48438 12.291 7.90169 12.291 7.40039H13.8926C13.8926 7.98633 13.7982 8.56901 13.6094 9.14844C13.4271 9.72135 13.1829 10.2845 12.877 10.8379C12.571 11.3913 12.2259 11.9251 11.8418 12.4395C11.4577 12.9538 11.0671 13.4421 10.6699 13.9043C10.2728 14.36 9.88542 14.7865 9.50781 15.1836C9.13672 15.5742 8.8112 15.9193 8.53125 16.2188C8.6224 16.2057 8.7168 16.1927 8.81445 16.1797C8.91862 16.1667 9.04557 16.1602 9.19531 16.1602C9.625 16.1602 10.0254 16.2318 10.3965 16.375C10.7676 16.5117 11.1191 16.6712 11.4512 16.8535C11.7897 17.0358 12.1152 17.2181 12.4277 17.4004C12.7467 17.5762 13.0625 17.7031 13.375 17.7812C13.4141 16.6224 13.4336 15.4017 13.4336 14.1191V12.8008L14.8301 12.4004C14.8301 12.7194 14.8268 13.084 14.8203 13.4941C14.8203 13.8978 14.8171 14.334 14.8105 14.8027C14.804 15.265 14.7943 15.7533 14.7812 16.2676C14.7747 16.7754 14.765 17.293 14.752 17.8203C14.8952 17.8008 15.0352 17.7682 15.1719 17.7227C15.3151 17.6771 15.4746 17.6022 15.6504 17.498L15.8945 17.8008C15.7253 17.944 15.5397 18.0612 15.3379 18.1523C15.1361 18.237 14.9342 18.2988 14.7324 18.3379C14.7129 18.9499 14.6901 19.5651 14.6641 20.1836C14.638 20.8021 14.6087 21.4076 14.5762 22H13.1797C13.2122 21.4141 13.2448 20.8184 13.2773 20.2129C13.3099 19.6009 13.3359 18.9694 13.3555 18.3184C13.0169 18.2402 12.6849 18.11 12.3594 17.9277C12.0404 17.7389 11.7116 17.5501 11.373 17.3613C11.0345 17.166 10.6797 16.9967 10.3086 16.8535C9.9375 16.7103 9.53385 16.6387 9.09766 16.6387C8.8763 16.6387 8.67448 16.6615 8.49219 16.707C8.31641 16.7526 8.1569 16.8079 8.01367 16.873C7.87044 16.9382 7.74349 17.0065 7.63281 17.0781C7.52865 17.1432 7.4375 17.1986 7.35938 17.2441L6.99805 16.6387Z" fill="#FFFCFA"/>
</svg>
