<svg width="58" height="51" viewBox="0 0 58 51" fill="none" xmlns="http://www.w3.org/2000/svg">
<rect x="0.5" y="0.5" width="57" height="50" stroke="#FFFCFA"/>
<path d="M34.3047 22.2969L36.1016 22.2383C36.349 22.2253 36.528 22.1699 36.6387 22.0723C36.7493 21.9681 36.8047 21.7891 36.8047 21.5352V10.998C36.5508 11.1283 36.2741 11.2454 35.9746 11.3496C35.7207 11.4408 35.4245 11.5221 35.0859 11.5938C34.7474 11.6654 34.3861 11.7012 34.002 11.7012V11.2031C34.36 11.2031 34.7214 11.1217 35.0859 10.959C35.4505 10.7897 35.7858 10.5749 36.0918 10.3145C36.4043 10.0475 36.6745 9.74805 36.9023 9.41602C37.1367 9.07747 37.3027 8.73893 37.4004 8.40039H38.2988V21.5352C38.2988 21.7891 38.3542 21.9681 38.4648 22.0723C38.5755 22.1699 38.7546 22.2253 39.002 22.2383L40.5059 22.2969V23H34.3047V22.2969ZM47.0586 14.9824C46.707 14.9824 46.3587 15.0736 46.0137 15.2559C45.6686 15.4316 45.3626 15.6758 45.0957 15.9883C44.8288 16.3008 44.6107 16.6719 44.4414 17.1016C44.2786 17.5312 44.1973 17.9967 44.1973 18.498C44.1973 19.0775 44.2689 19.6146 44.4121 20.1094C44.5553 20.5977 44.7507 21.0208 44.998 21.3789C45.2454 21.737 45.5352 22.0169 45.8672 22.2188C46.1992 22.4206 46.5573 22.5215 46.9414 22.5215C47.2734 22.5215 47.599 22.4336 47.918 22.2578C48.237 22.0755 48.5169 21.8184 48.7578 21.4863C49.0052 21.1543 49.2038 20.7539 49.3535 20.2852C49.5033 19.8164 49.5781 19.2891 49.5781 18.7031C49.5781 18.1367 49.5195 17.6257 49.4023 17.1699C49.2852 16.7077 49.1191 16.3171 48.9043 15.998C48.6895 15.6725 48.4258 15.4219 48.1133 15.2461C47.8008 15.0703 47.4492 14.9824 47.0586 14.9824ZM48.7578 8.80078C48.4909 8.91797 48.2012 9.07096 47.8887 9.25977C47.5762 9.44206 47.2572 9.67318 46.9316 9.95312C46.6126 10.2331 46.2969 10.5651 45.9844 10.9492C45.6719 11.3268 45.3854 11.7695 45.125 12.2773C44.8646 12.7786 44.6367 13.3516 44.4414 13.9961C44.2461 14.6341 44.1061 15.3503 44.0215 16.1445C44.0866 16.0339 44.2038 15.8809 44.373 15.6855C44.5488 15.4902 44.7702 15.2982 45.0371 15.1094C45.304 14.9141 45.6165 14.748 45.9746 14.6113C46.3327 14.4681 46.7331 14.3965 47.1758 14.3965C47.7878 14.3965 48.3411 14.5007 48.8359 14.709C49.3307 14.9173 49.7474 15.2005 50.0859 15.5586C50.431 15.9102 50.6947 16.3203 50.877 16.7891C51.0658 17.2578 51.1602 17.7559 51.1602 18.2832C51.1602 19.0254 51.043 19.6895 50.8086 20.2754C50.5807 20.8613 50.2715 21.3594 49.8809 21.7695C49.4902 22.1732 49.0345 22.4824 48.5137 22.6973C47.9993 22.9121 47.4557 23.0195 46.8828 23.0195C46.2383 23.0195 45.6393 22.8763 45.0859 22.5898C44.5391 22.3034 44.0671 21.8965 43.6699 21.3691C43.2728 20.8418 42.9603 20.207 42.7324 19.4648C42.5111 18.7227 42.4004 17.8958 42.4004 16.9844C42.4004 16.2292 42.485 15.5033 42.6543 14.8066C42.8301 14.11 43.0677 13.459 43.3672 12.8535C43.6732 12.2415 44.028 11.6816 44.4316 11.1738C44.8353 10.666 45.265 10.2201 45.7207 9.83594C46.1829 9.45182 46.6582 9.13932 47.1465 8.89844C47.6413 8.65755 48.1263 8.49805 48.6016 8.41992L48.7578 8.80078Z" fill="#FFFCFA"/>
</svg>
