<svg width="58" height="73" viewBox="0 0 58 73" fill="none" xmlns="http://www.w3.org/2000/svg">
<rect x="0.5" y="0.5" width="57" height="72" stroke="#FFFCFA"/>
<path d="M42.957 9.80273C42.957 9.44466 42.9928 9.11914 43.0645 8.82617C43.1426 8.5332 43.2598 8.28255 43.416 8.07422C43.5723 7.85938 43.7676 7.69336 44.002 7.57617C44.2363 7.45898 44.513 7.40039 44.832 7.40039C45.2096 7.40039 45.584 7.44271 45.9551 7.52734C46.3262 7.61198 46.6973 7.70312 47.0684 7.80078C47.446 7.89844 47.8301 7.98958 48.2207 8.07422C48.6178 8.15885 49.028 8.20117 49.4512 8.20117C49.7246 8.20117 49.959 8.17839 50.1543 8.13281C50.3561 8.08073 50.5221 8.02214 50.6523 7.95703C50.8021 7.88542 50.929 7.80078 51.0332 7.70312L51.2773 7.99609C50.6393 8.66667 50.0892 9.30469 49.627 9.91016C49.1647 10.5091 48.7708 11.082 48.4453 11.6289C48.1198 12.1693 47.8561 12.6868 47.6543 13.1816C47.459 13.6764 47.306 14.1517 47.1953 14.6074C47.0846 15.0566 47.0098 15.4863 46.9707 15.8965C46.9316 16.3066 46.9121 16.7005 46.9121 17.0781C46.9121 17.6576 46.9382 18.1621 46.9902 18.5918C47.0488 19.0215 47.1107 19.3991 47.1758 19.7246C47.2474 20.0436 47.3092 20.3268 47.3613 20.5742C47.4199 20.8151 47.4492 21.043 47.4492 21.2578C47.4492 21.5312 47.3776 21.7233 47.2344 21.834C47.0977 21.9447 46.9251 22 46.7168 22C46.4889 22 46.2839 21.9707 46.1016 21.9121C45.9258 21.847 45.7728 21.7298 45.6426 21.5605C45.5189 21.3913 45.4212 21.1569 45.3496 20.8574C45.2845 20.5579 45.252 20.1706 45.252 19.6953C45.252 18.7253 45.3464 17.7617 45.5352 16.8047C45.724 15.8477 45.9974 14.9232 46.3555 14.0312C46.7135 13.1393 47.1497 12.2962 47.6641 11.502C48.1784 10.7077 48.7611 9.98828 49.4121 9.34375C49.321 9.36328 49.2168 9.37956 49.0996 9.39258C48.9889 9.39909 48.875 9.40234 48.7578 9.40234C48.4844 9.40234 48.1784 9.38281 47.8398 9.34375C47.5013 9.29818 47.1562 9.24935 46.8047 9.19727C46.4531 9.13867 46.1016 9.08984 45.75 9.05078C45.4049 9.00521 45.0859 8.98242 44.793 8.98242C44.4023 8.98242 44.0898 9.04427 43.8555 9.16797C43.6276 9.28516 43.4941 9.49674 43.4551 9.80273H42.957Z" fill="#FFFCFA"/>
</svg>
