<svg width="58" height="69" viewBox="0 0 58 69" fill="none" xmlns="http://www.w3.org/2000/svg">
<rect x="0.5" y="0.5" width="57" height="68" stroke="#FFFCFA"/>
<path d="M33.6992 20.2969L35.4961 20.2383C35.7435 20.2253 35.9225 20.1699 36.0332 20.0723C36.1439 19.9681 36.1992 19.7891 36.1992 19.5352V8.99805C35.9453 9.12826 35.6686 9.24544 35.3691 9.34961C35.1152 9.44076 34.819 9.52214 34.4805 9.59375C34.1419 9.66536 33.7806 9.70117 33.3965 9.70117V9.20312C33.7546 9.20312 34.1159 9.12174 34.4805 8.95898C34.8451 8.78971 35.1803 8.57487 35.4863 8.31445C35.7988 8.04753 36.069 7.74805 36.2969 7.41602C36.5312 7.07747 36.6973 6.73893 36.7949 6.40039H37.6934V19.5352C37.6934 19.7891 37.7487 19.9681 37.8594 20.0723C37.9701 20.1699 38.1491 20.2253 38.3965 20.2383L39.9004 20.2969V21H33.6992V20.2969ZM46.2969 20.502C46.8438 20.502 47.2962 20.3132 47.6543 19.9355C48.0189 19.5514 48.3053 19.0436 48.5137 18.4121C48.7285 17.7806 48.8783 17.0579 48.9629 16.2441C49.0475 15.4238 49.0898 14.5742 49.0898 13.6953C49.0898 13.1159 49.0703 12.5462 49.0312 11.9863C48.9987 11.4199 48.9401 10.8861 48.8555 10.3848C48.7708 9.87695 48.6569 9.41146 48.5137 8.98828C48.377 8.55859 48.2044 8.19076 47.9961 7.88477C47.7878 7.57227 47.5436 7.33138 47.2637 7.16211C46.9837 6.98633 46.6615 6.89844 46.2969 6.89844C45.9258 6.89844 45.6003 6.98633 45.3203 7.16211C45.0404 7.33138 44.7962 7.57227 44.5879 7.88477C44.3796 8.19076 44.2038 8.55859 44.0605 8.98828C43.9238 9.41146 43.8132 9.87695 43.7285 10.3848C43.6439 10.8861 43.582 11.4199 43.543 11.9863C43.5104 12.5462 43.4941 13.1159 43.4941 13.6953C43.4941 14.5742 43.5365 15.4238 43.6211 16.2441C43.7057 17.0579 43.8522 17.7806 44.0605 18.4121C44.2754 19.0436 44.5618 19.5514 44.9199 19.9355C45.2845 20.3132 45.7435 20.502 46.2969 20.502ZM46.2969 21C45.5417 21 44.8874 20.8177 44.334 20.4531C43.7871 20.082 43.3314 19.5742 42.9668 18.9297C42.6022 18.2786 42.332 17.5072 42.1562 16.6152C41.9805 15.7233 41.8926 14.75 41.8926 13.6953C41.8926 12.6471 41.9805 11.6771 42.1562 10.7852C42.332 9.89323 42.6022 9.125 42.9668 8.48047C43.3314 7.82943 43.7871 7.32161 44.334 6.95703C44.8874 6.58594 45.5417 6.40039 46.2969 6.40039C47.0456 6.40039 47.6966 6.58594 48.25 6.95703C48.8034 7.32161 49.2591 7.82943 49.6172 8.48047C49.9818 9.125 50.252 9.89323 50.4277 10.7852C50.6035 11.6771 50.6914 12.6471 50.6914 13.6953C50.6914 14.75 50.6035 15.7233 50.4277 16.6152C50.252 17.5072 49.9818 18.2786 49.6172 18.9297C49.2591 19.5742 48.8034 20.082 48.25 20.4531C47.6966 20.8177 47.0456 21 46.2969 21Z" fill="#FFFCFA"/>
</svg>
