<svg width="58" height="51" viewBox="0 0 58 51" fill="none" xmlns="http://www.w3.org/2000/svg">
<rect x="0.5" y="0.5" width="57" height="50" stroke="#FFFCFA"/>
<path d="M34.1094 22.2969L35.9062 22.2383C36.1536 22.2253 36.3327 22.1699 36.4434 22.0723C36.554 21.9681 36.6094 21.7891 36.6094 21.5352V10.998C36.3555 11.1283 36.0788 11.2454 35.7793 11.3496C35.5254 11.4408 35.2292 11.5221 34.8906 11.5938C34.5521 11.6654 34.1908 11.7012 33.8066 11.7012V11.2031C34.1647 11.2031 34.526 11.1217 34.8906 10.959C35.2552 10.7897 35.5905 10.5749 35.8965 10.3145C36.209 10.0475 36.4792 9.74805 36.707 9.41602C36.9414 9.07747 37.1074 8.73893 37.2051 8.40039H38.1035V21.5352C38.1035 21.7891 38.1589 21.9681 38.2695 22.0723C38.3802 22.1699 38.5592 22.2253 38.8066 22.2383L40.3105 22.2969V23H34.1094V22.2969ZM45.0078 15.1973C45.418 14.9824 45.8346 14.7253 46.2578 14.4258C46.6875 14.1263 47.0749 13.791 47.4199 13.4199C47.765 13.0423 48.0482 12.6257 48.2695 12.1699C48.4909 11.7142 48.6016 11.2227 48.6016 10.6953C48.6016 10.3568 48.5462 10.0638 48.4355 9.81641C48.3314 9.56901 48.1882 9.36719 48.0059 9.21094C47.8301 9.04818 47.6217 8.93099 47.3809 8.85938C47.14 8.78125 46.8861 8.74219 46.6191 8.74219C46.3132 8.74219 46.0169 8.80078 45.7305 8.91797C45.444 9.03516 45.1868 9.20117 44.959 9.41602C44.7311 9.62435 44.5488 9.87174 44.4121 10.1582C44.2754 10.4447 44.207 10.7572 44.207 11.0957C44.207 11.4017 44.2624 11.6686 44.373 11.8965C44.4837 12.1178 44.6074 12.3034 44.7441 12.4531C44.9004 12.6289 45.0794 12.7786 45.2812 12.9023L45.0664 13.3418C44.7083 13.2637 44.3991 13.153 44.1387 13.0098C43.8848 12.8665 43.6732 12.7038 43.5039 12.5215C43.3346 12.3327 43.2077 12.1309 43.123 11.916C43.0449 11.6947 43.0059 11.4701 43.0059 11.2422C43.0059 10.8841 43.0938 10.5293 43.2695 10.1777C43.4518 9.81966 43.709 9.4974 44.041 9.21094C44.3796 8.92448 44.7865 8.69336 45.2617 8.51758C45.737 8.33529 46.2708 8.24414 46.8633 8.24414C47.2799 8.24414 47.6868 8.28971 48.084 8.38086C48.4876 8.47201 48.8424 8.61523 49.1484 8.81055C49.4609 8.99935 49.7116 9.24349 49.9004 9.54297C50.0892 9.83594 50.1836 10.1875 50.1836 10.5977C50.1836 10.9362 50.1022 11.2682 49.9395 11.5938C49.7832 11.9193 49.5814 12.235 49.334 12.541C49.0931 12.8405 48.8229 13.1237 48.5234 13.3906C48.2305 13.651 47.9473 13.8887 47.6738 14.1035C47.4069 14.3184 47.166 14.5039 46.9512 14.6602C46.7363 14.8099 46.5866 14.9238 46.502 15.002C47.1986 15.028 47.8203 15.1484 48.3672 15.3633C48.9141 15.5781 49.373 15.8581 49.7441 16.2031C50.1217 16.5482 50.4082 16.9453 50.6035 17.3945C50.8053 17.8438 50.9062 18.3125 50.9062 18.8008C50.9062 19.2695 50.8379 19.6992 50.7012 20.0898C50.5645 20.4805 50.3757 20.832 50.1348 21.1445C49.8939 21.457 49.6107 21.7305 49.2852 21.9648C48.9596 22.1992 48.6081 22.3945 48.2305 22.5508C47.8594 22.707 47.4688 22.8242 47.0586 22.9023C46.6549 22.9805 46.2513 23.0195 45.8477 23.0195C45.3333 23.0195 44.8385 22.9577 44.3633 22.834C43.888 22.7103 43.4681 22.5247 43.1035 22.2773C42.7389 22.0234 42.446 21.7077 42.2246 21.3301C42.0098 20.9525 41.9023 20.5098 41.9023 20.002C41.9023 19.7285 41.9382 19.4583 42.0098 19.1914C42.0879 18.918 42.1888 18.6608 42.3125 18.4199C42.4427 18.1725 42.5924 17.9414 42.7617 17.7266C42.9375 17.5052 43.1263 17.3099 43.3281 17.1406L43.6797 17.4043C43.5234 17.7168 43.4062 18.0358 43.3281 18.3613C43.2565 18.6803 43.2207 18.9993 43.2207 19.3184C43.2207 19.8392 43.3086 20.2949 43.4844 20.6855C43.6602 21.0762 43.8913 21.4017 44.1777 21.6621C44.4642 21.9225 44.7897 22.1178 45.1543 22.248C45.5254 22.3783 45.903 22.4434 46.2871 22.4434C46.6647 22.4434 47.0358 22.3783 47.4004 22.248C47.765 22.1178 48.0905 21.9258 48.377 21.6719C48.6699 21.418 48.9043 21.1022 49.0801 20.7246C49.2559 20.3405 49.3438 19.8978 49.3438 19.3965C49.3438 18.9668 49.2559 18.5339 49.0801 18.0977C48.9108 17.6549 48.6536 17.2578 48.3086 16.9062C47.9635 16.5482 47.5306 16.2585 47.0098 16.0371C46.4954 15.8092 45.8932 15.6953 45.2031 15.6953L45.0078 15.1973Z" fill="#FFFCFA"/>
</svg>
