<svg width="119" height="51" viewBox="0 0 119 51" fill="none" xmlns="http://www.w3.org/2000/svg">
<rect x="0.5" y="0.5" width="118" height="50" stroke="#FFFCFA"/>
<path d="M48.2041 25.2959C48.8193 24.9736 49.4443 24.5879 50.0791 24.1387C50.7236 23.6895 51.3047 23.1865 51.8223 22.6299C52.3398 22.0635 52.7646 21.4385 53.0967 20.7549C53.4287 20.0713 53.5947 19.334 53.5947 18.543C53.5947 18.0352 53.5117 17.5957 53.3457 17.2246C53.1895 16.8535 52.9746 16.5508 52.7012 16.3164C52.4375 16.0723 52.125 15.8965 51.7637 15.7891C51.4023 15.6719 51.0215 15.6133 50.6211 15.6133C50.1621 15.6133 49.7178 15.7012 49.2881 15.877C48.8584 16.0527 48.4727 16.3018 48.1309 16.624C47.7891 16.9365 47.5156 17.3076 47.3105 17.7373C47.1055 18.167 47.0029 18.6357 47.0029 19.1436C47.0029 19.6025 47.0859 20.0029 47.252 20.3447C47.418 20.6768 47.6035 20.9551 47.8086 21.1797C48.043 21.4434 48.3115 21.668 48.6143 21.8535L48.292 22.5127C47.7549 22.3955 47.291 22.2295 46.9004 22.0146C46.5195 21.7998 46.2021 21.5557 45.9482 21.2822C45.6943 20.999 45.5039 20.6963 45.377 20.374C45.2598 20.042 45.2012 19.7051 45.2012 19.3633C45.2012 18.8262 45.333 18.2939 45.5967 17.7666C45.8701 17.2295 46.2559 16.7461 46.7539 16.3164C47.2617 15.8867 47.8721 15.54 48.585 15.2764C49.2979 15.0029 50.0986 14.8662 50.9873 14.8662C51.6123 14.8662 52.2227 14.9346 52.8184 15.0713C53.4238 15.208 53.9561 15.4229 54.415 15.7158C54.8838 15.999 55.2598 16.3652 55.543 16.8145C55.8262 17.2539 55.9678 17.7812 55.9678 18.3965C55.9678 18.9043 55.8457 19.4023 55.6016 19.8906C55.3672 20.3789 55.0645 20.8525 54.6934 21.3115C54.332 21.7607 53.9268 22.1855 53.4775 22.5859C53.0381 22.9766 52.6133 23.333 52.2031 23.6553C51.8027 23.9775 51.4414 24.2559 51.1191 24.4902C50.7969 24.7148 50.5723 24.8857 50.4453 25.0029C51.4902 25.042 52.4229 25.2227 53.2432 25.5449C54.0635 25.8672 54.752 26.2871 55.3086 26.8047C55.875 27.3223 56.3047 27.918 56.5977 28.5918C56.9004 29.2656 57.0518 29.9688 57.0518 30.7012C57.0518 31.4043 56.9492 32.0488 56.7441 32.6348C56.5391 33.2207 56.2559 33.748 55.8945 34.2168C55.5332 34.6855 55.1084 35.0957 54.6201 35.4473C54.1318 35.7988 53.6045 36.0918 53.0381 36.3262C52.4814 36.5605 51.8955 36.7363 51.2803 36.8535C50.6748 36.9707 50.0693 37.0293 49.4639 37.0293C48.6924 37.0293 47.9502 36.9365 47.2373 36.751C46.5244 36.5654 45.8945 36.2871 45.3477 35.916C44.8008 35.5352 44.3613 35.0615 44.0293 34.4951C43.707 33.9287 43.5459 33.2646 43.5459 32.5029C43.5459 32.0928 43.5996 31.6875 43.707 31.2871C43.8242 30.877 43.9756 30.4912 44.1611 30.1299C44.3564 29.7588 44.5811 29.4121 44.835 29.0898C45.0986 28.7578 45.3818 28.4648 45.6846 28.2109L46.2119 28.6064C45.9775 29.0752 45.8018 29.5537 45.6846 30.042C45.5771 30.5205 45.5234 30.999 45.5234 31.4775C45.5234 32.2588 45.6553 32.9424 45.9189 33.5283C46.1826 34.1143 46.5293 34.6025 46.959 34.9932C47.3887 35.3838 47.877 35.6768 48.4238 35.8721C48.9805 36.0674 49.5469 36.165 50.123 36.165C50.6895 36.165 51.2461 36.0674 51.793 35.8721C52.3398 35.6768 52.8281 35.3887 53.2578 35.0078C53.6973 34.627 54.0488 34.1533 54.3125 33.5869C54.5762 33.0107 54.708 32.3467 54.708 31.5947C54.708 30.9502 54.5762 30.3008 54.3125 29.6465C54.0586 28.9824 53.6729 28.3867 53.1553 27.8594C52.6377 27.3223 51.9883 26.8877 51.207 26.5557C50.4355 26.2139 49.5322 26.043 48.4971 26.043L48.2041 25.2959ZM67.2471 36.2529C68.0674 36.2529 68.7461 35.9697 69.2832 35.4033C69.8301 34.8271 70.2598 34.0654 70.5723 33.1182C70.8945 32.1709 71.1191 31.0869 71.2461 29.8662C71.373 28.6357 71.4365 27.3613 71.4365 26.043C71.4365 25.1738 71.4072 24.3193 71.3486 23.4795C71.2998 22.6299 71.2119 21.8291 71.085 21.0771C70.958 20.3154 70.7871 19.6172 70.5723 18.9824C70.3672 18.3379 70.1084 17.7861 69.7959 17.3271C69.4834 16.8584 69.1172 16.4971 68.6973 16.2432C68.2773 15.9795 67.7939 15.8477 67.2471 15.8477C66.6904 15.8477 66.2021 15.9795 65.7822 16.2432C65.3623 16.4971 64.9961 16.8584 64.6836 17.3271C64.3711 17.7861 64.1074 18.3379 63.8926 18.9824C63.6875 19.6172 63.5215 20.3154 63.3945 21.0771C63.2676 21.8291 63.1748 22.6299 63.1162 23.4795C63.0674 24.3193 63.043 25.1738 63.043 26.043C63.043 27.3613 63.1064 28.6357 63.2334 29.8662C63.3604 31.0869 63.5801 32.1709 63.8926 33.1182C64.2148 34.0654 64.6445 34.8271 65.1816 35.4033C65.7285 35.9697 66.417 36.2529 67.2471 36.2529ZM67.2471 37C66.1143 37 65.1328 36.7266 64.3027 36.1797C63.4824 35.623 62.7988 34.8613 62.252 33.8945C61.7051 32.918 61.2998 31.7607 61.0361 30.4229C60.7725 29.085 60.6406 27.625 60.6406 26.043C60.6406 24.4707 60.7725 23.0156 61.0361 21.6777C61.2998 20.3398 61.7051 19.1875 62.252 18.2207C62.7988 17.2441 63.4824 16.4824 64.3027 15.9355C65.1328 15.3789 66.1143 15.1006 67.2471 15.1006C68.3701 15.1006 69.3467 15.3789 70.1768 15.9355C71.0068 16.4824 71.6904 17.2441 72.2275 18.2207C72.7744 19.1875 73.1797 20.3398 73.4434 21.6777C73.707 23.0156 73.8389 24.4707 73.8389 26.043C73.8389 27.625 73.707 29.085 73.4434 30.4229C73.1797 31.7607 72.7744 32.918 72.2275 33.8945C71.6904 34.8613 71.0068 35.623 70.1768 36.1797C69.3467 36.7266 68.3701 37 67.2471 37Z" fill="#FFFCFA"/>
</svg>
