<svg width="58" height="51" viewBox="0 0 58 51" fill="none" xmlns="http://www.w3.org/2000/svg">
<rect x="0.5" y="0.5" width="57" height="50" stroke="#FFFCFA"/>
<path d="M9 32.2969L10.7969 32.2383C11.0443 32.2253 11.2233 32.1699 11.334 32.0723C11.4447 31.9681 11.5 31.7891 11.5 31.5352V20.998C11.2461 21.1283 10.9694 21.2454 10.6699 21.3496C10.416 21.4408 10.1198 21.5221 9.78125 21.5938C9.44271 21.6654 9.08138 21.7012 8.69727 21.7012V21.2031C9.05534 21.2031 9.41667 21.1217 9.78125 20.959C10.1458 20.7897 10.4811 20.5749 10.7871 20.3145C11.0996 20.0475 11.3698 19.748 11.5977 19.416C11.832 19.0775 11.998 18.7389 12.0957 18.4004H12.9941V31.5352C12.9941 31.7891 13.0495 31.9681 13.1602 32.0723C13.2708 32.1699 13.4499 32.2253 13.6973 32.2383L15.2012 32.2969V33H9V32.2969ZM16.5977 32.2969L18.3945 32.2383C18.6419 32.2253 18.821 32.1699 18.9316 32.0723C19.0423 31.9681 19.0977 31.7891 19.0977 31.5352V20.998C18.8438 21.1283 18.5671 21.2454 18.2676 21.3496C18.0137 21.4408 17.7174 21.5221 17.3789 21.5938C17.0404 21.6654 16.679 21.7012 16.2949 21.7012V21.2031C16.653 21.2031 17.0143 21.1217 17.3789 20.959C17.7435 20.7897 18.0788 20.5749 18.3848 20.3145C18.6973 20.0475 18.9674 19.748 19.1953 19.416C19.4297 19.0775 19.5957 18.7389 19.6934 18.4004H20.5918V31.5352C20.5918 31.7891 20.6471 31.9681 20.7578 32.0723C20.8685 32.1699 21.0475 32.2253 21.2949 32.2383L22.7988 32.2969V33H16.5977V32.2969ZM24.293 32.1016C24.293 31.9779 24.3158 31.8607 24.3613 31.75C24.4069 31.6393 24.4688 31.5449 24.5469 31.4668C24.6315 31.3822 24.7292 31.3171 24.8398 31.2715C24.9505 31.2259 25.0677 31.2031 25.1914 31.2031C25.3151 31.2031 25.4323 31.2259 25.543 31.2715C25.6536 31.3171 25.748 31.3822 25.8262 31.4668C25.9108 31.5449 25.9759 31.6393 26.0215 31.75C26.0671 31.8607 26.0898 31.9779 26.0898 32.1016C26.0898 32.2253 26.0671 32.3424 26.0215 32.4531C25.9759 32.5638 25.9108 32.6615 25.8262 32.7461C25.748 32.8242 25.6536 32.8861 25.543 32.9316C25.4323 32.9772 25.3151 33 25.1914 33C25.0677 33 24.9505 32.9772 24.8398 32.9316C24.7292 32.8861 24.6315 32.8242 24.5469 32.7461C24.4688 32.6615 24.4069 32.5638 24.3613 32.4531C24.3158 32.3424 24.293 32.2253 24.293 32.1016ZM31.3047 25.1973C31.7148 24.9824 32.1315 24.7253 32.5547 24.4258C32.9844 24.1263 33.3717 23.791 33.7168 23.4199C34.0618 23.0423 34.3451 22.6257 34.5664 22.1699C34.7878 21.7142 34.8984 21.2227 34.8984 20.6953C34.8984 20.3568 34.8431 20.0638 34.7324 19.8164C34.6283 19.569 34.485 19.3672 34.3027 19.2109C34.127 19.0482 33.9186 18.931 33.6777 18.8594C33.4368 18.7812 33.1829 18.7422 32.916 18.7422C32.61 18.7422 32.3138 18.8008 32.0273 18.918C31.7409 19.0352 31.4837 19.2012 31.2559 19.416C31.028 19.6243 30.8457 19.8717 30.709 20.1582C30.5723 20.4447 30.5039 20.7572 30.5039 21.0957C30.5039 21.4017 30.5592 21.6686 30.6699 21.8965C30.7806 22.1178 30.9043 22.3034 31.041 22.4531C31.1973 22.6289 31.3763 22.7786 31.5781 22.9023L31.3633 23.3418C31.0052 23.2637 30.696 23.153 30.4355 23.0098C30.1816 22.8665 29.9701 22.7038 29.8008 22.5215C29.6315 22.3327 29.5046 22.1309 29.4199 21.916C29.3418 21.6947 29.3027 21.4701 29.3027 21.2422C29.3027 20.8841 29.3906 20.5293 29.5664 20.1777C29.7487 19.8197 30.0059 19.4974 30.3379 19.2109C30.6764 18.9245 31.0833 18.6934 31.5586 18.5176C32.0339 18.3353 32.5677 18.2441 33.1602 18.2441C33.5768 18.2441 33.9837 18.2897 34.3809 18.3809C34.7845 18.472 35.1393 18.6152 35.4453 18.8105C35.7578 18.9993 36.0085 19.2435 36.1973 19.543C36.3861 19.8359 36.4805 20.1875 36.4805 20.5977C36.4805 20.9362 36.3991 21.2682 36.2363 21.5938C36.0801 21.9193 35.8783 22.235 35.6309 22.541C35.39 22.8405 35.1198 23.1237 34.8203 23.3906C34.5273 23.651 34.2441 23.8887 33.9707 24.1035C33.7038 24.3184 33.4629 24.5039 33.248 24.6602C33.0332 24.8099 32.8835 24.9238 32.7988 25.002C33.4954 25.028 34.1172 25.1484 34.6641 25.3633C35.2109 25.5781 35.6699 25.8581 36.041 26.2031C36.4186 26.5482 36.7051 26.9453 36.9004 27.3945C37.1022 27.8438 37.2031 28.3125 37.2031 28.8008C37.2031 29.2695 37.1348 29.6992 36.998 30.0898C36.8613 30.4805 36.6725 30.832 36.4316 31.1445C36.1908 31.457 35.9076 31.7305 35.582 31.9648C35.2565 32.1992 34.9049 32.3945 34.5273 32.5508C34.1562 32.707 33.7656 32.8242 33.3555 32.9023C32.9518 32.9805 32.5482 33.0195 32.1445 33.0195C31.6302 33.0195 31.1354 32.9577 30.6602 32.834C30.1849 32.7103 29.765 32.5247 29.4004 32.2773C29.0358 32.0234 28.7428 31.7077 28.5215 31.3301C28.3066 30.9525 28.1992 30.5098 28.1992 30.002C28.1992 29.7285 28.235 29.4583 28.3066 29.1914C28.3848 28.918 28.4857 28.6608 28.6094 28.4199C28.7396 28.1725 28.8893 27.9414 29.0586 27.7266C29.2344 27.5052 29.4232 27.3099 29.625 27.1406L29.9766 27.4043C29.8203 27.7168 29.7031 28.0358 29.625 28.3613C29.5534 28.6803 29.5176 28.9993 29.5176 29.3184C29.5176 29.8392 29.6055 30.2949 29.7812 30.6855C29.957 31.0762 30.1882 31.4017 30.4746 31.6621C30.7611 31.9225 31.0866 32.1178 31.4512 32.248C31.8223 32.3783 32.1999 32.4434 32.584 32.4434C32.9616 32.4434 33.3327 32.3783 33.6973 32.248C34.0618 32.1178 34.3874 31.9258 34.6738 31.6719C34.9668 31.418 35.2012 31.1022 35.377 30.7246C35.5527 30.3405 35.6406 29.8978 35.6406 29.3965C35.6406 28.9668 35.5527 28.5339 35.377 28.0977C35.2077 27.6549 34.9505 27.2578 34.6055 26.9062C34.2604 26.5482 33.8275 26.2585 33.3066 26.0371C32.7923 25.8092 32.1901 25.6953 31.5 25.6953L31.3047 25.1973ZM44 32.502C44.5469 32.502 44.9993 32.3132 45.3574 31.9355C45.722 31.5514 46.0085 31.0436 46.2168 30.4121C46.4316 29.7806 46.5814 29.0579 46.666 28.2441C46.7507 27.4238 46.793 26.5742 46.793 25.6953C46.793 25.1159 46.7734 24.5462 46.7344 23.9863C46.7018 23.4199 46.6432 22.8861 46.5586 22.3848C46.474 21.877 46.36 21.4115 46.2168 20.9883C46.0801 20.5586 45.9076 20.1908 45.6992 19.8848C45.4909 19.5723 45.2467 19.3314 44.9668 19.1621C44.6868 18.9863 44.3646 18.8984 44 18.8984C43.6289 18.8984 43.3034 18.9863 43.0234 19.1621C42.7435 19.3314 42.4993 19.5723 42.291 19.8848C42.0827 20.1908 41.9069 20.5586 41.7637 20.9883C41.627 21.4115 41.5163 21.877 41.4316 22.3848C41.347 22.8861 41.2852 23.4199 41.2461 23.9863C41.2135 24.5462 41.1973 25.1159 41.1973 25.6953C41.1973 26.5742 41.2396 27.4238 41.3242 28.2441C41.4089 29.0579 41.5553 29.7806 41.7637 30.4121C41.9785 31.0436 42.265 31.5514 42.623 31.9355C42.9876 32.3132 43.4466 32.502 44 32.502ZM44 33C43.2448 33 42.5905 32.8177 42.0371 32.4531C41.4902 32.082 41.0345 31.5742 40.6699 30.9297C40.3053 30.2786 40.0352 29.5072 39.8594 28.6152C39.6836 27.7233 39.5957 26.75 39.5957 25.6953C39.5957 24.6471 39.6836 23.6771 39.8594 22.7852C40.0352 21.8932 40.3053 21.125 40.6699 20.4805C41.0345 19.8294 41.4902 19.3216 42.0371 18.957C42.5905 18.5859 43.2448 18.4004 44 18.4004C44.7487 18.4004 45.3997 18.5859 45.9531 18.957C46.5065 19.3216 46.9622 19.8294 47.3203 20.4805C47.6849 21.125 47.9551 21.8932 48.1309 22.7852C48.3066 23.6771 48.3945 24.6471 48.3945 25.6953C48.3945 26.75 48.3066 27.7233 48.1309 28.6152C47.9551 29.5072 47.6849 30.2786 47.3203 30.9297C46.9622 31.5742 46.5065 32.082 45.9531 32.4531C45.3997 32.8177 44.7487 33 44 33Z" fill="#FFFCFA"/>
</svg>
