<svg width="58" height="51" viewBox="0 0 58 51" fill="none" xmlns="http://www.w3.org/2000/svg">
<rect x="0.5" y="0.5" width="57" height="50" stroke="#FFFCFA"/>
<path d="M36.4795 28.9971C36.4795 30.042 36.2744 30.9844 35.8643 31.8242C35.4639 32.6641 34.9316 33.3818 34.2676 33.9775C33.6133 34.5635 32.8613 35.0176 32.0117 35.3398C31.1719 35.6621 30.3125 35.8232 29.4336 35.8232C28.457 35.8232 27.5391 35.6816 26.6797 35.3984C25.8301 35.1055 25.083 34.6953 24.4385 34.168C23.8037 33.6406 23.3008 33.0059 22.9297 32.2637C22.5684 31.5215 22.3877 30.6914 22.3877 29.7734C22.3877 28.8848 22.5439 28.1035 22.8564 27.4297C23.1689 26.7559 23.5791 26.1602 24.0869 25.6426C24.5947 25.1152 25.1758 24.6465 25.8301 24.2363C26.4844 23.8164 27.1484 23.4209 27.8223 23.0498C27.3438 22.7178 26.8945 22.3711 26.4746 22.0098C26.0547 21.6387 25.6836 21.248 25.3613 20.8379C25.0488 20.4277 24.7998 19.9883 24.6143 19.5195C24.4287 19.0508 24.3359 18.5381 24.3359 17.9814C24.3359 17.249 24.4824 16.5947 24.7754 16.0186C25.0684 15.4424 25.4541 14.9541 25.9326 14.5537C26.4111 14.1533 26.9531 13.8506 27.5586 13.6455C28.1738 13.4307 28.7988 13.3232 29.4336 13.3232C30.166 13.3232 30.8398 13.4258 31.4551 13.6309C32.0801 13.8262 32.6172 14.1094 33.0664 14.4805C33.5254 14.8418 33.8818 15.2813 34.1357 15.7988C34.3994 16.3164 34.5312 16.8926 34.5312 17.5273C34.5312 18.1035 34.4385 18.6162 34.2529 19.0654C34.0674 19.5049 33.8135 19.9053 33.4912 20.2666C33.1787 20.6279 32.8076 20.96 32.3779 21.2627C31.958 21.5654 31.5088 21.8535 31.0303 22.127C31.6943 22.5469 32.3535 22.9863 33.0078 23.4453C33.6621 23.8945 34.2432 24.3975 34.751 24.9541C35.2686 25.501 35.6836 26.1064 35.9961 26.7705C36.3184 27.4248 36.4795 28.167 36.4795 28.9971ZM24.3359 29.8906C24.3359 30.7402 24.4775 31.4873 24.7607 32.1318C25.0537 32.7764 25.4395 33.3184 25.918 33.7578C26.3965 34.1875 26.9385 34.5146 27.5439 34.7393C28.1592 34.9639 28.7891 35.0762 29.4336 35.0762C30.0879 35.0762 30.7129 34.9785 31.3086 34.7832C31.9043 34.5781 32.4268 34.2705 32.876 33.8604C33.335 33.4502 33.7012 32.9375 33.9746 32.3223C34.248 31.6973 34.3848 30.9648 34.3848 30.125C34.3848 29.3633 34.209 28.6797 33.8574 28.0742C33.5059 27.459 33.0518 26.8926 32.4951 26.375C31.9385 25.8574 31.3086 25.374 30.6055 24.9248C29.9121 24.4658 29.2236 24.002 28.54 23.5332C27.9834 23.8652 27.4512 24.2266 26.9434 24.6172C26.4355 24.998 25.9863 25.4424 25.5957 25.9502C25.2148 26.4482 24.9072 27.0195 24.6729 27.6641C24.4482 28.3086 24.3359 29.0508 24.3359 29.8906ZM33.0371 17.3809C33.0371 16.873 32.9541 16.4092 32.7881 15.9893C32.6318 15.5596 32.3975 15.1934 32.085 14.8906C31.7822 14.5879 31.4062 14.3535 30.957 14.1875C30.5078 14.0117 30 13.9238 29.4336 13.9238C28.9941 13.9238 28.5742 13.9971 28.1738 14.1436C27.7734 14.29 27.4219 14.5 27.1191 14.7734C26.8164 15.0371 26.5771 15.3643 26.4014 15.7549C26.2256 16.1455 26.1377 16.585 26.1377 17.0732C26.1377 17.5518 26.25 17.9961 26.4746 18.4062C26.6992 18.8066 26.9971 19.1924 27.3682 19.5635C27.749 19.9248 28.1836 20.2764 28.6719 20.6182C29.1699 20.9502 29.6924 21.2822 30.2393 21.6143C30.6396 21.3506 31.0107 21.0723 31.3525 20.7793C31.6943 20.4863 31.9873 20.1689 32.2314 19.8271C32.4854 19.4756 32.6807 19.0996 32.8174 18.6992C32.9639 18.2988 33.0371 17.8594 33.0371 17.3809Z" fill="#FFFCFA"/>
</svg>
