<svg width="58" height="48" viewBox="0 0 58 48" fill="none" xmlns="http://www.w3.org/2000/svg">
<rect x="0.5" y="0.5" width="57" height="47" stroke="#FFFCFA"/>
<path d="M46.959 13.9824C46.6074 13.9824 46.2591 14.0736 45.9141 14.2559C45.569 14.4316 45.263 14.6758 44.9961 14.9883C44.7292 15.3008 44.5111 15.6719 44.3418 16.1016C44.179 16.5312 44.0977 16.9967 44.0977 17.498C44.0977 18.0775 44.1693 18.6146 44.3125 19.1094C44.4557 19.5977 44.651 20.0208 44.8984 20.3789C45.1458 20.737 45.4355 21.0169 45.7676 21.2188C46.0996 21.4206 46.4577 21.5215 46.8418 21.5215C47.1738 21.5215 47.4993 21.4336 47.8184 21.2578C48.1374 21.0755 48.4173 20.8184 48.6582 20.4863C48.9056 20.1543 49.1042 19.7539 49.2539 19.2852C49.4036 18.8164 49.4785 18.2891 49.4785 17.7031C49.4785 17.1367 49.4199 16.6257 49.3027 16.1699C49.1855 15.7077 49.0195 15.3171 48.8047 14.998C48.5898 14.6725 48.3262 14.4219 48.0137 14.2461C47.7012 14.0703 47.3496 13.9824 46.959 13.9824ZM48.6582 7.80078C48.3913 7.91797 48.1016 8.07096 47.7891 8.25977C47.4766 8.44206 47.1576 8.67318 46.832 8.95312C46.513 9.23307 46.1973 9.5651 45.8848 9.94922C45.5723 10.3268 45.2858 10.7695 45.0254 11.2773C44.765 11.7786 44.5371 12.3516 44.3418 12.9961C44.1465 13.6341 44.0065 14.3503 43.9219 15.1445C43.987 15.0339 44.1042 14.8809 44.2734 14.6855C44.4492 14.4902 44.6706 14.2982 44.9375 14.1094C45.2044 13.9141 45.5169 13.748 45.875 13.6113C46.2331 13.4681 46.6335 13.3965 47.0762 13.3965C47.6882 13.3965 48.2415 13.5007 48.7363 13.709C49.2311 13.9173 49.6478 14.2005 49.9863 14.5586C50.3314 14.9102 50.5951 15.3203 50.7773 15.7891C50.9661 16.2578 51.0605 16.7559 51.0605 17.2832C51.0605 18.0254 50.9434 18.6895 50.709 19.2754C50.4811 19.8613 50.1719 20.3594 49.7812 20.7695C49.3906 21.1732 48.9349 21.4824 48.4141 21.6973C47.8997 21.9121 47.3561 22.0195 46.7832 22.0195C46.1387 22.0195 45.5397 21.8763 44.9863 21.5898C44.4395 21.3034 43.9674 20.8965 43.5703 20.3691C43.1732 19.8418 42.8607 19.207 42.6328 18.4648C42.4115 17.7227 42.3008 16.8958 42.3008 15.9844C42.3008 15.2292 42.3854 14.5033 42.5547 13.8066C42.7305 13.11 42.9681 12.459 43.2676 11.8535C43.5736 11.2415 43.9284 10.6816 44.332 10.1738C44.7357 9.66602 45.1654 9.22005 45.6211 8.83594C46.0833 8.45182 46.5586 8.13932 47.0469 7.89844C47.5417 7.65755 48.0267 7.49805 48.502 7.41992L48.6582 7.80078Z" fill="#FFFCFA"/>
</svg>
