<svg width="58" height="46" viewBox="0 0 58 46" fill="none" xmlns="http://www.w3.org/2000/svg">
<rect x="0.5" y="0.5" width="57" height="45" stroke="#FFFCFA"/>
<path d="M17.5371 33.9453L20.2324 33.8574C20.6035 33.8379 20.8721 33.7549 21.0381 33.6084C21.2041 33.4521 21.2871 33.1836 21.2871 32.8027V16.9971C20.9062 17.1924 20.4912 17.3682 20.042 17.5244C19.6611 17.6611 19.2168 17.7832 18.709 17.8906C18.2012 17.998 17.6592 18.0518 17.083 18.0518V17.3047C17.6201 17.3047 18.1621 17.1826 18.709 16.9385C19.2559 16.6846 19.7588 16.3623 20.2178 15.9717C20.6865 15.5713 21.0918 15.1221 21.4336 14.624C21.7852 14.1162 22.0342 13.6084 22.1807 13.1006H23.5283V32.8027C23.5283 33.1836 23.6113 33.4521 23.7773 33.6084C23.9434 33.7549 24.2119 33.8379 24.583 33.8574L26.8389 33.9453V35H17.5371V33.9453ZM28.875 16.7041C28.875 16.167 28.9287 15.6787 29.0361 15.2393C29.1533 14.7998 29.3291 14.4238 29.5635 14.1113C29.7979 13.7891 30.0908 13.54 30.4424 13.3643C30.7939 13.1885 31.209 13.1006 31.6875 13.1006C32.2539 13.1006 32.8154 13.1641 33.3721 13.291C33.9287 13.418 34.4854 13.5547 35.042 13.7012C35.6084 13.8477 36.1846 13.9844 36.7705 14.1113C37.3662 14.2383 37.9814 14.3018 38.6162 14.3018C39.0264 14.3018 39.3779 14.2676 39.6709 14.1992C39.9736 14.1211 40.2227 14.0332 40.418 13.9355C40.6426 13.8281 40.833 13.7012 40.9893 13.5547L41.3555 13.9941C40.3984 15 39.5732 15.957 38.8799 16.8652C38.1865 17.7637 37.5957 18.623 37.1074 19.4434C36.6191 20.2539 36.2236 21.0303 35.9209 21.7725C35.6279 22.5146 35.3984 23.2275 35.2324 23.9111C35.0664 24.585 34.9541 25.2295 34.8955 25.8447C34.8369 26.46 34.8076 27.0508 34.8076 27.6172C34.8076 28.4863 34.8467 29.2432 34.9248 29.8877C35.0127 30.5322 35.1055 31.0986 35.2031 31.5869C35.3105 32.0654 35.4033 32.4902 35.4814 32.8613C35.5693 33.2227 35.6133 33.5645 35.6133 33.8867C35.6133 34.2969 35.5059 34.585 35.291 34.751C35.0859 34.917 34.8271 35 34.5146 35C34.1729 35 33.8652 34.9561 33.5918 34.8682C33.3281 34.7705 33.0986 34.5947 32.9033 34.3408C32.7178 34.0869 32.5713 33.7354 32.4639 33.2861C32.3662 32.8369 32.3174 32.2559 32.3174 31.543C32.3174 30.0879 32.459 28.6426 32.7422 27.207C33.0254 25.7715 33.4355 24.3848 33.9727 23.0469C34.5098 21.709 35.1641 20.4443 35.9355 19.2529C36.707 18.0615 37.5811 16.9824 38.5576 16.0156C38.4209 16.0449 38.2646 16.0693 38.0889 16.0889C37.9229 16.0986 37.752 16.1035 37.5762 16.1035C37.166 16.1035 36.707 16.0742 36.1992 16.0156C35.6914 15.9473 35.1738 15.874 34.6465 15.7959C34.1191 15.708 33.5918 15.6348 33.0645 15.5762C32.5469 15.5078 32.0684 15.4736 31.6289 15.4736C31.043 15.4736 30.5742 15.5664 30.2227 15.752C29.8809 15.9277 29.6807 16.2451 29.6221 16.7041H28.875Z" fill="#FFFCFA"/>
</svg>
