<svg width="58" height="52" viewBox="0 0 58 52" fill="none" xmlns="http://www.w3.org/2000/svg">
<rect x="0.5" y="1.5" width="57" height="50" stroke="#FFFCFA"/>
<path d="M30.4961 21.8291C30.4961 21.7705 30.4928 21.7087 30.4863 21.6436C30.4798 21.5719 30.4766 21.5068 30.4766 21.4482C30.4766 20.6214 30.584 19.8955 30.7988 19.2705C31.0202 18.639 31.3066 18.0791 31.6582 17.5908C32.0163 17.1025 32.4232 16.6663 32.8789 16.2822C33.3346 15.8981 33.8001 15.5368 34.2754 15.1982C34.7507 14.8597 35.2161 14.5309 35.6719 14.2119C36.1276 13.8864 36.5312 13.5413 36.8828 13.1768C37.2409 12.8057 37.5273 12.402 37.7422 11.9658C37.9635 11.5231 38.0742 11.012 38.0742 10.4326C38.0742 9.9834 37.9993 9.57324 37.8496 9.20215C37.6999 8.83105 37.4915 8.5153 37.2246 8.25488C36.9577 7.98796 36.6419 7.78288 36.2773 7.63965C35.9128 7.49642 35.5189 7.4248 35.0957 7.4248C34.5944 7.4248 34.1484 7.52246 33.7578 7.71777C33.3672 7.90658 33.0352 8.14421 32.7617 8.43066C32.4948 8.71712 32.2897 9.02962 32.1465 9.36816C32.0033 9.70671 31.9316 10.0257 31.9316 10.3252C31.9316 10.6247 31.974 10.8818 32.0586 11.0967C32.1497 11.305 32.2669 11.4775 32.4102 11.6143C32.5599 11.751 32.7259 11.8519 32.9082 11.917C33.097 11.9756 33.2923 12.0049 33.4941 12.0049C33.7155 12.0049 33.9303 11.9723 34.1387 11.9072C34.3535 11.8421 34.5521 11.751 34.7344 11.6338L35.0566 12.0244C34.959 12.1742 34.8353 12.3304 34.6855 12.4932C34.5358 12.6559 34.3665 12.8057 34.1777 12.9424C33.9889 13.0726 33.7806 13.18 33.5527 13.2646C33.3314 13.3493 33.0938 13.3916 32.8398 13.3916C32.5729 13.3916 32.3125 13.346 32.0586 13.2549C31.8112 13.1637 31.5898 13.0238 31.3945 12.835C31.2057 12.6396 31.0527 12.3955 30.9355 12.1025C30.8184 11.8031 30.7598 11.445 30.7598 11.0283C30.7598 10.6051 30.8574 10.1527 31.0527 9.6709C31.2546 9.18913 31.5475 8.74642 31.9316 8.34277C32.3158 7.93262 32.7845 7.59408 33.3379 7.32715C33.8978 7.06022 34.5358 6.92676 35.252 6.92676C35.7793 6.92676 36.2871 7.02767 36.7754 7.22949C37.2702 7.43132 37.7064 7.71126 38.084 8.06934C38.4681 8.4209 38.7741 8.84408 39.002 9.33887C39.2363 9.82715 39.3535 10.3577 39.3535 10.9307C39.3535 11.5687 39.2591 12.1188 39.0703 12.5811C38.888 13.0433 38.6374 13.4502 38.3184 13.8018C38.0059 14.1468 37.6413 14.4528 37.2246 14.7197C36.8079 14.9867 36.3717 15.2438 35.916 15.4912C35.4668 15.7321 35.0078 15.9795 34.5391 16.2334C34.0768 16.4873 33.6374 16.777 33.2207 17.1025C32.804 17.4215 32.4264 17.7959 32.0879 18.2256C31.7493 18.6488 31.4792 19.1566 31.2773 19.749C31.375 19.6188 31.4792 19.4984 31.5898 19.3877C31.7005 19.277 31.8242 19.1794 31.9609 19.0947C32.1042 19.0101 32.2604 18.945 32.4297 18.8994C32.599 18.8538 32.7878 18.8311 32.9961 18.8311C33.2305 18.8311 33.4681 18.8669 33.709 18.9385C33.9564 19.0036 34.2038 19.0882 34.4512 19.1924C34.7051 19.2965 34.9557 19.4105 35.2031 19.5342C35.457 19.6514 35.7077 19.762 35.9551 19.8662C36.2025 19.9704 36.4466 20.0583 36.6875 20.1299C36.9284 20.195 37.1628 20.2275 37.3906 20.2275C37.5859 20.2275 37.7617 20.2145 37.918 20.1885C38.0742 20.1624 38.2142 20.1136 38.3379 20.042C38.4681 19.9704 38.5853 19.8695 38.6895 19.7393C38.7936 19.6025 38.8945 19.4268 38.9922 19.2119L39.334 19.29C39.3014 19.5765 39.2363 19.8695 39.1387 20.1689C39.0475 20.4684 38.9108 20.7419 38.7285 20.9893C38.5462 21.2367 38.3151 21.4385 38.0352 21.5947C37.7552 21.751 37.4102 21.8291 37 21.8291C36.7461 21.8291 36.4889 21.7835 36.2285 21.6924C35.9746 21.5947 35.7207 21.4775 35.4668 21.3408C35.2129 21.1976 34.9622 21.0446 34.7148 20.8818C34.4674 20.7126 34.2233 20.5596 33.9824 20.4229C33.7415 20.2796 33.5072 20.1624 33.2793 20.0713C33.0514 19.9736 32.8301 19.9248 32.6152 19.9248C32.4069 19.9248 32.2214 19.9671 32.0586 20.0518C31.8958 20.1364 31.7526 20.2471 31.6289 20.3838C31.5117 20.514 31.4108 20.6572 31.3262 20.8135C31.248 20.9697 31.1797 21.1195 31.1211 21.2627C31.069 21.3994 31.0267 21.5231 30.9941 21.6338C30.9681 21.738 30.9486 21.8031 30.9355 21.8291H30.4961ZM43.0352 7.64941H47.7617C47.957 7.64941 48.1491 7.64616 48.3379 7.63965C48.5332 7.62663 48.7155 7.6071 48.8848 7.58105C49.054 7.5485 49.207 7.50618 49.3438 7.4541C49.487 7.39551 49.6042 7.32064 49.6953 7.22949L50.0371 7.49316C49.8288 7.74056 49.6204 7.96842 49.4121 8.17676C49.2038 8.38509 48.9661 8.56413 48.6992 8.71387C48.4388 8.86361 48.1328 8.98079 47.7812 9.06543C47.4362 9.15007 47.0228 9.19238 46.541 9.19238H43.6602L43.416 12.1514C44.2949 12.1774 45.0892 12.2686 45.7988 12.4248C46.5085 12.5745 47.1367 12.7764 47.6836 13.0303C48.237 13.2777 48.7122 13.5674 49.1094 13.8994C49.5065 14.2314 49.832 14.5895 50.0859 14.9736C50.3464 15.3512 50.5352 15.7484 50.6523 16.165C50.776 16.5752 50.8379 16.9886 50.8379 17.4053C50.8379 17.9977 50.724 18.5706 50.4961 19.124C50.2682 19.6774 49.9427 20.1689 49.5195 20.5986C49.0964 21.0283 48.5853 21.3734 47.9863 21.6338C47.3874 21.8942 46.7168 22.0244 45.9746 22.0244C45.4017 22.0244 44.8483 21.9528 44.3145 21.8096C43.7871 21.6598 43.3216 21.4482 42.918 21.1748C42.5143 20.8949 42.1888 20.5596 41.9414 20.1689C41.7005 19.7718 41.5801 19.3258 41.5801 18.8311C41.5801 18.5576 41.6159 18.2874 41.6875 18.0205C41.7591 17.7471 41.8568 17.4899 41.9805 17.249C42.1107 17.0016 42.2604 16.7705 42.4297 16.5557C42.6055 16.3343 42.7943 16.139 42.9961 15.9697L43.3574 16.2334C43.1947 16.5459 43.0775 16.8649 43.0059 17.1904C42.9342 17.5094 42.8984 17.8285 42.8984 18.1475C42.8984 18.5902 42.9668 19.0166 43.1035 19.4268C43.2467 19.8304 43.4551 20.1885 43.7285 20.501C44.002 20.8135 44.3438 21.0641 44.7539 21.2529C45.1641 21.4352 45.6393 21.5264 46.1797 21.5264C46.6875 21.5264 47.1432 21.432 47.5469 21.2432C47.9505 21.0544 48.2891 20.8037 48.5625 20.4912C48.8424 20.1722 49.054 19.8044 49.1973 19.3877C49.347 18.971 49.4219 18.5316 49.4219 18.0693C49.4219 17.6722 49.3633 17.2686 49.2461 16.8584C49.1354 16.4482 48.9596 16.0544 48.7188 15.6768C48.4844 15.2926 48.1816 14.9346 47.8105 14.6025C47.446 14.264 47.013 13.971 46.5117 13.7236C46.0104 13.4762 45.4375 13.2809 44.793 13.1377C44.1484 12.988 43.429 12.9131 42.6348 12.9131L43.0352 7.64941Z" fill="#FFFCFA"/>
</svg>
