<svg width="58" height="51" viewBox="0 0 58 51" fill="none" xmlns="http://www.w3.org/2000/svg">
<rect x="0.5" y="0.5" width="57" height="50" stroke="#FFFCFA"/>
<path d="M10.0059 14.1973C10.416 13.9824 10.8327 13.7253 11.2559 13.4258C11.6855 13.1263 12.0729 12.791 12.418 12.4199C12.763 12.0423 13.0462 11.6257 13.2676 11.1699C13.4889 10.7142 13.5996 10.2227 13.5996 9.69531C13.5996 9.35677 13.5443 9.0638 13.4336 8.81641C13.3294 8.56901 13.1862 8.36719 13.0039 8.21094C12.8281 8.04818 12.6198 7.93099 12.3789 7.85938C12.138 7.78125 11.8841 7.74219 11.6172 7.74219C11.3112 7.74219 11.015 7.80078 10.7285 7.91797C10.4421 8.03516 10.1849 8.20117 9.95703 8.41602C9.72917 8.62435 9.54688 8.87174 9.41016 9.1582C9.27344 9.44466 9.20508 9.75716 9.20508 10.0957C9.20508 10.4017 9.26042 10.6686 9.37109 10.8965C9.48177 11.1178 9.60547 11.3034 9.74219 11.4531C9.89844 11.6289 10.0775 11.7786 10.2793 11.9023L10.0645 12.3418C9.70638 12.2637 9.39714 12.153 9.13672 12.0098C8.88281 11.8665 8.67122 11.7038 8.50195 11.5215C8.33268 11.3327 8.20573 11.1309 8.12109 10.916C8.04297 10.6947 8.00391 10.4701 8.00391 10.2422C8.00391 9.88411 8.0918 9.5293 8.26758 9.17773C8.44987 8.81966 8.70703 8.4974 9.03906 8.21094C9.3776 7.92448 9.78451 7.69336 10.2598 7.51758C10.735 7.33529 11.2689 7.24414 11.8613 7.24414C12.278 7.24414 12.6849 7.28971 13.082 7.38086C13.4857 7.47201 13.8405 7.61523 14.1465 7.81055C14.459 7.99935 14.7096 8.24349 14.8984 8.54297C15.0872 8.83594 15.1816 9.1875 15.1816 9.59766C15.1816 9.9362 15.1003 10.2682 14.9375 10.5938C14.7812 10.9193 14.5794 11.235 14.332 11.541C14.0911 11.8405 13.821 12.1237 13.5215 12.3906C13.2285 12.651 12.9453 12.8887 12.6719 13.1035C12.4049 13.3184 12.1641 13.5039 11.9492 13.6602C11.7344 13.8099 11.5846 13.9238 11.5 14.002C12.1966 14.028 12.8184 14.1484 13.3652 14.3633C13.9121 14.5781 14.3711 14.8581 14.7422 15.2031C15.1198 15.5482 15.4062 15.9453 15.6016 16.3945C15.8034 16.8438 15.9043 17.3125 15.9043 17.8008C15.9043 18.2695 15.8359 18.6992 15.6992 19.0898C15.5625 19.4805 15.3737 19.832 15.1328 20.1445C14.8919 20.457 14.6087 20.7305 14.2832 20.9648C13.9577 21.1992 13.6061 21.3945 13.2285 21.5508C12.8574 21.707 12.4668 21.8242 12.0566 21.9023C11.653 21.9805 11.2493 22.0195 10.8457 22.0195C10.3314 22.0195 9.83659 21.9577 9.36133 21.834C8.88607 21.7103 8.46615 21.5247 8.10156 21.2773C7.73698 21.0234 7.44401 20.7077 7.22266 20.3301C7.00781 19.9525 6.90039 19.5098 6.90039 19.002C6.90039 18.7285 6.9362 18.4583 7.00781 18.1914C7.08594 17.918 7.18685 17.6608 7.31055 17.4199C7.44076 17.1725 7.59049 16.9414 7.75977 16.7266C7.93555 16.5052 8.12435 16.3099 8.32617 16.1406L8.67773 16.4043C8.52148 16.7168 8.4043 17.0358 8.32617 17.3613C8.25456 17.6803 8.21875 17.9993 8.21875 18.3184C8.21875 18.8392 8.30664 19.2949 8.48242 19.6855C8.6582 20.0762 8.88932 20.4017 9.17578 20.6621C9.46224 20.9225 9.78776 21.1178 10.1523 21.248C10.5234 21.3783 10.901 21.4434 11.2852 21.4434C11.6628 21.4434 12.0339 21.3783 12.3984 21.248C12.763 21.1178 13.0885 20.9258 13.375 20.6719C13.668 20.418 13.9023 20.1022 14.0781 19.7246C14.2539 19.3405 14.3418 18.8978 14.3418 18.3965C14.3418 17.9668 14.2539 17.5339 14.0781 17.0977C13.9089 16.6549 13.6517 16.2578 13.3066 15.9062C12.9616 15.5482 12.5286 15.2585 12.0078 15.0371C11.4935 14.8092 10.8913 14.6953 10.2012 14.6953L10.0059 14.1973Z" fill="#FFFCFA"/>
</svg>
