<svg width="58" height="47" viewBox="0 0 58 47" fill="none" xmlns="http://www.w3.org/2000/svg">
<rect x="0.5" y="0.5" width="57" height="46" stroke="#FFFCFA"/>
<path d="M33.5039 22.2969L35.3008 22.2383C35.5482 22.2253 35.7272 22.1699 35.8379 22.0723C35.9486 21.9681 36.0039 21.7891 36.0039 21.5352V10.998C35.75 11.1283 35.4733 11.2454 35.1738 11.3496C34.9199 11.4408 34.6237 11.5221 34.2852 11.5938C33.9466 11.6654 33.5853 11.7012 33.2012 11.7012V11.2031C33.5592 11.2031 33.9206 11.1217 34.2852 10.959C34.6497 10.7897 34.985 10.5749 35.291 10.3145C35.6035 10.0475 35.8737 9.74805 36.1016 9.41602C36.3359 9.07747 36.502 8.73893 36.5996 8.40039H37.498V21.5352C37.498 21.7891 37.5534 21.9681 37.6641 22.0723C37.7747 22.1699 37.9538 22.2253 38.2012 22.2383L39.7051 22.2969V23H33.5039V22.2969ZM43.0352 8.82031H47.7617C47.957 8.82031 48.1491 8.81706 48.3379 8.81055C48.5332 8.79753 48.7155 8.77799 48.8848 8.75195C49.054 8.7194 49.207 8.67708 49.3438 8.625C49.487 8.56641 49.6042 8.49154 49.6953 8.40039L50.0371 8.66406C49.8288 8.91146 49.6204 9.13932 49.4121 9.34766C49.2038 9.55599 48.9661 9.73503 48.6992 9.88477C48.4388 10.0345 48.1328 10.1517 47.7812 10.2363C47.4362 10.321 47.0228 10.3633 46.541 10.3633H43.6602L43.416 13.3223C44.2949 13.3483 45.0892 13.4395 45.7988 13.5957C46.5085 13.7454 47.1367 13.9473 47.6836 14.2012C48.237 14.4486 48.7122 14.7383 49.1094 15.0703C49.5065 15.4023 49.832 15.7604 50.0859 16.1445C50.3464 16.5221 50.5352 16.9193 50.6523 17.3359C50.776 17.7461 50.8379 18.1595 50.8379 18.5762C50.8379 19.1686 50.724 19.7415 50.4961 20.2949C50.2682 20.8483 49.9427 21.3398 49.5195 21.7695C49.0964 22.1992 48.5853 22.5443 47.9863 22.8047C47.3874 23.0651 46.7168 23.1953 45.9746 23.1953C45.4017 23.1953 44.8483 23.1237 44.3145 22.9805C43.7871 22.8307 43.3216 22.6191 42.918 22.3457C42.5143 22.0658 42.1888 21.7305 41.9414 21.3398C41.7005 20.9427 41.5801 20.4967 41.5801 20.002C41.5801 19.7285 41.6159 19.4583 41.6875 19.1914C41.7591 18.918 41.8568 18.6608 41.9805 18.4199C42.1107 18.1725 42.2604 17.9414 42.4297 17.7266C42.6055 17.5052 42.7943 17.3099 42.9961 17.1406L43.3574 17.4043C43.1947 17.7168 43.0775 18.0358 43.0059 18.3613C42.9342 18.6803 42.8984 18.9993 42.8984 19.3184C42.8984 19.7611 42.9668 20.1875 43.1035 20.5977C43.2467 21.0013 43.4551 21.3594 43.7285 21.6719C44.002 21.9844 44.3438 22.235 44.7539 22.4238C45.1641 22.6061 45.6393 22.6973 46.1797 22.6973C46.6875 22.6973 47.1432 22.6029 47.5469 22.4141C47.9505 22.2253 48.2891 21.9746 48.5625 21.6621C48.8424 21.3431 49.054 20.9753 49.1973 20.5586C49.347 20.1419 49.4219 19.7025 49.4219 19.2402C49.4219 18.8431 49.3633 18.4395 49.2461 18.0293C49.1354 17.6191 48.9596 17.2253 48.7188 16.8477C48.4844 16.4635 48.1816 16.1055 47.8105 15.7734C47.446 15.4349 47.013 15.1419 46.5117 14.8945C46.0104 14.6471 45.4375 14.4518 44.793 14.3086C44.1484 14.1589 43.429 14.084 42.6348 14.084L43.0352 8.82031Z" fill="#FFFCFA"/>
</svg>
