<svg width="58" height="51" viewBox="0 0 58 51" fill="none" xmlns="http://www.w3.org/2000/svg">
<rect x="0.5" y="0.5" width="57" height="50" stroke="#FFFCFA"/>
<path d="M30.4961 22.1709C30.4961 22.1123 30.4928 22.0505 30.4863 21.9854C30.4798 21.9137 30.4766 21.8486 30.4766 21.79C30.4766 20.9632 30.584 20.2373 30.7988 19.6123C31.0202 18.9808 31.3066 18.4209 31.6582 17.9326C32.0163 17.4443 32.4232 17.0081 32.8789 16.624C33.3346 16.2399 33.8001 15.8786 34.2754 15.54C34.7507 15.2015 35.2161 14.8727 35.6719 14.5537C36.1276 14.2282 36.5312 13.8831 36.8828 13.5186C37.2409 13.1475 37.5273 12.7438 37.7422 12.3076C37.9635 11.8649 38.0742 11.3538 38.0742 10.7744C38.0742 10.3252 37.9993 9.91504 37.8496 9.54395C37.6999 9.17285 37.4915 8.8571 37.2246 8.59668C36.9577 8.32975 36.6419 8.12467 36.2773 7.98145C35.9128 7.83822 35.5189 7.7666 35.0957 7.7666C34.5944 7.7666 34.1484 7.86426 33.7578 8.05957C33.3672 8.24837 33.0352 8.486 32.7617 8.77246C32.4948 9.05892 32.2897 9.37142 32.1465 9.70996C32.0033 10.0485 31.9316 10.3675 31.9316 10.667C31.9316 10.9665 31.974 11.2236 32.0586 11.4385C32.1497 11.6468 32.2669 11.8193 32.4102 11.9561C32.5599 12.0928 32.7259 12.1937 32.9082 12.2588C33.097 12.3174 33.2923 12.3467 33.4941 12.3467C33.7155 12.3467 33.9303 12.3141 34.1387 12.249C34.3535 12.1839 34.5521 12.0928 34.7344 11.9756L35.0566 12.3662C34.959 12.516 34.8353 12.6722 34.6855 12.835C34.5358 12.9977 34.3665 13.1475 34.1777 13.2842C33.9889 13.4144 33.7806 13.5218 33.5527 13.6064C33.3314 13.6911 33.0938 13.7334 32.8398 13.7334C32.5729 13.7334 32.3125 13.6878 32.0586 13.5967C31.8112 13.5055 31.5898 13.3656 31.3945 13.1768C31.2057 12.9814 31.0527 12.7373 30.9355 12.4443C30.8184 12.1449 30.7598 11.7868 30.7598 11.3701C30.7598 10.9469 30.8574 10.4945 31.0527 10.0127C31.2546 9.53092 31.5475 9.08822 31.9316 8.68457C32.3158 8.27441 32.7845 7.93587 33.3379 7.66895C33.8978 7.40202 34.5358 7.26855 35.252 7.26855C35.7793 7.26855 36.2871 7.36947 36.7754 7.57129C37.2702 7.77311 37.7064 8.05306 38.084 8.41113C38.4681 8.7627 38.7741 9.18587 39.002 9.68066C39.2363 10.1689 39.3535 10.6995 39.3535 11.2725C39.3535 11.9105 39.2591 12.4606 39.0703 12.9229C38.888 13.3851 38.6374 13.792 38.3184 14.1436C38.0059 14.4886 37.6413 14.7946 37.2246 15.0615C36.8079 15.3285 36.3717 15.5856 35.916 15.833C35.4668 16.0739 35.0078 16.3213 34.5391 16.5752C34.0768 16.8291 33.6374 17.1188 33.2207 17.4443C32.804 17.7633 32.4264 18.1377 32.0879 18.5674C31.7493 18.9906 31.4792 19.4984 31.2773 20.0908C31.375 19.9606 31.4792 19.8402 31.5898 19.7295C31.7005 19.6188 31.8242 19.5212 31.9609 19.4365C32.1042 19.3519 32.2604 19.2868 32.4297 19.2412C32.599 19.1956 32.7878 19.1729 32.9961 19.1729C33.2305 19.1729 33.4681 19.2087 33.709 19.2803C33.9564 19.3454 34.2038 19.43 34.4512 19.5342C34.7051 19.6383 34.9557 19.7523 35.2031 19.876C35.457 19.9932 35.7077 20.1038 35.9551 20.208C36.2025 20.3122 36.4466 20.4001 36.6875 20.4717C36.9284 20.5368 37.1628 20.5693 37.3906 20.5693C37.5859 20.5693 37.7617 20.5563 37.918 20.5303C38.0742 20.5042 38.2142 20.4554 38.3379 20.3838C38.4681 20.3122 38.5853 20.2113 38.6895 20.0811C38.7936 19.9443 38.8945 19.7686 38.9922 19.5537L39.334 19.6318C39.3014 19.9183 39.2363 20.2113 39.1387 20.5107C39.0475 20.8102 38.9108 21.0837 38.7285 21.3311C38.5462 21.5785 38.3151 21.7803 38.0352 21.9365C37.7552 22.0928 37.4102 22.1709 37 22.1709C36.7461 22.1709 36.4889 22.1253 36.2285 22.0342C35.9746 21.9365 35.7207 21.8193 35.4668 21.6826C35.2129 21.5394 34.9622 21.3864 34.7148 21.2236C34.4674 21.0544 34.2233 20.9014 33.9824 20.7646C33.7415 20.6214 33.5072 20.5042 33.2793 20.4131C33.0514 20.3154 32.8301 20.2666 32.6152 20.2666C32.4069 20.2666 32.2214 20.3089 32.0586 20.3936C31.8958 20.4782 31.7526 20.5889 31.6289 20.7256C31.5117 20.8558 31.4108 20.999 31.3262 21.1553C31.248 21.3115 31.1797 21.4613 31.1211 21.6045C31.069 21.7412 31.0267 21.8649 30.9941 21.9756C30.9681 22.0798 30.9486 22.1449 30.9355 22.1709H30.4961ZM50.9746 17.8154C50.9746 18.512 50.8379 19.1403 50.5645 19.7002C50.2975 20.2601 49.9427 20.7386 49.5 21.1357C49.0638 21.5264 48.5625 21.8291 47.9961 22.0439C47.4362 22.2588 46.8633 22.3662 46.2773 22.3662C45.6263 22.3662 45.0143 22.2718 44.4414 22.083C43.875 21.8877 43.377 21.6143 42.9473 21.2627C42.5241 20.9111 42.1888 20.488 41.9414 19.9932C41.7005 19.4984 41.5801 18.945 41.5801 18.333C41.5801 17.7406 41.6842 17.2197 41.8926 16.7705C42.1009 16.3213 42.3743 15.9242 42.7129 15.5791C43.0514 15.2275 43.4388 14.915 43.875 14.6416C44.3112 14.3617 44.7539 14.098 45.2031 13.8506C44.8841 13.6292 44.5846 13.3981 44.3047 13.1572C44.0247 12.9098 43.7773 12.6494 43.5625 12.376C43.3542 12.1025 43.1882 11.8096 43.0645 11.4971C42.9408 11.1846 42.8789 10.8428 42.8789 10.4717C42.8789 9.9834 42.9766 9.5472 43.1719 9.16309C43.3672 8.77897 43.6243 8.45345 43.9434 8.18652C44.2624 7.9196 44.6237 7.71777 45.0273 7.58105C45.4375 7.43783 45.8542 7.36621 46.2773 7.36621C46.7656 7.36621 47.2148 7.43457 47.625 7.57129C48.0417 7.7015 48.3997 7.8903 48.6992 8.1377C49.0052 8.37858 49.2428 8.67155 49.4121 9.0166C49.5879 9.36165 49.6758 9.74577 49.6758 10.1689C49.6758 10.5531 49.6139 10.8949 49.4902 11.1943C49.3665 11.4873 49.1973 11.7542 48.9824 11.9951C48.7741 12.236 48.5267 12.4574 48.2402 12.6592C47.9603 12.861 47.6608 13.0531 47.3418 13.2354C47.7845 13.5153 48.224 13.8083 48.6602 14.1143C49.0964 14.4137 49.4837 14.749 49.8223 15.1201C50.1673 15.4847 50.444 15.8883 50.6523 16.3311C50.8672 16.7673 50.9746 17.262 50.9746 17.8154ZM42.8789 18.4111C42.8789 18.9775 42.9733 19.4756 43.1621 19.9053C43.3574 20.335 43.6146 20.6963 43.9336 20.9893C44.2526 21.2757 44.6139 21.4938 45.0176 21.6436C45.4277 21.7933 45.8477 21.8682 46.2773 21.8682C46.7135 21.8682 47.1302 21.8031 47.5273 21.6729C47.9245 21.5361 48.2728 21.3311 48.5723 21.0576C48.8783 20.7842 49.1224 20.4424 49.3047 20.0322C49.487 19.6156 49.5781 19.1273 49.5781 18.5674C49.5781 18.0596 49.4609 17.6038 49.2266 17.2002C48.9922 16.79 48.6895 16.4124 48.3184 16.0674C47.9473 15.7223 47.5273 15.4001 47.0586 15.1006C46.5964 14.7946 46.1374 14.4854 45.6816 14.1729C45.3105 14.3942 44.9557 14.6351 44.6172 14.8955C44.2786 15.1494 43.9792 15.4456 43.7188 15.7842C43.4648 16.1162 43.2598 16.4971 43.1035 16.9268C42.9538 17.3564 42.8789 17.8512 42.8789 18.4111ZM48.6797 10.0713C48.6797 9.73275 48.6243 9.4235 48.5137 9.14355C48.4095 8.8571 48.2533 8.61296 48.0449 8.41113C47.8431 8.20931 47.5924 8.05306 47.293 7.94238C46.9935 7.8252 46.6549 7.7666 46.2773 7.7666C45.9844 7.7666 45.7044 7.81543 45.4375 7.91309C45.1706 8.01074 44.9362 8.15072 44.7344 8.33301C44.5326 8.50879 44.373 8.72689 44.2559 8.9873C44.1387 9.24772 44.0801 9.54069 44.0801 9.86621C44.0801 10.1852 44.1549 10.4814 44.3047 10.7549C44.4544 11.0218 44.653 11.279 44.9004 11.5264C45.1543 11.7673 45.444 12.0016 45.7695 12.2295C46.1016 12.4508 46.4499 12.6722 46.8145 12.8936C47.0814 12.7178 47.3288 12.5322 47.5566 12.3369C47.7845 12.1416 47.9798 11.93 48.1426 11.7021C48.3118 11.4678 48.4421 11.2171 48.5332 10.9502C48.6309 10.6833 48.6797 10.3903 48.6797 10.0713Z" fill="#FFFCFA"/>
</svg>
