<svg width="100" height="100" viewBox="0 0 100 100" fill="none" xmlns="http://www.w3.org/2000/svg">
<g clip-path="url(#clip0_1885_4523)">
<path d="M91.4886 42.6756C91.4886 65.4841 72.9186 83.984 49.9992 83.984C27.0797 83.984 8.50977 65.4841 8.50977 42.6756C8.50977 19.867 27.0797 1.36719 49.9992 1.36719C72.9186 1.36719 91.4886 19.867 91.4886 42.6756Z" stroke="#D5D1CD" stroke-width="2.73438"/>
<path d="M27.6595 76.5011L27.6596 76.5011C33.8256 77.2727 41.5797 77.731 49.994 77.731C61.2457 77.731 71.3384 76.9105 78.0257 75.6116C78.2391 75.5707 78.4489 75.5289 78.655 75.4866L81.5433 95.5414C79.9216 96.0376 77.7957 96.4999 75.2393 96.9093C72.9673 97.271 70.381 97.5867 67.5443 97.84L67.5432 97.8401C62.3686 98.307 56.3793 98.5734 49.994 98.5734C42.7011 98.5734 35.9266 98.2257 30.2912 97.631C25.2311 97.097 21.151 96.3699 18.4456 95.5414L18.6032 94.4424L18.6033 94.4416L20.9201 78.3609L20.9201 78.3603L21.3399 75.4571C22.9045 75.7516 25.6784 76.253 27.6595 76.5011Z" fill="#D5D1CD" stroke="#D5D1CD" stroke-width="2.34375"/>
<path d="M71.5085 47.7054L65.2059 51.3559L57.6816 47.0099L62.2365 45.0856C63.1987 44.6784 63.1987 43.3703 62.2365 42.9667L57.6816 41.0424L65.2059 36.6965L71.5085 40.3469C71.7031 40.4586 71.9157 40.5127 72.1247 40.5127C72.5499 40.5127 72.9643 40.2929 73.195 39.8965C73.5373 39.3055 73.3355 38.5523 72.7445 38.21L67.6707 35.2731L71.7319 32.9272C72.3229 32.5848 72.5247 31.8317 72.1824 31.2407C71.84 30.6497 71.0869 30.4479 70.4959 30.7902L66.4346 33.1362L66.4275 27.2731C66.4275 26.5921 65.8725 26.0407 65.195 26.0407C64.514 26.0407 63.9626 26.5957 63.9626 27.2768L63.9698 34.5596L56.6005 38.8118L57.0978 34.4443C57.2131 33.4425 56.0275 32.7902 55.1807 33.3848L51.278 36.1199V27.2299L57.5879 23.5975C58.1789 23.2588 58.3807 22.502 58.0419 21.9146C57.7032 21.3236 56.9464 21.1218 56.3591 21.4606L51.278 24.3867V19.6948C51.278 19.0137 50.7267 18.4624 50.0456 18.4624C49.3645 18.4624 48.8132 19.0137 48.8132 19.6948V24.3867L43.7321 21.4606C43.1411 21.1218 42.388 21.3236 42.0493 21.9146C41.7105 22.5056 41.9123 23.2588 42.5033 23.5975L48.8132 27.2299V36.1199L44.9105 33.3848C44.06 32.7902 42.8781 33.4425 42.9934 34.4443L43.4907 38.8118L36.1214 34.556L36.1286 27.2731C36.1286 26.5921 35.5772 26.0407 34.8962 26.0371C34.2151 26.0371 33.6637 26.5885 33.6637 27.2695L33.6565 33.1326L29.5953 30.7866C29.0043 30.4443 28.2512 30.6497 27.9088 31.2371C27.5665 31.8281 27.7719 32.5812 28.3593 32.9236L32.4205 35.2695L27.3467 38.2064C26.7557 38.5487 26.5575 39.3019 26.8962 39.8929C27.1232 40.2893 27.5376 40.5091 27.9665 40.5091C28.1755 40.5091 28.3881 40.455 28.5827 40.3433L34.8854 36.6929L42.4096 41.0388L37.8547 42.9631C36.8925 43.3703 36.8925 44.6784 37.8547 45.082L42.4096 47.0063L34.8854 51.3522L28.5827 47.7018C27.9917 47.3595 27.2385 47.5613 26.8962 48.1523C26.5539 48.7433 26.7557 49.4964 27.3467 49.8387L32.4205 52.7757L28.3593 55.1216C27.7683 55.4639 27.5665 56.2171 27.9088 56.8081C28.1359 57.2045 28.5539 57.4243 28.9791 57.4243C29.1881 57.4243 29.4007 57.3702 29.5953 57.2585L33.6565 54.9126L33.6637 60.7756C33.6637 61.4567 34.2187 62.008 34.8962 62.008C35.5772 62.008 36.1286 61.4531 36.1286 60.772L36.1214 53.4892L43.4907 49.2369L42.9934 53.6045C42.8781 54.6063 44.0636 55.2585 44.9105 54.6639L48.8132 51.9288V60.8188L42.5033 64.4512C41.9123 64.79 41.7105 65.5467 42.0493 66.1341C42.2763 66.5305 42.6943 66.7539 43.1195 66.7539C43.3285 66.7539 43.5411 66.6999 43.7357 66.5882L48.8167 63.6621V68.3539C48.8167 69.035 49.3681 69.5863 50.0492 69.5863C50.7303 69.5863 51.2816 69.035 51.2816 68.3539V63.6621L56.3627 66.5882C56.5573 66.6999 56.7663 66.7539 56.9789 66.7539C57.4041 66.7539 57.8221 66.5305 58.0492 66.1341C58.3879 65.5431 58.1861 64.79 57.5951 64.4512L51.2852 60.8188V51.9288L55.1879 54.6639C56.0383 55.2585 57.2203 54.6063 57.105 53.6045L56.6077 49.2369L63.977 53.4892L63.9698 60.772C63.9698 61.4531 64.5212 62.0044 65.2022 62.008C65.8833 62.008 66.4346 61.4567 66.4346 60.7756L66.4419 54.9126L70.5031 57.2585C70.6977 57.3702 70.9103 57.4243 71.1193 57.4243C71.5445 57.4243 71.959 57.2045 72.1896 56.8081C72.5319 56.2171 72.3265 55.4639 71.7391 55.1216L67.6779 52.7757L72.7517 49.8387C73.3427 49.4964 73.5445 48.7433 73.2022 48.1523C72.8598 47.5613 72.1067 47.3595 71.5157 47.7018L71.5085 47.7054Z" fill="#D5D1CD"/>
</g>
<defs>
<clipPath id="clip0_1885_4523">
<rect width="85.7143" height="100" fill="white" transform="translate(7.13965)"/>
</clipPath>
</defs>
</svg>
