<svg width="100" height="100" viewBox="0 0 100 100" fill="none" xmlns="http://www.w3.org/2000/svg">
<g clip-path="url(#clip0_2459_13181)">
<path d="M91.4886 42.6756C91.4886 65.4841 72.9186 83.984 49.9992 83.984C27.0797 83.984 8.50977 65.4841 8.50977 42.6756C8.50977 19.867 27.0797 1.36719 49.9992 1.36719C72.9186 1.36719 91.4886 19.867 91.4886 42.6756Z" stroke="#282828" stroke-width="2.73438"/>
<path d="M27.6595 76.5006L27.6596 76.5006C33.8256 77.2722 41.5797 77.7306 49.994 77.7306C61.2456 77.7306 71.3383 76.91 78.0255 75.6111C78.239 75.5702 78.4489 75.5285 78.655 75.4861L81.5433 95.5409C79.9216 96.0371 77.7957 96.4994 75.2393 96.9088C72.9673 97.2705 70.381 97.5862 67.5443 97.8395L67.5432 97.8396C62.3686 98.3065 56.3793 98.5729 49.994 98.5729C42.7011 98.5729 35.9266 98.2252 30.2912 97.6305C25.2311 97.0965 21.151 96.3694 18.4456 95.5409L18.6032 94.4419L18.6033 94.4411L20.9201 78.3604L20.9201 78.3598L21.3399 75.4566C22.9045 75.7511 25.6784 76.2525 27.6595 76.5006Z" fill="#282828" stroke="#282828" stroke-width="2.34375"/>
<path d="M71.5085 47.7059L65.2059 51.3563L57.6816 47.0104L62.2365 45.0861C63.1987 44.6789 63.1987 43.3708 62.2365 42.9672L57.6816 41.0429L65.2059 36.697L71.5085 40.3474C71.7031 40.4591 71.9157 40.5132 72.1247 40.5132C72.5499 40.5132 72.9643 40.2934 73.195 39.897C73.5373 39.306 73.3355 38.5528 72.7445 38.2105L67.6707 35.2736L71.7319 32.9276C72.3229 32.5853 72.5247 31.8322 72.1824 31.2412C71.84 30.6502 71.0869 30.4484 70.4959 30.7907L66.4346 33.1367L66.4275 27.2736C66.4275 26.5926 65.8725 26.0412 65.195 26.0412C64.514 26.0412 63.9626 26.5962 63.9626 27.2772L63.9698 34.5601L56.6005 38.8123L57.0978 34.4448C57.2131 33.443 56.0275 32.7907 55.1807 33.3853L51.278 36.1204V27.2304L57.5879 23.598C58.1789 23.2593 58.3807 22.5025 58.0419 21.9151C57.7032 21.3241 56.9464 21.1223 56.3591 21.4611L51.278 24.3872V19.6953C51.278 19.0142 50.7267 18.4629 50.0456 18.4629C49.3645 18.4629 48.8132 19.0142 48.8132 19.6953V24.3872L43.7321 21.4611C43.1411 21.1223 42.388 21.3241 42.0493 21.9151C41.7105 22.5061 41.9123 23.2593 42.5033 23.598L48.8132 27.2304V36.1204L44.9105 33.3853C44.06 32.7907 42.8781 33.443 42.9934 34.4448L43.4907 38.8123L36.1214 34.5565L36.1286 27.2736C36.1286 26.5926 35.5772 26.0412 34.8962 26.0376C34.2151 26.0376 33.6637 26.589 33.6637 27.27L33.6565 33.1331L29.5953 30.7871C29.0043 30.4448 28.2512 30.6502 27.9088 31.2376C27.5665 31.8286 27.7719 32.5817 28.3593 32.924L32.4205 35.27L27.3467 38.2069C26.7557 38.5492 26.5575 39.3024 26.8962 39.8934C27.1232 40.2898 27.5376 40.5096 27.9665 40.5096C28.1755 40.5096 28.3881 40.4555 28.5827 40.3438L34.8854 36.6934L42.4096 41.0393L37.8547 42.9636C36.8925 43.3708 36.8925 44.6789 37.8547 45.0825L42.4096 47.0068L34.8854 51.3527L28.5827 47.7023C27.9917 47.36 27.2385 47.5618 26.8962 48.1528C26.5539 48.7437 26.7557 49.4969 27.3467 49.8392L32.4205 52.7761L28.3593 55.1221C27.7683 55.4644 27.5665 56.2176 27.9088 56.8086C28.1359 57.2049 28.5539 57.4248 28.9791 57.4248C29.1881 57.4248 29.4007 57.3707 29.5953 57.259L33.6565 54.9131L33.6637 60.7761C33.6637 61.4572 34.2187 62.0085 34.8962 62.0085C35.5772 62.0085 36.1286 61.4536 36.1286 60.7725L36.1214 53.4897L43.4907 49.2374L42.9934 53.605C42.8781 54.6068 44.0636 55.259 44.9105 54.6644L48.8132 51.9293V60.8193L42.5033 64.4517C41.9123 64.7905 41.7105 65.5472 42.0493 66.1346C42.2763 66.531 42.6943 66.7544 43.1195 66.7544C43.3285 66.7544 43.5411 66.7004 43.7357 66.5887L48.8167 63.6626V68.3544C48.8167 69.0355 49.3681 69.5868 50.0492 69.5868C50.7303 69.5868 51.2816 69.0355 51.2816 68.3544V63.6626L56.3627 66.5887C56.5573 66.7004 56.7663 66.7544 56.9789 66.7544C57.4041 66.7544 57.8221 66.531 58.0492 66.1346C58.3879 65.5436 58.1861 64.7905 57.5951 64.4517L51.2852 60.8193V51.9293L55.1879 54.6644C56.0383 55.259 57.2203 54.6068 57.105 53.605L56.6077 49.2374L63.977 53.4897L63.9698 60.7725C63.9698 61.4536 64.5212 62.0049 65.2022 62.0085C65.8833 62.0085 66.4346 61.4572 66.4346 60.7761L66.4419 54.9131L70.5031 57.259C70.6977 57.3707 70.9103 57.4248 71.1193 57.4248C71.5445 57.4248 71.959 57.2049 72.1896 56.8086C72.5319 56.2176 72.3265 55.4644 71.7391 55.1221L67.6779 52.7761L72.7517 49.8392C73.3427 49.4969 73.5445 48.7437 73.2022 48.1528C72.8598 47.5618 72.1067 47.36 71.5157 47.7023L71.5085 47.7059Z" fill="#282828"/>
</g>
<defs>
<clipPath id="clip0_2459_13181">
<rect width="85.7143" height="100" fill="white" transform="translate(7.13965)"/>
</clipPath>
</defs>
</svg>
