<svg width="100" height="100" viewBox="0 0 100 100" fill="none" xmlns="http://www.w3.org/2000/svg">
<g clip-path="url(#clip0_2520_11179)">
<path d="M91.4886 42.6756C91.4886 65.4841 72.9186 83.984 49.9992 83.984C27.0797 83.984 8.50977 65.4841 8.50977 42.6756C8.50977 19.867 27.0797 1.36719 49.9992 1.36719C72.9186 1.36719 91.4886 19.867 91.4886 42.6756Z" stroke="#F9F4F0" stroke-width="2.73438"/>
<path d="M27.6595 76.5006L27.6596 76.5006C33.8256 77.2722 41.5797 77.7306 49.994 77.7306C61.2457 77.7306 71.3384 76.91 78.0257 75.6111C78.2391 75.5702 78.4489 75.5284 78.655 75.4861L81.5433 95.5409C79.9216 96.0371 77.7957 96.4994 75.2393 96.9088C72.9673 97.2705 70.381 97.5862 67.5443 97.8395L67.5432 97.8396C62.3686 98.3065 56.3793 98.5729 49.994 98.5729C42.7011 98.5729 35.9266 98.2252 30.2912 97.6305C25.2311 97.0965 21.151 96.3694 18.4456 95.5409L18.6032 94.4419L18.6033 94.4411L20.9201 78.3604L20.9201 78.3598L21.3399 75.4566C22.9045 75.7511 25.6784 76.2525 27.6595 76.5006Z" fill="#F9F4F0" stroke="#F9F4F0" stroke-width="2.34375"/>
<path d="M71.5075 47.7049L65.2049 51.3554L57.6806 47.0094L62.2355 45.0851C63.1977 44.6779 63.1977 43.3698 62.2355 42.9662L57.6806 41.0419L65.2049 36.696L71.5075 40.3464C71.7021 40.4581 71.9147 40.5122 72.1237 40.5122C72.549 40.5122 72.9633 40.2924 73.194 39.896C73.5363 39.305 73.3345 38.5519 72.7435 38.2095L67.6697 35.2726L71.731 32.9267C72.3219 32.5843 72.5237 31.8312 72.1814 31.2402C71.8391 30.6492 71.0859 30.4474 70.4949 30.7898L66.4337 33.1357L66.4265 27.2727C66.4265 26.5916 65.8715 26.0402 65.1941 26.0402C64.513 26.0402 63.9616 26.5952 63.9616 27.2763L63.9688 34.5591L56.5995 38.8113L57.0968 34.4438C57.2121 33.442 56.0265 32.7897 55.1797 33.3843L51.277 36.1194V27.2294L57.5869 23.597C58.1779 23.2583 58.3797 22.5015 58.041 21.9141C57.7022 21.3232 56.9455 21.1214 56.3581 21.4601L51.277 24.3862V19.6943C51.277 19.0133 50.7257 18.4619 50.0446 18.4619C49.3635 18.4619 48.8122 19.0133 48.8122 19.6943V24.3862L43.7311 21.4601C43.1401 21.1214 42.387 21.3232 42.0483 21.9141C41.7096 22.5051 41.9114 23.2583 42.5023 23.597L48.8122 27.2294V36.1194L44.9095 33.3843C44.0591 32.7897 42.8771 33.442 42.9924 34.4438L43.4897 38.8113L36.1204 34.5555L36.1276 27.2727C36.1276 26.5916 35.5763 26.0402 34.8952 26.0366C34.2141 26.0366 33.6628 26.588 33.6628 27.2691L33.6555 33.1321L29.5943 30.7861C29.0033 30.4438 28.2502 30.6492 27.9079 31.2366C27.5655 31.8276 27.7709 32.5807 28.3583 32.9231L32.4195 35.269L27.3457 38.2059C26.7547 38.5483 26.5565 39.3014 26.8952 39.8924C27.1223 40.2888 27.5367 40.5086 27.9655 40.5086C28.1745 40.5086 28.3871 40.4545 28.5817 40.3428L34.8844 36.6924L42.4086 41.0383L37.8537 42.9626C36.8916 43.3698 36.8916 44.6779 37.8537 45.0815L42.4086 47.0058L34.8844 51.3518L28.5817 47.7013C27.9907 47.359 27.2376 47.5608 26.8952 48.1518C26.5529 48.7428 26.7547 49.4959 27.3457 49.8383L32.4195 52.7752L28.3583 55.1211C27.7673 55.4634 27.5655 56.2166 27.9079 56.8076C28.1349 57.204 28.5529 57.4238 28.9781 57.4238C29.1871 57.4238 29.3997 57.3697 29.5943 57.258L33.6555 54.9121L33.6628 60.7751C33.6628 61.4562 34.2177 62.0075 34.8952 62.0075C35.5763 62.0075 36.1276 61.4526 36.1276 60.7715L36.1204 53.4887L43.4897 49.2365L42.9924 53.604C42.8771 54.6058 44.0627 55.258 44.9095 54.6634L48.8122 51.9283V60.8184L42.5023 64.4508C41.9114 64.7895 41.7096 65.5462 42.0483 66.1336C42.2753 66.53 42.6933 66.7534 43.1185 66.7534C43.3275 66.7534 43.5401 66.6994 43.7347 66.5877L48.8158 63.6616V68.3534C48.8158 69.0345 49.3671 69.5859 50.0482 69.5859C50.7293 69.5859 51.2807 69.0345 51.2807 68.3534V63.6616L56.3617 66.5877C56.5563 66.6994 56.7653 66.7534 56.9779 66.7534C57.4031 66.7534 57.8212 66.53 58.0482 66.1336C58.3869 65.5426 58.1851 64.7895 57.5941 64.4508L51.2843 60.8184V51.9283L55.1869 54.6634C56.0374 55.258 57.2193 54.6058 57.104 53.604L56.6068 49.2365L63.976 53.4887L63.9688 60.7715C63.9688 61.4526 64.5202 62.0039 65.2013 62.0075C65.8823 62.0075 66.4337 61.4562 66.4337 60.7751L66.4409 54.9121L70.5021 57.258C70.6967 57.3697 70.9093 57.4238 71.1183 57.4238C71.5435 57.4238 71.958 57.204 72.1886 56.8076C72.531 56.2166 72.3256 55.4634 71.7382 55.1211L67.6769 52.7752L72.7507 49.8383C73.3417 49.4959 73.5435 48.7428 73.2012 48.1518C72.8589 47.5608 72.1057 47.359 71.5147 47.7013L71.5075 47.7049Z" fill="#F9F4F0"/>
</g>
<defs>
<clipPath id="clip0_2520_11179">
<rect width="85.7143" height="100" fill="white" transform="translate(7.13965)"/>
</clipPath>
</defs>
</svg>
