<svg width="221" height="134" viewBox="0 0 221 134" fill="none" xmlns="http://www.w3.org/2000/svg">
<g clip-path="url(#clip0_742_5638)">
<path d="M221 12.4704V104.044H0V12.4704C0 5.58374 6.58617 0 14.6949 0H206.305C214.414 0 221 5.58374 221 12.4704Z" fill="#DECCB5"/>
<path d="M221 14.8021V121.52C221 128.417 214.414 134 206.305 134H14.6949C6.57463 134 0 128.417 0 121.52V14.8021C0 12.9604 2.46837 11.8828 4.23314 12.9702L100.511 69.2974C103.499 71.1195 106.994 72.0501 110.5 72.0893C114.006 72.0501 117.49 71.1195 120.477 69.2974L216.755 12.9702C218.52 11.8828 220.988 12.9604 220.988 14.8021H221Z" fill="#D1B795"/>
<path d="M13.1031 127.584L61.6286 86.0093C88.55 62.9494 132.45 62.9494 159.36 86.0093L207.885 127.584C210.654 129.954 208.681 134 204.736 134H16.252C12.3188 134 10.3349 129.964 13.1031 127.584Z" fill="#DBBF9B"/>
<path d="M221 12.4802V20.5325L135.876 89.5456C121.677 101.056 99.3346 101.056 85.1357 89.5456L0 20.5325V12.4802C0 5.58374 6.58617 0 14.6949 0H206.305C214.414 0 221 5.58374 221 12.4802Z" fill="#DECCB5"/>
</g>
<path d="M124.127 78.6845C122.159 80.844 119.611 82.5294 116.623 83.4759C107.567 86.3439 97.9 81.3265 95.0319 72.2703C92.1639 63.214 97.1796 53.5487 106.238 50.6806C110.187 49.4305 114.251 49.6785 117.819 51.1075C104.23 51.3167 98.0906 62.6252 100.589 70.5106C102.928 77.8967 113.195 81.3316 124.127 78.6845Z" fill="#FEE16A"/>
<path d="M122.305 78.1615C123.594 77.7532 124.78 77.1762 125.848 76.4592C125.339 77.2437 124.763 77.9894 124.127 78.6845C113.195 81.3315 102.928 77.8966 100.589 70.5106C98.0924 62.6251 104.232 51.3149 117.819 51.1074C116.534 51.1361 115.231 51.3453 113.943 51.7536C106.651 54.0632 102.61 61.8474 104.92 69.139C107.23 76.4306 115.014 80.4711 122.305 78.1615Z" fill="#FEE16A"/>
<path d="M122.305 78.1615C123.594 77.7532 124.78 77.1763 125.848 76.4592C123.704 77.9186 121.551 78.8937 119.449 79.4572C110.729 81.8006 102.939 77.0936 100.723 70.9054C100.718 70.8935 100.712 70.8801 100.709 70.8682C100.692 70.821 100.675 70.7721 100.658 70.7248C100.635 70.654 100.611 70.5831 100.589 70.5123C100.567 70.4414 100.545 70.3706 100.524 70.298C98.6492 63.9394 102.298 55.4736 110.862 52.339C112.905 51.5916 115.226 51.1479 117.819 51.1074C116.534 51.1361 115.232 51.3453 113.943 51.7536C112.006 52.3677 110.298 53.3664 108.88 54.6402C108.795 54.7144 108.713 54.7903 108.632 54.8679C108.551 54.9439 108.468 55.0215 108.39 55.1008C108.35 55.1412 108.311 55.18 108.272 55.2188C108.154 55.3386 108.039 55.4601 107.926 55.5833C107.812 55.7064 107.702 55.8313 107.594 55.9595C107.486 56.086 107.38 56.2159 107.277 56.3458C107.243 56.3897 107.208 56.4335 107.174 56.4774C107.037 56.6529 106.906 56.8317 106.779 57.0139C106.747 57.0595 106.717 57.105 106.685 57.1506C106.373 57.6094 106.088 58.0869 105.833 58.5778C104.2 61.7242 103.768 65.4932 104.922 69.139C106.077 72.7848 108.6 75.6174 111.746 77.2505C111.869 77.3146 111.992 77.377 112.117 77.4361C112.492 77.6166 112.875 77.7802 113.264 77.927C113.317 77.9456 113.367 77.9641 113.42 77.9844C113.629 78.0603 113.838 78.1311 114.051 78.1953C114.105 78.2121 114.157 78.2273 114.211 78.2442C114.371 78.2914 114.531 78.3353 114.693 78.3775C114.855 78.4196 115.017 78.4567 115.181 78.4939C115.345 78.5293 115.508 78.5613 115.674 78.5917C115.728 78.6018 115.783 78.6103 115.839 78.6204C115.949 78.639 116.06 78.6558 116.171 78.671C116.283 78.6879 116.392 78.7014 116.505 78.7149C118.4 78.9393 120.37 78.7739 122.307 78.1598L122.305 78.1615Z" fill="#EACC78"/>
<path d="M101.235 57.0884C101.778 57.0884 102.218 56.6484 102.218 56.1055C102.218 55.5626 101.778 55.1226 101.235 55.1226C100.693 55.1226 100.252 55.5626 100.252 56.1055C100.252 56.6484 100.693 57.0884 101.235 57.0884Z" fill="#F6C82F"/>
<path d="M105.085 81.1702C105.583 81.1702 105.986 80.7668 105.986 80.2692C105.986 79.7716 105.583 79.3682 105.085 79.3682C104.588 79.3682 104.184 79.7716 104.184 80.2692C104.184 80.7668 104.588 81.1702 105.085 81.1702Z" fill="#F6C82F"/>
<path d="M107.625 81.1707C107.805 81.1707 107.952 80.9873 107.952 80.7611C107.952 80.5349 107.805 80.3516 107.625 80.3516C107.444 80.3516 107.297 80.5349 107.297 80.7611C107.297 80.9873 107.444 81.1707 107.625 81.1707Z" fill="#F6C82F"/>
<path d="M108.853 82.6448C108.989 82.6448 109.099 82.5348 109.099 82.3991C109.099 82.2633 108.989 82.1533 108.853 82.1533C108.717 82.1533 108.607 82.2633 108.607 82.3991C108.607 82.5348 108.717 82.6448 108.853 82.6448Z" fill="#F6C82F"/>
<path d="M98.86 58.2351C99.0862 58.2351 99.2696 58.0518 99.2696 57.8256C99.2696 57.5994 99.0862 57.416 98.86 57.416C98.6338 57.416 98.4504 57.5994 98.4504 57.8256C98.4504 58.0518 98.6338 58.2351 98.86 58.2351Z" fill="#F6C82F"/>
<defs>
<clipPath id="clip0_742_5638">
<rect width="221" height="134" fill="white"/>
</clipPath>
</defs>
</svg>
