<svg width="54" height="54" viewBox="0 0 54 54" fill="none" xmlns="http://www.w3.org/2000/svg">
<path d="M32.851 24.3135H31.2068V45.03H32.851V24.3135Z" fill="#4A4D48"/>
<path d="M39.4569 23.0447H37.8126V43.7641H39.4569V23.0447Z" fill="#4A4D48"/>
<path d="M16.0905 23.0447H14.4463V43.7641H16.0905V23.0447Z" fill="#4A4D48"/>
<path d="M22.2601 24.3135H20.6158V45.03H22.2601V24.3135Z" fill="#4A4D48"/>
<path d="M31.5969 24.2527H21.9799V25.2757H31.5969V24.2527Z" fill="#4A4D48"/>
<path d="M32.2846 44.5676H21.2921V46.9256H32.2846V44.5676Z" fill="#4A4D48"/>
<path d="M31.7732 46.6887L39.457 45.4808V43.0679L31.7732 44.2729V46.6887Z" fill="#4A4D48"/>
<path d="M21.4857 46.6887L14.4492 45.4808V43.0679L21.4857 44.2729V46.6887Z" fill="#4A4D48"/>
<path d="M31.2068 25.2756H22.2631V43.7092H31.2068V25.2756Z" fill="#FEE16A"/>
<path d="M32.2846 43.7092H21.2921V46.0701H32.2846V43.7092Z" fill="#4A4D48"/>
<path d="M38.4109 42.0679V45.1483L33.1371 46.4747L32.2817 46.6886V43.6081L32.8481 43.4665L37.8127 42.2181L38.4109 42.0679Z" fill="#4A4D48"/>
<path d="M21.4857 43.8538V47.9485L14.4463 45.8997V41.8049L16.0934 42.2846L20.6159 43.5995L21.2921 43.796L21.4857 43.8538Z" fill="#4A4D48"/>
<path d="M26.9877 53.3553C15.1369 53.3553 12.0824 51.2226 12.3598 50.5696C12.6344 49.9136 13.6516 48.6681 13.6516 48.6681H13.6602V45.0068L21.3094 46.995V46.9112H33.5994V46.8071L40.4451 45.2698V48.6768L40.4654 48.6681C40.4654 48.6681 41.4912 49.9136 41.7686 50.5696C42.0461 51.2226 38.9627 53.3553 26.9877 53.3553Z" fill="#4A4D48"/>
<path d="M39.8152 44.0647C38.6449 43.796 36.9515 43.6139 36.3533 44.3595C36.0874 44.6918 36.1568 44.7901 35.9112 44.9866C35.2205 45.5356 34.6513 44.478 33.5965 44.8883C33.0012 45.1195 32.1227 44.8392 31.5274 45.1311C30.3947 45.683 30.9148 45.6079 28.8429 45.7466C27.9066 45.8101 27.6957 45.4171 26.7912 45.3651C26.0225 45.3189 25.0111 45.4749 24.3725 45.5183C23.3206 45.5905 23.0519 46.0211 22.445 45.9546C21.3614 45.8361 22.0925 44.9952 20.9135 44.6542C19.8443 44.345 19.1999 45.3478 18.1422 44.8768C17.5903 44.6311 17.6683 44.3161 17.0326 44.0647C16.2899 43.77 15.5675 43.9578 15.0011 44.1023C14.2469 44.2959 13.7758 44.4173 13.4869 44.8421C13.143 45.3478 13.4291 45.7321 13.0072 46.5037C12.7384 46.9978 13.5186 47.4284 13.6631 47.5035C14.1631 47.7723 14.0532 47.359 15.2727 47.4977C16.784 47.6682 16.4199 48.2838 17.6625 48.278C18.7577 48.2722 18.9918 47.5931 20.1015 47.7231C20.7459 47.7983 20.7488 48.0381 21.6908 48.3878C22.6126 48.7317 23.4131 48.7779 25.0169 48.8675C25.9012 48.9166 26.5051 48.9513 27.3431 48.8675C28.3863 48.7634 28.5799 48.5987 29.4873 48.46C31.1605 48.2086 31.2905 48.6536 32.9608 48.4976C33.8595 48.4138 35.0992 48.2982 36.2868 47.5006C37.174 46.9025 37.4514 47.7087 38.1767 47.4833C39.087 47.203 38.5495 47.9659 39.6909 47.5931C40.1417 47.4457 40.6243 47.4111 40.7457 47.073C40.9971 46.3707 41.0578 44.3508 39.821 44.0647H39.8152Z" fill="white"/>
<path d="M40.7717 49.058C39.0899 49.8903 35.053 50.8583 26.9848 50.8583C18.9167 50.8583 15.0185 49.8932 13.3424 49.058C13.5187 48.824 13.6487 48.6679 13.6487 48.6679H13.6574V48.5928C15.4895 49.3846 19.4686 50.2428 26.9848 50.2428C34.501 50.2428 38.5842 49.3903 40.4423 48.5957V48.6766L40.4625 48.6679C40.4625 48.6679 40.5926 48.824 40.7717 49.058Z" fill="#585B57"/>
<path d="M24.6008 53.6124C25.6671 53.4332 27.0282 53.6499 26.3607 53.2396C25.6931 52.8293 23.7772 53.072 22.4162 52.5316C21.0551 51.9912 18.5353 50.6042 17.2493 51.2717C15.9634 51.9392 16.1194 51.2746 14.6544 51.0925C13.1893 50.9105 13.6776 49.2778 12.6229 49.7228C11.5681 50.1678 10.7994 51.2139 12.1605 51.6271C13.5216 52.0404 13.8828 52.6848 15.2699 52.5027C16.6569 52.3207 17.6077 53.1182 18.5584 53.2223C19.5091 53.3263 21.4741 53.0662 21.8093 53.3494C22.1445 53.6326 23.5316 53.7858 24.5979 53.6066L24.6008 53.6124Z" fill="white"/>
<path d="M32.8568 2.44094C31.8858 1.23014 30.4439 0.548162 28.7852 0.288086C30.4468 0.545272 31.8887 1.22725 32.8568 2.44094Z" fill="#4A4D48"/>
<path d="M30.4497 10.6363C29.4238 10.8241 27.8576 10.512 27.7247 9.8994C27.6813 9.69712 27.794 9.49195 27.9385 9.31568C28.0281 9.31568 28.1119 9.31279 28.1957 9.30412C30.6202 9.18853 31.6547 7.74944 31.5247 5.65728C31.3946 3.56222 29.1984 2.79066 27.1149 2.79066H27.1034C25.0228 2.79066 22.8237 3.56511 22.6937 5.65728C22.5694 7.69743 23.5519 9.11629 25.8435 9.28967C25.9042 9.29834 25.9648 9.30123 26.0255 9.30701C26.1093 9.31568 26.196 9.31857 26.2827 9.31857C26.3145 9.35902 26.3434 9.3937 26.3723 9.43416C26.4128 9.49484 26.4445 9.55552 26.4676 9.6191C26.4763 9.63933 26.4792 9.65955 26.4879 9.67978C26.5081 9.75492 26.511 9.83005 26.4966 9.90229C26.4879 9.94564 26.4677 9.99476 26.4445 10.0352C26.4156 10.0786 26.3838 10.119 26.3434 10.1566C25.8955 10.5987 24.6413 10.801 23.7715 10.6392C21.7458 10.2606 19.7519 7.54427 20.2172 5.06199C20.2778 4.73256 20.3616 4.42047 20.4599 4.12861C20.6102 3.68937 20.798 3.29059 21.0234 2.92937C21.0956 2.808 21.1766 2.6953 21.2604 2.5826C21.4251 2.36009 21.6071 2.15492 21.8007 1.96709C21.8961 1.87173 21.9972 1.78215 22.1042 1.69257H22.107C22.5232 1.35158 22.9884 1.06838 23.4999 0.840095H23.5028C23.7571 0.730286 24.0229 0.634924 24.2946 0.551122C24.7049 0.426864 25.1355 0.334392 25.5834 0.273708C25.6845 0.25637 25.7857 0.244811 25.8868 0.233252C26.2827 0.189906 26.6873 0.169678 27.1034 0.169678C27.5195 0.169678 27.9356 0.189906 28.3402 0.233252C28.4934 0.25059 28.6436 0.270818 28.791 0.293936C30.4497 0.556902 31.8917 1.23599 32.8626 2.44679C33.0244 2.64907 33.1718 2.8658 33.3048 3.09986C33.4406 3.33393 33.5591 3.57956 33.6631 3.84542C33.8133 4.22108 33.9289 4.62564 34.0099 5.06488C34.4722 7.54427 32.4812 10.2635 30.4555 10.6421L30.4497 10.6363Z" fill="#4A4D48"/>
<path d="M22.1012 1.68963C22.5202 1.33997 22.9883 1.05678 23.494 0.837158C22.9826 1.06545 22.5144 1.34864 22.1012 1.68963Z" fill="#4A4D48"/>
<path d="M23.4999 0.834383C23.7542 0.721684 24.02 0.626323 24.2917 0.54541C24.0171 0.629212 23.7513 0.727463 23.4999 0.834383Z" fill="#4A4D48"/>
<path d="M26.4994 9.89951C26.4879 9.94286 26.4705 9.99198 26.4417 10.0324C26.4648 9.99198 26.485 9.94286 26.4937 9.89951C26.511 9.82727 26.5052 9.75502 26.485 9.677C26.5052 9.74925 26.5139 9.82149 26.4966 9.89951H26.4994Z" fill="#4A4D48"/>
<path d="M21.4395 10.2461C21.4251 10.2779 21.4106 10.3126 21.4019 10.3501H21.399L21.4424 10.2461H21.4395Z" fill="#585B57"/>
<path d="M37.8126 23.958V42.2182L32.851 43.4637V24.9145C34.5501 24.6948 36.2146 24.377 37.8126 23.9551V23.958Z" fill="#FEE16A"/>
<path d="M20.6159 24.7843V43.6023L16.0935 42.2846V23.825C17.5499 24.2295 19.067 24.5503 20.6159 24.7843Z" fill="#FEE16A"/>
<path d="M39.4569 23.4638C39.4569 23.4638 39.4511 23.4811 39.4511 23.4898C38.9136 23.6574 38.3675 23.8163 37.8126 23.9579C36.2146 24.3798 34.5501 24.6977 32.851 24.9173C32.4348 24.9722 32.0187 25.0184 31.5968 25.0589C31.4697 25.0733 31.3367 25.0849 31.2067 25.0965C29.8832 25.2149 28.5453 25.2756 27.2073 25.2756C25.5486 25.2756 23.8957 25.186 22.263 25.0011C22.1676 24.9895 22.0752 24.9809 21.9798 24.9664C21.5232 24.9115 21.0695 24.8508 20.6158 24.7815C19.0669 24.5474 17.5498 24.2266 16.0934 23.8221C15.5675 23.6776 15.0531 23.5187 14.5416 23.3539C14.5127 23.3193 14.4809 23.2846 14.4549 23.2499C14.4491 23.2239 14.4492 23.2008 14.4463 23.1748C14.4029 22.8049 14.4665 22.3541 14.6254 21.8628C15.3796 19.5424 18.3243 16.2683 22.89 15.7973C23.257 15.7597 23.6327 15.7395 24.017 15.7395H24.1008C24.7337 15.7395 25.3405 15.7395 25.9098 15.7539C26.2826 15.7684 26.6409 15.7886 26.9906 15.8117C27.3345 15.7886 27.6957 15.7684 28.0685 15.7539C28.6666 15.7395 29.2966 15.7395 29.9612 15.7395C30.0797 15.7395 30.1982 15.7395 30.3167 15.7453C30.8657 15.7655 31.3916 15.8204 31.8945 15.9129H31.9002C36.2551 16.7018 38.9396 20.0423 39.4395 22.2443C39.5465 22.7153 39.5522 23.1343 39.4569 23.4638Z" fill="#4A4D48"/>
<path d="M31.9696 13.3181C31.5622 14.0289 30.9438 14.9999 30.0248 16.0951C28.2968 16.6644 26.1237 16.6644 24.3928 16.0951C23.4767 14.9999 22.8583 14.0289 22.4509 13.3181C21.9885 12.509 21.7284 11.8992 21.8642 11.5496C22.3873 11.7952 23.8553 12.2864 27.2102 12.2864C30.5652 12.2864 32.0332 11.7952 32.5562 11.5496C32.6892 11.8992 32.432 12.509 31.9696 13.3181Z" fill="#4A4D48"/>
<path d="M32.5563 11.5494C32.0332 11.7951 30.5652 12.2863 27.2103 12.2863C23.8553 12.2863 22.3873 11.7951 21.8643 11.5494C21.8729 11.5148 21.8903 11.4859 21.9105 11.457C21.9163 11.4483 21.9221 11.4425 21.9278 11.4338C22.0088 11.3298 22.1215 11.2807 22.2139 11.2576H22.2168C22.9392 11.5119 24.4217 11.85 27.2103 11.85C29.9989 11.85 31.4784 11.5119 32.2008 11.2576H32.2037C32.2991 11.2807 32.4118 11.3298 32.4927 11.4338C32.4985 11.4425 32.5043 11.4483 32.51 11.457C32.5274 11.483 32.5476 11.5148 32.5563 11.5494Z" fill="#585B57"/>
<path d="M32.2008 11.2576C31.4784 11.5119 29.9959 11.85 27.2102 11.85C24.4245 11.85 22.9363 11.5119 22.2168 11.2576C22.2255 11.2258 22.237 11.1969 22.2515 11.168L22.289 11.0785C22.3324 10.9687 22.3815 10.8675 22.4364 10.7722C23.5056 8.83026 26.4358 8.64242 27.2131 8.61353C27.9934 8.63953 30.9236 8.83026 31.9899 10.7722C32.0448 10.8704 32.0939 10.9687 32.1372 11.0785C32.1603 11.1363 32.1835 11.1941 32.2037 11.2547L32.2008 11.2576Z" fill="#4A4D48"/>
<path d="M33.0216 10.3502H33.0187C32.9927 10.2779 32.9696 10.2115 32.9407 10.145L33.0216 10.3502Z" fill="#585B57"/>
<path d="M31.2068 35.6179H22.2631V43.7121H31.2068V35.6179Z" fill="#F6C82F"/>
<path d="M37.8127 34.127V42.2182L32.8481 43.4666V35.3724L37.8127 34.127Z" fill="#F6C82F"/>
<path d="M20.6159 35.5081V43.5994L16.0935 42.2846V34.1904L20.6159 35.5081Z" fill="#F6C82F"/>
<path d="M39.7921 22.2848C36.755 23.2904 32.0447 24.4492 26.2306 24.2989C21.2747 24.1718 17.2233 23.1401 14.426 22.1865" stroke="#4A4D48" stroke-width="4" stroke-miterlimit="10" stroke-linecap="round"/>
<path d="M39.3703 22.2935C39.3327 22.6518 39.2084 23.0333 38.6912 23.1142C38.1363 23.2038 37.5642 21.5104 35.7205 21.5595C34.5126 21.5913 34.6282 23.0102 33.4319 23.0737C31.3715 23.1864 30.3427 20.8429 29.3255 21.4728C28.7794 21.8138 29.1377 23.4465 27.5715 23.2269C26.6554 23.0998 25.8752 23.5361 24.1529 22.6345C23.523 22.3051 22.5405 22.0306 22.2255 22.019C20.1651 21.9439 20.2113 22.7414 19.1508 22.2733C18.4341 21.9554 18.1972 22.6923 17.2031 22.4178C16.7552 22.2935 16.4894 21.9092 16.2004 21.7416C15.5531 21.3659 14.8624 22.3369 14.5619 21.7618C13.4233 19.6032 19.0034 16.0372 19.7952 15.7136C22.8901 14.4537 22.2948 16.6123 26.511 16.7655C32.4811 16.9822 29.6059 14.916 35.1946 16.5169C36.2002 16.803 37.5931 17.6671 38.775 19.1206C39.5552 20.0713 40.3239 21.7185 39.3703 22.2906V22.2935Z" fill="white"/>
</svg>
