<svg width="54" height="54" viewBox="0 0 54 54" fill="none" xmlns="http://www.w3.org/2000/svg">
<path d="M45.0653 30.1722L39.771 33.2386L33.4505 29.588L37.2767 27.9716C38.0849 27.6295 38.0849 26.5307 37.2767 26.1917L33.4505 24.5752L39.771 20.9246L45.0653 23.991C45.2288 24.0849 45.4073 24.1303 45.5829 24.1303C45.9401 24.1303 46.2882 23.9456 46.4819 23.6126C46.7695 23.1162 46.6 22.4836 46.1036 22.196L41.8415 19.7289L45.253 17.7583C45.7494 17.4708 45.9189 16.8381 45.6314 16.3417C45.3438 15.8452 44.7111 15.6757 44.2147 15.9633L40.8032 17.9339L40.7972 13.0089C40.7972 12.4368 40.331 11.9737 39.7619 11.9737C39.1898 11.9737 38.7266 12.4398 38.7266 13.0119L38.7327 19.1296L32.5424 22.7015L32.9602 19.0327C33.057 18.1912 32.0611 17.6433 31.3497 18.1428L28.0715 20.4403V12.9726L33.3718 9.92132C33.8683 9.63678 34.0378 9.0011 33.7532 8.5077C33.4687 8.01126 32.833 7.84175 32.3396 8.12629L28.0715 10.5842V6.64304C28.0715 6.07093 27.6083 5.60779 27.0362 5.60779C26.4641 5.60779 26.001 6.07093 26.001 6.64304V10.5842L21.7328 8.12629C21.2364 7.84175 20.6038 8.01126 20.3192 8.5077C20.0347 9.00413 20.2042 9.63678 20.7006 9.92132L26.001 12.9726V20.4403L22.7227 18.1428C22.0083 17.6433 21.0154 18.1912 21.1123 19.0327L21.53 22.7015L15.3397 19.1266L15.3458 13.0089C15.3458 12.4368 14.8827 11.9737 14.3105 11.9706C13.7384 11.9706 13.2753 12.4338 13.2753 13.0059L13.2692 17.9309L9.85773 15.9603C9.3613 15.6727 8.72867 15.8453 8.4411 16.3387C8.15353 16.8351 8.32607 17.4677 8.81948 17.7553L12.2309 19.7259L7.96886 22.193C7.47243 22.4805 7.30594 23.1132 7.59048 23.6096C7.78119 23.9426 8.12929 24.1272 8.4895 24.1272C8.66507 24.1272 8.84369 24.0818 9.00715 23.988L14.3015 20.9216L20.6219 24.5722L16.7957 26.1887C15.9875 26.5307 15.9875 27.6295 16.7957 27.9686L20.6219 29.585L14.3015 33.2356L9.00715 30.1692C8.51072 29.8816 7.87805 30.0512 7.59048 30.5476C7.30291 31.044 7.47243 31.6767 7.96886 31.9643L12.2309 34.4313L8.81948 36.4019C8.32304 36.6895 8.15353 37.3221 8.4411 37.8186C8.6318 38.1515 8.98293 38.3362 9.34012 38.3362C9.51569 38.3362 9.69427 38.2908 9.85773 38.1969L13.2692 36.2263L13.2753 41.1513C13.2753 41.7234 13.7415 42.1866 14.3105 42.1866C14.8827 42.1866 15.3458 41.7204 15.3458 41.1483L15.3397 35.0306L21.53 31.4587L21.1123 35.1275C21.0154 35.969 22.0113 36.5169 22.7227 36.0175L26.001 33.7199V41.1877L20.7006 44.2389C20.2042 44.5235 20.0347 45.1591 20.3192 45.6525C20.5099 45.9855 20.861 46.1732 21.2182 46.1732C21.3938 46.1732 21.5724 46.1278 21.7359 46.034L26.004 43.576V47.5172C26.004 48.0893 26.4671 48.5525 27.0392 48.5525C27.6113 48.5525 28.0745 48.0893 28.0745 47.5172V43.576L32.3426 46.034C32.5061 46.1278 32.6816 46.1732 32.8602 46.1732C33.2174 46.1732 33.5686 45.9855 33.7593 45.6525C34.0438 45.1561 33.8743 44.5235 33.3779 44.2389L28.0775 41.1877V33.7199L31.3558 36.0175C32.0702 36.5169 33.063 35.969 32.9662 35.1275L32.5485 31.4587L38.7388 35.0306L38.7327 41.1483C38.7327 41.7204 39.1959 42.1836 39.768 42.1866C40.3401 42.1866 40.8032 41.7234 40.8032 41.1513L40.8093 36.2263L44.2207 38.1969C44.3842 38.2908 44.5628 38.3362 44.7384 38.3362C45.0955 38.3362 45.4437 38.1515 45.6374 37.8186C45.925 37.3221 45.7524 36.6895 45.259 36.4019L41.8475 34.4313L46.1096 31.9643C46.606 31.6767 46.7756 31.044 46.488 30.5476C46.2004 30.0512 45.5678 29.8816 45.0714 30.1692L45.0653 30.1722Z" fill="#FEFEFD"/>
</svg>
