<svg width="54" height="54" viewBox="0 0 54 54" fill="none" xmlns="http://www.w3.org/2000/svg">
<path d="M28.4771 9.07162C30.7502 9.50488 32.5397 9.84395 33.4345 8.62266C34.1126 7.69963 34.2728 6.29938 34.2539 6.20833C33.8646 4.20529 31.7486 2.76423 30.7627 2.45656C29.6011 2.09237 26.7849 2.24307 25.4035 3.74692C24.6249 4.5946 24.1163 6.13298 24.5778 7.27579C25.0424 8.42173 26.2763 8.65719 28.4771 9.07789V9.07162Z" fill="#FEFEFD"/>
<path d="M11.1028 20.2736C11.6365 18.6127 12.8075 15.7369 15.3663 12.9552C15.8906 12.387 16.4149 9.65557 20.5936 7.89741C22.5684 7.06543 25.956 6.56624 27.9245 6.62275C30.8475 6.70438 34.9415 7.75613 37.4814 9.62417C40.2505 11.6586 41.7323 14.7134 41.2708 17.404C40.9914 19.024 39.3651 19.9941 38.6242 20.4337C31.6763 24.5716 14.8734 21.0961 11.0996 20.2767L11.1028 20.2736Z" fill="#AD6042"/>
<path d="M40.8721 24.644C41.9646 24.1228 43.5187 24.9925 44.3067 26.2609C45.3145 27.884 45.189 30.3768 43.817 31.6766C42.8845 32.5588 41.4058 32.8634 40.4451 32.1695C38.5174 30.7755 38.9475 25.5639 40.8752 24.6471L40.8721 24.644Z" fill="#F4E8CA"/>
<path d="M13.0618 24.644C11.9693 24.1228 10.4152 24.9925 9.63029 26.2609C8.62563 27.884 8.74807 30.3737 10.1201 31.6735C11.0525 32.5557 12.5312 32.8602 13.4919 32.1664C15.4196 30.7724 14.9895 25.5639 13.0618 24.644Z" fill="#F4E8CA"/>
<path d="M38.9004 21.3129C40.7402 23.8057 42.1153 28.2043 40.7779 32.4175C40.5958 32.9921 39.8705 35.1082 38.0778 36.9197C33.2366 41.808 21.6014 43.4845 15.7932 36.4707C12.3711 32.3391 11.4261 25.7428 14.2925 21.2376C19.2405 13.4577 33.8928 14.5189 38.9035 21.3129H38.9004Z" fill="#F7EED7"/>
<path d="M24.4742 25.7773C23.884 25.4885 23.1681 25.8621 22.8102 26.4586C22.3047 27.3063 22.4429 28.7254 23.2121 29.2026C23.8369 29.5919 24.6688 29.2246 25.0519 28.5339C25.5605 27.6202 25.2716 26.1635 24.4773 25.7742L24.4742 25.7773Z" fill="#5F5649"/>
<path d="M30.0625 25.6549C30.6936 25.7396 31.1802 26.4806 31.2587 27.2152C31.3717 28.2513 30.6904 29.4224 29.8302 29.4004C29.1269 29.3815 28.5398 28.5809 28.4739 27.7552C28.3829 26.6564 29.2117 25.5419 30.0625 25.658V25.6549Z" fill="#5F5649"/>
<path d="M36.6933 29.1366C35.8487 28.1916 33.8175 28.5966 32.8285 29.7363C32.2037 30.4553 31.7893 31.7079 32.3042 32.4395C33.0357 33.4818 35.5662 33.3311 36.5834 31.9152C37.1454 31.1303 37.3243 29.843 36.6964 29.1398L36.6933 29.1366Z" fill="#F1D1B1"/>
<path d="M27.6608 29.2215C27.2087 28.7128 26.1162 28.9326 25.5856 29.5448C25.2497 29.931 25.0267 30.6029 25.303 30.9953C25.6955 31.5541 27.0549 31.4757 27.6012 30.7127C27.9026 30.292 27.9999 29.5982 27.6608 29.2215Z" fill="#EDD4A5"/>
<path d="M16.823 29.1366C17.6676 28.1916 19.6989 28.5966 20.6878 29.7363C21.3126 30.4553 21.727 31.7079 21.2122 32.4395C20.4806 33.4818 17.9501 33.3311 16.9329 31.9152C16.3709 31.1303 16.192 29.843 16.8199 29.1398L16.823 29.1366Z" fill="#F1D1B1"/>
<path d="M11.5737 17.5892C12.7699 16.4683 20.6785 15.3538 27.1805 15.3569C31.7988 15.3569 42.0463 16.3867 42.6303 18.9643C42.7276 19.3913 42.9442 20.8983 42.8846 21.4414C42.6868 23.2655 41.5974 24.3267 41.3117 24.4899C40.0088 25.2214 32.8286 21.7271 24.1414 22.5999C12.8641 23.7302 13.1655 25.8054 11.4011 22.6815C10.4184 20.9391 10.6005 18.4996 11.5737 17.5892Z" fill="#FEFEFD"/>
<path d="M42.7746 46.5298C42.7558 48.2063 42.3853 49.4935 41.3995 50.5045C39.6413 52.3097 35.8424 52.3223 34.3103 50.7274C33.9053 50.3098 33.7232 49.8452 33.6761 49.2392C33.582 48.0211 34.0278 46.2221 34.2538 43.0135C34.2538 42.9852 34.2601 42.9538 34.2601 42.9256C34.2789 42.6964 34.2884 42.4797 34.3009 42.2788C34.2256 42.2851 34.1408 42.2851 34.0654 42.2851C33.447 42.3071 32.8002 42.3196 32.1315 42.3071C30.4267 42.2882 28.5524 42.1909 26.5274 42.059C24.9105 41.9586 23.1994 41.8361 21.4004 41.7357C20.8824 41.7074 20.355 41.676 19.8181 41.6478C18.6062 41.5881 17.5545 41.5065 16.644 41.406C13.5515 41.0481 12.0414 40.4014 11.4292 39.1141C10.4371 37.02 11.8876 33.4064 13.3977 33.2055C14.1104 33.1113 14.6975 33.7926 15.0899 34.1568C15.3599 34.4142 15.8842 34.7376 16.7727 35.039C17.8433 35.3969 19.4288 35.7203 21.7238 35.8333C23.0456 35.8992 24.5997 35.8929 26.4269 35.7799C27.5132 35.7203 28.7031 35.6167 29.9966 35.4754C30.6213 35.4063 31.1959 35.3215 31.7422 35.2274C33.6008 34.9228 35.0356 34.499 36.1627 34.0563C39.6664 32.6874 40.2315 31.1585 41.4246 32.3233C42.6302 33.4943 43.2581 36.8913 42.3256 38.684C42.2095 38.9069 42.0776 39.1204 41.9363 39.3182C41.9426 39.3465 41.9426 39.3716 41.9489 39.3998C42.3884 42.351 42.7966 44.6806 42.7777 46.5266L42.7746 46.5298Z" fill="#495546"/>
<path d="M26.5243 41.9867C26.4553 41.9867 26.3925 41.9365 26.3831 41.8642C26.1288 39.9554 26.0942 37.9932 26.2826 36.0372C26.2889 35.9587 26.3517 35.9054 26.4364 35.9116C26.5149 35.9179 26.5714 35.987 26.562 36.0655C26.3768 37.9994 26.4082 39.9397 26.6625 41.8266C26.6719 41.9051 26.6185 41.9741 26.54 41.9867C26.5338 41.9867 26.5275 41.9867 26.5212 41.9867H26.5243Z" fill="white"/>
<path d="M32.1283 42.2159C32.0499 42.2159 31.9871 42.1531 31.9871 42.0746C31.9682 39.8926 31.8395 37.6981 31.6009 35.5569C31.5915 35.4784 31.648 35.4093 31.7265 35.3999C31.8018 35.3936 31.874 35.447 31.8834 35.5255C32.1252 37.6761 32.2539 39.8801 32.2728 42.0715C32.2728 42.15 32.21 42.2128 32.1315 42.2128L32.1283 42.2159Z" fill="white"/>
<path d="M37.9366 40.7811C37.8581 40.7811 37.7953 40.7183 37.7953 40.6398C37.7764 38.4579 37.6477 36.2633 37.4091 34.1221C37.3997 34.0436 37.4562 33.9746 37.5347 33.9651C37.6132 33.9557 37.6823 34.0122 37.6917 34.0907C37.9334 36.2413 38.0621 38.4453 38.081 40.6367C38.081 40.7152 38.0182 40.778 37.9397 40.778L37.9366 40.7811Z" fill="white"/>
<path d="M21.3973 41.6886C21.322 41.6886 21.2592 41.6289 21.2561 41.5536C21.1933 39.7201 21.3031 37.8772 21.5794 36.0813C21.592 36.0029 21.6579 35.9495 21.7395 35.962C21.818 35.9746 21.8683 36.0468 21.8588 36.1222C21.5826 37.9023 21.4727 39.7264 21.5355 41.541C21.5355 41.6195 21.4758 41.6855 21.4005 41.6886C21.4005 41.6886 21.3973 41.6886 21.3942 41.6886H21.3973Z" fill="white"/>
<path d="M16.641 41.3871C16.5876 41.3871 16.5373 41.3557 16.5122 41.3055C16.3019 40.8628 16.1418 40.4013 16.0382 39.9304C15.6018 38.0027 16.1261 36.3544 16.6441 35.3058C16.6786 35.2367 16.7634 35.2085 16.8325 35.243C16.9015 35.2775 16.9298 35.3623 16.8953 35.4314C16.3992 36.436 15.8937 38.0215 16.3144 39.8676C16.4149 40.3197 16.5687 40.7624 16.7697 41.1831C16.8042 41.2521 16.7728 41.3369 16.7038 41.3714C16.6849 41.3809 16.6629 41.384 16.6441 41.384L16.641 41.3871Z" fill="white"/>
<path d="M34.5521 42.7811C34.4862 42.7811 34.4296 42.734 34.4171 42.6681C34.4045 42.5927 34.4548 42.5237 34.5301 42.5111C37.0355 42.0967 39.409 41.0135 41.5847 39.2899C41.6444 39.2428 41.7291 39.2522 41.7762 39.3119C41.8233 39.3715 41.8139 39.4563 41.7542 39.5034C39.5408 41.2553 37.1265 42.3573 34.5772 42.7811C34.5709 42.7811 34.5615 42.7811 34.5552 42.7811H34.5521Z" fill="white"/>
<path d="M34.4391 49.3961C34.2884 49.3961 34.144 49.3898 34.0027 49.3804C33.9242 49.3741 33.8677 49.3082 33.8709 49.2297C33.8771 49.1512 33.9368 49.0884 34.0215 49.0978C36.1125 49.2422 39.1579 48.2627 42.3634 46.4072C42.4293 46.3664 42.5172 46.3915 42.558 46.4575C42.5957 46.5234 42.5737 46.6113 42.5078 46.649C39.4718 48.4103 36.5646 49.3929 34.4423 49.3929L34.4391 49.3961Z" fill="white"/>
</svg>
