<svg width="54" height="54" viewBox="0 0 54 54" fill="none" xmlns="http://www.w3.org/2000/svg">
<g clip-path="url(#clip0_563_7103)">
<path d="M28.6949 52.8008C18.592 53.4429 9.48612 48.707 8.66103 40.2707C7.88042 32.2938 14.7512 22.013 24.8547 21.3708C24.8547 21.3708 41.2768 19.4911 45.4217 35.1883C45.4217 35.1883 46.4097 42.7712 43.0055 47.291C43.0055 47.291 40.3616 51.8967 30.3428 52.696L28.696 52.8007L28.6949 52.8008Z" fill="white"/>
<path d="M29.087 5.32582C26.5033 4.63513 23.7579 4.72347 21.2649 5.66255C18.8834 6.55945 16.055 8.18748 14.6608 11.0725C11.9936 16.5897 13.7505 20.6561 13.7505 20.6561C13.7505 20.6561 14.5584 24.4903 22.6392 24.52C30.72 24.5496 35.6646 23.5517 36.9172 20.5968C38.1699 17.6418 38.3459 10.1939 32.498 6.63825C32.498 6.63825 31.3476 5.93024 29.0876 5.32629L29.087 5.32582Z" fill="white"/>
<path d="M22.2186 16.1901C22.5603 16.1684 22.8 15.6295 22.7538 14.9864C22.7077 14.3434 22.3933 13.8397 22.0515 13.8614C21.7098 13.8831 21.4701 14.422 21.5163 15.0651C21.5624 15.7081 21.8769 16.2118 22.2186 16.1901Z" fill="#625549"/>
<path d="M29.0221 15.424C29.3638 15.4023 29.6021 14.8448 29.5543 14.1788C29.5065 13.5128 29.1908 12.9905 28.849 13.0122C28.5073 13.0339 28.269 13.5914 28.3167 14.2574C28.3645 14.9235 28.6803 15.4458 29.0221 15.424Z" fill="#625549"/>
<path d="M24.0408 16.4439C23.9268 16.4434 23.8138 16.4811 23.7291 16.553C23.4589 16.7838 22.9485 17.3941 23.2728 18.5369C23.4913 19.3057 23.7098 19.6695 23.8718 19.8413C23.9738 19.9494 24.1289 19.9947 24.2808 19.9727C25.2383 19.8329 30.5919 18.9978 32.1016 17.5769C32.1965 17.4873 32.2441 17.3635 32.235 17.2372C32.22 17.0282 32.0516 16.8583 31.8305 16.8321C30.9006 16.722 28.2677 16.4611 24.0402 16.4435L24.0408 16.4439Z" fill="#F9A04D"/>
<path d="M19.9967 19.2157C20.4571 19.0011 20.5874 18.3653 20.2878 17.7956C19.9881 17.2259 19.3719 16.9381 18.9115 17.1526C18.451 17.3672 18.3207 18.003 18.6204 18.5727C18.92 19.1423 19.5362 19.4302 19.9967 19.2157Z" fill="#FCC7AA"/>
<path d="M26.1046 16.6959C26.1046 16.6959 25.4284 17.9297 25.9907 19.2726" stroke="white" stroke-width="0.4" stroke-miterlimit="10" stroke-linecap="round"/>
<path d="M28.4997 16.8063C28.4997 16.8063 28.4736 17.9869 28.6465 18.853" stroke="white" stroke-width="0.4" stroke-miterlimit="10" stroke-linecap="round"/>
<path d="M30.5537 16.9771C30.5537 16.9771 30.6842 17.3748 31.14 17.723" stroke="white" stroke-width="0.4" stroke-miterlimit="10" stroke-linecap="round"/>
<path d="M27.3999 37.876C28.8549 37.7835 29.9548 36.5983 29.8565 35.2289C29.7583 33.8594 28.4991 32.8242 27.0441 32.9167C25.5892 33.0091 24.4893 34.1943 24.5876 35.5638C24.6858 36.9332 25.945 37.9684 27.3999 37.876Z" fill="#F89A4C"/>
<path d="M27.468 42.7431C28.3871 42.6846 29.0864 41.9983 29.0298 41.21C28.9733 40.4217 28.1823 39.8301 27.2632 39.8885C26.344 39.9469 25.6447 40.6333 25.7013 41.4216C25.7578 42.2098 26.5488 42.8015 27.468 42.7431Z" fill="#F89A4C"/>
<path d="M33.7385 20.636C34.2895 20.4621 34.9001 20.5688 35.4375 20.7772C36.0606 21.0193 36.741 21.5183 37.0104 22.5464C37.0104 22.5464 40.2144 34.0985 39.9442 33.7395C39.9442 33.7395 40.0169 35.6779 37.0287 36.4163C37.0287 36.4163 37.0195 36.4169 37.0016 36.4201C33.5288 37.1346 33.1668 35.3436 32.9713 33.4517C32.7328 31.143 32.4658 28.0644 32.5707 26.6915C32.578 26.594 32.4942 26.5189 32.3917 26.5341C31.0239 26.7387 22.8869 27.8658 19.0581 26.3616C18.85 26.2799 18.6462 26.2062 18.4258 26.1593C17.2696 25.9135 13.1534 24.8104 14.584 21.7993C14.584 21.7993 14.7589 19.5923 20.991 21.794C21.0753 21.8237 21.1998 21.8545 21.3482 21.8842C22.3289 22.0825 23.3403 22.0987 24.3353 21.9776C26.2437 21.7459 30.466 21.6669 33.7379 20.6355L33.7385 20.636Z" fill="#495447"/>
<path d="M19.09 21.3358C19.09 21.3358 17.5976 22.2412 18.4039 25.9527" stroke="white" stroke-width="0.4" stroke-linecap="round" stroke-linejoin="round"/>
<path d="M23.1188 22.1962C23.1188 22.1962 22.0696 26.1077 23.7127 26.9062" stroke="white" stroke-width="0.4" stroke-linecap="round" stroke-linejoin="round"/>
<path d="M28.0123 21.7485C28.0123 21.7485 27.0717 26.6004 28.956 26.7489" stroke="white" stroke-width="0.4" stroke-linecap="round" stroke-linejoin="round"/>
<path d="M31.962 21.4784C31.962 21.4784 32.4255 25.157 31.8251 25.7591" stroke="white" stroke-width="0.4" stroke-linecap="round" stroke-linejoin="round"/>
<path d="M32.6826 27.3272C32.6826 27.3272 36.1722 27.2287 37.3062 25.402" stroke="white" stroke-width="0.4" stroke-linecap="round" stroke-linejoin="round"/>
<path d="M33.106 31.2348C33.106 31.2348 34.2771 32.0937 38.4683 29.8776" stroke="white" stroke-width="0.4" stroke-linecap="round" stroke-linejoin="round"/>
<path d="M34.6556 36.4577L33.6294 38.5283" stroke="#495447" stroke-miterlimit="10" stroke-linecap="round"/>
<path d="M35.5788 36.399L35.1718 38.6805" stroke="#495447" stroke-miterlimit="10" stroke-linecap="round"/>
<path d="M37.2329 35.8547L38.0654 37.8702" stroke="#495447" stroke-miterlimit="10" stroke-linecap="round"/>
<path d="M37.8685 35.1251L39.4659 37.2798" stroke="#495447" stroke-miterlimit="10" stroke-linecap="round"/>
<path d="M39.2332 34.0359L40.7773 36.0686" stroke="#495447" stroke-miterlimit="10" stroke-linecap="round"/>
</g>
<defs>
<clipPath id="clip0_563_7103">
<rect width="54" height="54" fill="white"/>
</clipPath>
</defs>
</svg>
