<svg width="221" height="134" viewBox="0 0 221 134" fill="none" xmlns="http://www.w3.org/2000/svg">
<g id="Frame" clip-path="url(#clip0_1096_6235)">
<g id="letter">
<g id="letter_3">
<path id="Vector" d="M221 12.4704V104.044H0V12.4704C0 5.58374 6.58617 0 14.6949 0H206.305C214.414 0 221 5.58374 221 12.4704Z" fill="#DECCB5"/>
</g>
<g id="letter_2">
<path id="Vector_2" d="M221 14.8021V121.52C221 128.417 214.414 134 206.305 134H14.6949C6.57463 134 0 128.417 0 121.52V14.8021C0 12.9604 2.46837 11.8828 4.23314 12.9702L100.511 69.2974C103.499 71.1195 106.994 72.0501 110.5 72.0893C114.006 72.0501 117.49 71.1195 120.477 69.2974L216.755 12.9702C218.52 11.8828 220.988 12.9604 220.988 14.8021H221Z" fill="#D1B795"/>
<path id="Vector_3" d="M13.103 127.584L61.6284 86.0093C88.5498 62.9494 132.45 62.9494 159.36 86.0093L207.885 127.584C210.653 129.954 208.681 134 204.736 134H16.2519C12.3187 134 10.3348 129.964 13.103 127.584Z" fill="#DBBF9B"/>
</g>
<g id="letter_1">
<path id="Vector_4" d="M221 12.4802V20.5325L135.876 89.5456C121.677 101.056 99.3346 101.056 85.1357 89.5456L0 20.5325V12.4802C0 5.58374 6.58617 0 14.6949 0H206.305C214.414 0 221 5.58374 221 12.4802Z" fill="#DECCB5"/>
</g>
</g>
</g>
<defs>
<clipPath id="clip0_1096_6235">
<rect width="221" height="134" fill="white"/>
</clipPath>
</defs>
</svg>
