<svg width="64" height="80" viewBox="0 0 64 80" fill="none" xmlns="http://www.w3.org/2000/svg">
<g clip-path="url(#clip0_1152_4173)">
<g opacity="0.4">
<path opacity="0.16" d="M32 63.7297C49.6731 63.7297 64 49.4633 64 31.8648C64 14.2664 49.6731 0 32 0C14.3269 0 0 14.2664 0 31.8648C0 49.4633 14.3269 63.7297 32 63.7297Z" fill="url(#paint0_radial_1152_4173)"/>
<path opacity="0.16" d="M32 63.7297C49.6731 63.7297 64 49.4633 64 31.8648C64 14.2664 49.6731 0 32 0C14.3269 0 0 14.2664 0 31.8648C0 49.4633 14.3269 63.7297 32 63.7297Z" fill="url(#paint1_radial_1152_4173)"/>
</g>
<path opacity="0.03" d="M64.0003 31.8648C64.0003 49.4627 49.6741 63.7296 32.0003 63.7296C19.9285 63.7296 9.41735 57.0733 3.96973 47.2443C10.4117 54.1305 19.3066 58.3882 29.1274 58.3882C46.0574 58.3882 60.2293 45.7377 63.8518 28.781C63.9504 29.7954 64.0003 30.8249 64.0003 31.8648Z" fill="url(#paint2_linear_1152_4173)"/>
<path d="M54.1865 55.6914C54.1563 55.4834 53.9857 55.3448 53.8082 55.3841C53.474 55.458 53.1259 55.5308 52.7639 55.6001C47.8454 56.5557 40.3696 57.1669 31.9991 57.1669C25.7451 57.1669 19.9923 56.826 15.4312 56.2553C13.6872 56.0369 11.0835 55.547 10.1866 55.3737C10.0114 55.3402 9.84548 55.4777 9.81531 55.6822L9.42429 58.387L7.69427 70.3951L7.47266 71.941C11.6416 73.4361 21.0563 74.4794 31.9991 74.4794C36.79 74.4794 41.2885 74.2795 45.1813 73.9283C47.3163 73.7376 49.2679 73.4996 50.9875 73.2258C53.2965 72.8561 55.1832 72.4228 56.5268 71.941L54.1853 55.6914H54.1865Z" fill="#DDB892"/>
</g>
<defs>
<radialGradient id="paint0_radial_1152_4173" cx="0" cy="0" r="1" gradientUnits="userSpaceOnUse" gradientTransform="translate(32 31.8648) scale(32 31.8648)">
<stop offset="0.11" stop-color="white" stop-opacity="0"/>
<stop offset="0.82" stop-color="white"/>
<stop offset="0.87" stop-color="#FBFCFF"/>
<stop offset="0.92" stop-color="#F0F6FF"/>
<stop offset="0.97" stop-color="#DEEAFF"/>
<stop offset="1" stop-color="#CFE1FF"/>
</radialGradient>
<radialGradient id="paint1_radial_1152_4173" cx="0" cy="0" r="1" gradientUnits="userSpaceOnUse" gradientTransform="translate(32 31.8648) scale(32 31.8648)">
<stop offset="0.11" stop-color="white" stop-opacity="0"/>
<stop offset="0.82" stop-color="white"/>
<stop offset="0.87" stop-color="#FBFCFF"/>
<stop offset="0.92" stop-color="#F0F6FF"/>
<stop offset="0.97" stop-color="#DEEAFF"/>
<stop offset="1" stop-color="#CFE1FF"/>
</radialGradient>
<linearGradient id="paint2_linear_1152_4173" x1="14.4786" y1="57.8752" x2="69.6781" y2="37.1453" gradientUnits="userSpaceOnUse">
<stop stop-color="white"/>
<stop offset="0.55" stop-color="#B8BEFF" stop-opacity="0"/>
<stop offset="1" stop-color="#B8BEFF"/>
</linearGradient>
<clipPath id="clip0_1152_4173">
<rect width="64" height="80" fill="white"/>
</clipPath>
</defs>
</svg>
